<?xml version="1.0" encoding="utf-8"?>
<!-- Generator: Adobe Illustrator 17.1.0, SVG Export Plug-In . SVG Version: 6.00 Build 0)  -->
<!DOCTYPE svg PUBLIC "-//W3C//DTD SVG 1.1//EN" "http://www.w3.org/Graphics/SVG/1.1/DTD/svg11.dtd">
<svg version="1.1" id="Layer_1" xmlns="http://www.w3.org/2000/svg" xmlns:xlink="http://www.w3.org/1999/xlink" x="0px" y="0px"
	 viewBox="0 0 17.5 17.5" style="enable-background:new 0 0 17.5 17.5;" xml:space="preserve">
<style type="text/css">
	.st0{fill:#B5B6B8;}
</style>
<path class="st0" d="M12.9,4.9V6c0,0.2-0.1,0.3-0.3,0.3h-1.1c-0.2,0-0.3-0.1-0.3-0.3V4.9c0-0.2,0.1-0.3,0.3-0.3h1.1
	C12.7,4.6,12.9,4.7,12.9,4.9 M8.9,10.2c0.8,0,1.4-0.6,1.4-1.4c0-0.8-0.6-1.4-1.4-1.4C8.1,7.3,7.4,8,7.4,8.8
	C7.4,9.6,8.1,10.2,8.9,10.2 M17.5,8.7c0,4.8-3.9,8.7-8.7,8.7C3.9,17.5,0,13.6,0,8.7C0,3.9,3.9,0,8.7,0C13.6,0,17.5,3.9,17.5,8.7
	 M13.8,7.3h-2.9c0.3,0.4,0.5,0.9,0.5,1.5c0,1.4-1.1,2.5-2.5,2.5c-1.4,0-2.5-1.1-2.5-2.5c0-0.5,0.2-1,0.5-1.5H4v4.4
	c0,1.1,0.9,1.9,1.9,1.9h5.9c1.1,0,1.9-0.9,1.9-1.9V7.3z M8.9,10.7c1.1,0,1.9-0.9,1.9-1.9c0-0.6-0.3-1.1-0.7-1.5
	C10,7.2,9.8,7.1,9.7,7C9.4,6.9,9.1,6.8,8.9,6.8C8.6,6.8,8.3,6.9,8.1,7C7.9,7.1,7.7,7.2,7.6,7.3C7.2,7.7,6.9,8.2,6.9,8.8
	C6.9,9.8,7.8,10.7,8.9,10.7 M13.8,5.7c0-1.1-0.9-1.9-1.9-1.9H6.5v2.4H6.1V3.8H5.9c0,0,0,0,0,0v2.4H5.4V3.8c-0.1,0-0.2,0.1-0.3,0.1
	v2.3H4.8V4.2C4.3,4.5,4,5.1,4,5.7V7h3.1c0.5-0.5,1.1-0.8,1.8-0.8c0.7,0,1.3,0.3,1.8,0.8h3.1V5.7z"/>
</svg>
