<?xml version="1.0" encoding="utf-8"?>
<!-- Generator: Adobe Illustrator 21.1.0, SVG Export Plug-In . SVG Version: 6.00 Build 0)  -->
<svg version="1.1" id="Слой_1" xmlns="http://www.w3.org/2000/svg" xmlns:xlink="http://www.w3.org/1999/xlink" x="0px" y="0px"
	 viewBox="0 0 118.6 61.1" style="enable-background:new 0 0 118.6 61.1;" xml:space="preserve">
<style type="text/css">
	.st0{fill:#FFFFFF;}
</style>
<path class="st0" d="M80.2,32.5L77.8,38h4.7L80.2,32.5z M87.4,43.4h-2.6l-1.4-3.3H77l-1.4,3.3h-2.5l6-13.8h2.2L87.4,43.4z"/>
<path class="st0" d="M90.7,43.4h-2.4V33.1h2.4v2.3c0.6-1.5,1.8-2.6,3.7-2.5v2.5h-0.1c-2.1,0-3.5,1.4-3.5,4.1V43.4z"/>
<path class="st0" d="M99.3,40.2c0,0.9,0.5,1.3,1.3,1.3c0.5,0,1-0.1,1.5-0.4v1.9c-0.6,0.3-1.3,0.5-2.1,0.5c-1.7,0-3-0.8-3-3v-5.5
	h-1.3v-2h1.3v-2.8h2.4v2.8h2.8v2h-2.8V40.2z"/>
<path class="st0" d="M107.6,43.6c-1.5,0-3.1-0.5-4.4-1.6l1.1-1.6c1.1,0.8,2.3,1.3,3.4,1.3c1,0,1.6-0.4,1.6-1.1v0
	c0-0.8-1.1-1.1-2.3-1.5c-1.5-0.4-3.2-1.1-3.2-3v0c0-2,1.6-3.2,3.7-3.2c1.3,0,2.7,0.5,3.8,1.2l-0.9,1.7c-1-0.6-2.1-1-2.9-1
	c-0.9,0-1.5,0.4-1.5,1v0c0,0.7,1.1,1.1,2.3,1.5c1.5,0.5,3.2,1.2,3.2,3v0C111.5,42.6,109.8,43.6,107.6,43.6"/>
<polygon class="st0" points="82.7,46.8 85,46.8 85,60.6 83,60.6 75.4,50.8 75.4,60.6 73.1,60.6 73.1,46.8 75.3,46.8 82.7,56.3 "/>
<path class="st0" d="M93.1,52.6c2.9,0.7,4.4,1.7,4.4,4c0,2.6-2,4.1-4.9,4.1c-2.1,0-4.1-0.7-5.7-2.2l1.5-1.7c1.3,1.1,2.6,1.8,4.3,1.8
	c1.5,0,2.4-0.7,2.4-1.7c0-1-0.6-1.5-3.1-2.1c-2.9-0.7-4.6-1.6-4.6-4.1c0-2.4,2-4,4.7-4c2,0,3.6,0.6,5,1.7l-1.3,1.8
	c-1.2-0.9-2.5-1.4-3.7-1.4c-1.4,0-2.2,0.7-2.2,1.7C89.8,51.5,90.5,52,93.1,52.6"/>
<polygon class="st0" points="107.4,46.8 109.4,46.8 112.8,57 116.1,46.8 118.6,46.8 113.8,60.7 111.7,60.7 108.3,50.8 105,60.7 
	102.9,60.7 98.1,46.8 100.7,46.8 104,57 "/>
<path class="st0" d="M51,36.3l-2.5,10.7L46,36.3h-3.6l-2.6,10.5l-2.4-10.5h-3.9l4.3,16.7h3.9l2.5-10.5l2.6,10.5h3.8l0-0.1l4.4-16.5
	H51z M15.1,46.9L6.1,36.3H2.2v16.7H6V42.3l9,10.6h3.9V36.3h-3.7V46.9z"/>
<path class="st0" d="M1.8,58L1.8,58c0-1.5,1.1-2.7,2.7-2.7c0.9,0,1.4,0.3,2,0.7l-0.6,0.7c-0.4-0.3-0.8-0.6-1.4-0.6
	c-0.9,0-1.7,0.8-1.7,1.8v0c0,1.1,0.7,1.8,1.8,1.8c0.5,0,0.9-0.2,1.2-0.4v-1H4.5v-0.8h2.2v2.2c-0.5,0.4-1.2,0.8-2.1,0.8
	C2.9,60.7,1.8,59.5,1.8,58"/>
<path class="st0" d="M11.7,58L11.7,58c0-1-0.7-1.8-1.8-1.8c-1,0-1.7,0.8-1.7,1.8v0c0,1,0.7,1.8,1.8,1.8C10.9,59.9,11.7,59,11.7,58
	 M7.2,58L7.2,58c0-1.5,1.1-2.7,2.7-2.7c1.6,0,2.7,1.2,2.7,2.7v0c0,1.4-1.1,2.7-2.7,2.7C8.3,60.7,7.2,59.5,7.2,58"/>
<polygon class="st0" points="12.5,55.4 13.5,55.4 15.1,59.4 16.6,55.4 17.6,55.4 15.5,60.6 14.7,60.6 "/>
<polygon class="st0" points="18.2,55.4 22.1,55.4 22.1,56.3 19.1,56.3 19.1,57.6 21.7,57.6 21.7,58.4 19.1,58.4 19.1,59.8 
	22.1,59.8 22.1,60.6 18.2,60.6 "/>
<path class="st0" d="M25.2,58c0.6,0,1.1-0.3,1.1-0.9v0c0-0.6-0.4-0.9-1.1-0.9h-1.3V58H25.2z M23,55.4h2.3c0.6,0,1.2,0.2,1.5,0.5
	c0.3,0.3,0.4,0.7,0.4,1.1v0c0,0.8-0.5,1.4-1.2,1.6l1.4,2h-1.1L25,58.8h-1.1v1.8H23V55.4z"/>
<polygon class="st0" points="28,55.4 28.8,55.4 31.6,59 31.6,55.4 32.5,55.4 32.5,60.6 31.7,60.6 28.9,56.9 28.9,60.6 28,60.6 "/>
<polygon class="st0" points="33.4,55.4 34.4,55.4 35.9,57.9 37.5,55.4 38.5,55.4 38.5,60.6 37.6,60.6 37.6,56.9 35.9,59.3 
	35.9,59.3 34.3,56.9 34.3,60.6 33.4,60.6 "/>
<polygon class="st0" points="39.3,55.4 43.1,55.4 43.1,56.3 40.2,56.3 40.2,57.6 42.8,57.6 42.8,58.4 40.2,58.4 40.2,59.8 
	43.2,59.8 43.2,60.6 39.3,60.6 "/>
<polygon class="st0" points="44.1,55.4 44.9,55.4 47.7,59 47.7,55.4 48.6,55.4 48.6,60.6 47.8,60.6 45,56.9 45,60.6 44.1,60.6 "/>
<polygon class="st0" points="50.9,56.3 49.3,56.3 49.3,55.4 53.5,55.4 53.5,56.3 51.8,56.3 51.8,60.6 50.9,60.6 "/>
<path class="st0" d="M19.9,50.6l2.2-2.6c1.5,1.3,3.1,2.1,5.1,2.1c1.5,0,2.4-0.6,2.4-1.6v0c0-0.9-0.6-1.4-3.4-2.2
	c-3.4-0.9-5.6-1.8-5.6-5.2v0c0-3.1,2.5-5.1,5.9-5.1c2.5,0,4.6,0.8,6.3,2.2l-1.9,2.8c-1.5-1-3-1.7-4.4-1.7c-1.4,0-2.2,0.7-2.2,1.5
	v0.1c0,1.1,0.7,1.5,3.7,2.2c3.4,0.9,5.4,2.1,5.4,5.1v0c0,3.4-2.6,5.2-6.2,5.2C24.5,53.3,21.9,52.4,19.9,50.6"/>
<path class="st0" d="M11.1,4.7c-0.4,0-0.6,0.2-0.6,0.6c0,0-0.1,0.6-0.2,1.6c-0.1,0.9-0.2,2.4-0.2,4.2c0,4,0.5,9.7,3,14.1
	c1.9,3.3,4.6,5.2,7.6,5.3c-1.2-0.9-2.6-2.4-3.3-4.7c-0.7-2.2-1.1-4.8-1.1-7.7c0-4,0.7-7.5,0.9-8.5c0,0,0,0,0,0
	c0.1-0.6,0.4-1,0.9-1.2c-3.1-2-5.7-3.1-6.2-3.4c-0.3-0.1-0.5-0.2-0.5-0.2l0,0l0,0C11.4,4.7,11.3,4.7,11.1,4.7"/>
<path class="st0" d="M37.4,9.3c-0.1,0-0.2,0-0.3,0.1c0,0-0.1,0.1-0.3,0.2c-0.2,0.1-0.4,0.4-0.8,0.7c-0.5,0.4-1.4,1.3-2.5,2.5
	c-1.7,1.9-4,5-5.1,8.5c-0.6,2.1-0.9,3.8-0.9,5.3c0,1.1,0.2,2,0.5,2.7c0.3,0.7,0.8,1.2,1.6,1.5c0.3,0.1,0.7,0.2,1.1,0.2h0
	c2.1,0,5.6-1.8,6.8-5.7c0.7-2.1,1-4.6,1-7.4c0-3.5-0.5-6.5-0.7-7.6c-0.1-0.4-0.1-0.6-0.1-0.6C37.6,9.6,37.5,9.3,37.4,9.3"/>
<path class="st0" d="M18.8,9.3c-0.2,0-0.3,0.2-0.4,0.5c0,0-0.1,0.3-0.1,0.6c-0.1,0.3-0.2,0.9-0.3,1.8c-0.2,1.4-0.4,3.5-0.4,5.8
	c0,2.8,0.3,5.3,1,7.4c1.2,3.9,4.8,5.7,7,5.7h0c0.5,0,0.9-0.1,1.2-0.2c0.2-0.1,0.3-0.2,0.5-0.3c-0.2-0.2-0.3-0.5-0.4-0.7
	c-0.4-0.9-0.6-1.9-0.6-3.3c0-1.6,0.4-3.5,1-5.7c0.1-0.2,0.1-0.4,0.2-0.6c0-0.1,0.1-0.2,0.1-0.2c-2.3-5.7-7.6-10-8.2-10.5
	c-0.2-0.2-0.3-0.2-0.3-0.2C19,9.4,18.9,9.3,18.8,9.3"/>
<path class="st0" d="M28.1,0c-0.1,0-0.3,0.1-0.4,0.3c0,0-0.1,0.2-0.3,0.5c-0.3,0.4-0.5,0.9-0.8,1.3c-0.6,1-1.4,2.6-2.3,4.7
	c-0.6,1.4-1.2,2.8-1.7,4.3c1.7,1.7,4,4.4,5.5,7.6c1.2-2.5,3-5.1,5.3-7.5c-1.6-4.9-3.9-8.9-4.8-10.4c-0.2-0.3-0.3-0.5-0.3-0.5
	C28.3,0,28.1,0,28.1,0"/>
<path class="st0" d="M45,4.7c-0.1,0-0.2,0-0.3,0.1l0,0l0,0c0,0-0.2,0.1-0.5,0.2c-0.3,0.1-0.7,0.3-1.2,0.5l-0.2,0.1
	c-1.5,0.7-3,1.6-4.4,2.4c-0.2,0.1-0.3,0.2-0.5,0.3c0.4,0.2,0.8,0.7,0.9,1.2c0,0,0,0,0,0.1c0.2,1,0.9,4.4,0.9,8.5
	c0,2.9-0.3,5.5-1,7.7c-0.7,2.3-2.1,3.8-3.2,4.7c3-0.1,5.6-2,7.5-5.3c2.5-4.4,3-10.1,3-14.1c0-1.4-0.1-2.8-0.2-4.2
	c-0.1-1-0.2-1.6-0.2-1.6C45.6,4.9,45.4,4.7,45,4.7"/>
<path class="st0" d="M36.7,1.3c0,0-0.1,0-0.1,0h0h0c-0.1,0-0.2,0-0.3,0.1l0,0l0,0c0,0-0.7,0.4-1.7,1.1c-0.6,0.4-1.4,1.1-2.5,2
	c0.8,1.6,1.5,3.3,2.1,5c1.3-1,2.7-2,4.3-3c-0.5-2.3-1-4-1.2-4.7c0,0,0,0,0,0C37.2,1.4,37,1.3,36.7,1.3"/>
<path class="st0" d="M19.4,1.3c-0.3,0-0.5,0.2-0.6,0.5c0,0,0,0,0,0c-0.2,0.6-0.7,2.4-1.2,4.7c1.6,1,3,1.9,4.3,3
	c0.6-1.6,1.3-3.3,2.1-5c-0.9-0.7-1.7-1.4-2.5-2c-1-0.7-1.7-1.1-1.7-1.1l0,0l0,0c-0.1-0.1-0.2-0.1-0.3-0.1h0h0
	C19.5,1.3,19.4,1.3,19.4,1.3"/>
<path class="st0" d="M4.8,12.1c-0.9,0-1.4,0-1.4,0c-0.3,0-0.7,0.2-0.9,0.5c-0.1,0.2-0.2,0.4-0.2,0.6c0.1,0.6,0.5,2.8,3.1,6.1
	c1.3-0.7,2.7-1.2,3.9-1.7C9.2,16,9,14.2,8.9,12.3c-1.6-0.1-2.8-0.2-3.6-0.2C5.2,12.1,5,12.1,4.8,12.1"/>
<path class="st0" d="M51.3,12.1c-0.1,0-0.3,0-0.5,0c-0.8,0-2,0.1-3.6,0.2c0,1.8-0.2,3.6-0.5,5.3c1.3,0.5,2.6,1.1,3.9,1.7
	c2.6-3.3,3-5.5,3.1-6.1c0-0.2-0.1-0.5-0.2-0.6c-0.2-0.3-0.5-0.5-0.9-0.5C52.7,12.1,52.2,12.1,51.3,12.1"/>
<path class="st0" d="M46.5,18.8c-0.5,2.7-1.4,5-2.5,7c-1.2,2-2.6,3.6-4.3,4.6c12.4-0.7,15.9-4.7,16.2-5.1l0,0
	c0.1-0.2,0.2-0.4,0.2-0.6c0-0.4-0.2-0.7-0.4-0.9c0,0-0.1-0.1-0.4-0.3l0,0l0,0c-0.2-0.2-0.5-0.3-0.8-0.6c-0.1-0.1-0.2-0.1-0.3-0.2
	c-0.9-0.6-2.3-1.4-4.1-2.3C48.9,19.8,47.7,19.3,46.5,18.8"/>
<path class="st0" d="M9.6,18.8c-4.2,1.6-7.5,3.8-8.8,4.7c-0.3,0.2-0.4,0.3-0.4,0.3C0.2,24,0,24.3,0,24.7c0,0.2,0.1,0.4,0.2,0.6
	c0,0,0,0,0,0c0,0,0,0.1,0.1,0.1c0,0,0,0,0.1,0.1c0.1,0.1,0.3,0.3,0.6,0.6c0.5,0.4,1.5,1.1,3,1.8c3.1,1.4,7.4,2.3,12.5,2.6
	c-1.7-1-3.2-2.6-4.3-4.6C11,23.9,10.2,21.5,9.6,18.8"/>
<path class="st0" d="M45,31.3c-0.6,0-1.6,0.1-3,0.3c-0.2,0-0.4,0.1-0.7,0.1c-0.6,0.1-1.4,0.1-2.4,0.1c-0.6,0-1.3,0-1.9,0h-0.1
	c-0.6,0-1.4,0-2.1,0c-1.5,0-3.5,0.1-5.2,0.5c-0.1,0-0.1,0.1-0.1,0.2c0,0.1,0.1,0.1,0.2,0.1c0,0,0.1,0,0.1,0c0.7-0.1,1.4-0.1,2-0.1
	c2.3,0,3.8,0.4,5.3,0.8c1.4,0.4,2.7,0.7,4.6,0.7c2,0,3.5-0.4,4.2-1.1c0.2-0.2,0.3-0.5,0.3-0.8C46,31.6,45.8,31.3,45,31.3"/>
<path class="st0" d="M11.2,31.3c-0.9,0-1,0.2-1.1,0.8c0,0.3,0.1,0.5,0.3,0.8c0.6,0.7,2.2,1.1,4.2,1.1c1.8,0,3.2-0.3,4.6-0.7
	c1.5-0.4,3-0.8,5.3-0.8c0.6,0,1.3,0,2,0.1c0,0,0.1,0,0.1,0c0.1,0,0.2,0,0.2-0.1c0-0.1-0.1-0.2-0.1-0.2c-1.7-0.5-3.7-0.5-5.2-0.5
	c-0.7,0-1.5,0-2.1,0h-0.1c-0.7,0-1.3,0-1.9,0c-1,0-1.8,0-2.4-0.1c-0.2,0-0.5-0.1-0.7-0.1C12.8,31.4,11.8,31.3,11.2,31.3"/>
<path class="st0" d="M63.3,61.1c-0.3,0-0.5-0.2-0.5-0.5V11.2c0-0.3,0.2-0.5,0.5-0.5c0.3,0,0.5,0.2,0.5,0.5v49.4
	C63.8,60.9,63.6,61.1,63.3,61.1"/>
</svg>
