<?xml version="1.0" encoding="utf-8"?>
<!-- Generator: Adobe Illustrator 21.1.0, SVG Export Plug-In . SVG Version: 6.00 Build 0)  -->
<svg version="1.1" id="Слой_1" xmlns="http://www.w3.org/2000/svg" xmlns:xlink="http://www.w3.org/1999/xlink" x="0px" y="0px"
	 viewBox="0 0 95.4 59.7" style="enable-background:new 0 0 95.4 59.7;" xml:space="preserve">
<style type="text/css">
	.st0{fill:#FFFFFF;}
</style>
<path class="st0" d="M95.4,25.3c-0.5-0.5-0.8,1.2-2.1-0.1l-9.4-9.2c-0.2-0.2-0.4-0.4-0.6-0.3c-0.1,0.1-0.1,0.2-0.1,0.4
	c-0.5,2.3-1.6,2.9-1.2,3.3c0.5,0.5,0.9-1.2,2-0.1l3.1,3c-0.6,0-1.4,0.6-1.8,1c-1.6,1.6-1.3,4-0.2,5.8c1.3,1.9,4.1,3.7,6.2,1.6
	c0.9-0.9,1.1-2,1.1-3.2c0.8,0.8,1,1,1.2,0.8c0.1-0.1,0.2-0.4,0.4-0.8C94.7,26.7,95.7,25.6,95.4,25.3 M91.9,27.6
	c0,0.5-0.4,1.1-0.7,1.4c-1.3,1.3-3.7,0.1-4.7-0.9c-1-0.9-2.1-2.6-0.9-3.8c0.7-0.7,1.7-0.9,2.7-0.7l3.1,3
	C91.7,27,91.9,27.1,91.9,27.6 M82.2,9.5c4.1-4,2.8-5.5,2.8-5.5c-1.2-2.4-5-1.1-6.5-0.5C76.2,1.3,73.1,0,69.7,0c-7.2,0-13,5.8-13,13
	c0,1.3,0.2,2.6,0.6,3.8c-0.6,0.5-1.9,1.7-2.7,2.9L54.1,19l-0.5,0.2l-0.3,2.3l-2.1,1V23l1.9,0.5l-0.4,2.3l0.5,0.3l1.5-2.1l1.9,0.5
	l0.2-0.4l-0.4-0.7c0,0,2.1-0.2,4.3-1c2.3,2.2,5.5,3.6,9,3.6c7.2,0,13-5.8,13-13C82.7,11.8,82.5,10.6,82.2,9.5 M80,15.2l0.1-0.2
	c0.1,0.1,0.4,0.1,0.2,0.2C80.2,15.4,80,15.2,80,15.2 M80.2,14.7c-0.1-0.2,0.2-0.4,0.2-0.4l0.2,0.1C80.4,14.6,80.3,14.8,80.2,14.7
	 M79.6,18.9c0-0.1,0-0.3,0-0.3l0.2,0.1c0,0,0.1-0.2,0.2-0.3c0.1-0.1,0.2,0.1,0.2,0.1s-0.2,0.2-0.3,0.4c0,0.2-0.1,0.3-0.2,0.4
	l-0.2-0.2C79.5,19.2,79.5,19,79.6,18.9 M78.5,20.6c0.2-0.2,0.3-0.6,0.4-0.6c0.1-0.1,0.5-0.4,0.5-0.4c-0.1,0.2-0.3,0.5-0.3,0.5
	s-0.1,0.2-0.2,0.3c-0.1,0.1,0,0.2-0.2,0.3C78.7,20.8,78.3,20.8,78.5,20.6 M78.7,15.4c-0.2,0.1-0.2-0.1-0.2-0.1l0-0.2
	C78.6,15.3,78.9,15.4,78.7,15.4 M78.5,16.6C78.5,16.6,78.5,16.7,78.5,16.6l0.2,0.1c0,0,0,0.2-0.1,0.2C78.6,16.9,78.3,16.7,78.5,16.6
	 M77.2,14.8l0-0.2c0.1,0.1,0.4,0.2,0.2,0.3C77.3,15,77.2,14.8,77.2,14.8 M77.1,14.7c-0.2,0.1-0.2-0.1-0.2-0.1l0-0.2
	C76.9,14.5,77.2,14.6,77.1,14.7 M75.7,21.7c0.1-0.1,0.6-0.4,0.6-0.3c0,0.1-0.2,0.3-0.2,0.3L76,22L75.7,21.7z M69.2,21
	c0,0,0.2-0.2,0.4-0.3c0.2-0.1,0.3-0.1,0.5-0.3c0.2-0.2,0.2-0.5,0.2-0.6c0-0.1,0.1-0.2,0.1-0.2l0.2,0.1l0-0.3l0-0.2
	c0,0,0.2-0.2,0.3-0.3c0.1-0.1,0.2-0.1,0.4,0c0.2,0,0.5-0.1,0.5-0.1s-0.1-0.2-0.1-0.3c0-0.2,0.2-0.4,0.2-0.4s-0.2,0-0.1-0.1
	c0.1-0.1,0.5,0,0.5,0s0.2-0.1,0.4-0.2c0.2-0.1,0.3-0.2,0.4-0.1c0.1,0,0,0.2,0,0.3c-0.1,0.2,0,0.3,0.1,0.4c0.1,0,0.6,0.1,0.7,0.1
	c0.1,0,0.2-0.1,0.4-0.1c0.2-0.1,0.1-0.3,0.1-0.4c0-0.1-0.1-0.2-0.1-0.5c0-0.3-0.3-0.3-0.1-0.5c0.2-0.1,0.6,0.5,0.7,0.4
	c0.1,0,0.1-0.2,0.1-0.2l0.2,0.4l0.2,0.2l0.2,0.2c0,0,0.1,0,0.6,0.2c0.4,0.1,1,0.7,1.1,0.9c0.1,0.2-0.1,0.8-0.2,0.9
	c-0.1,0.1-0.2,0.6-0.3,0.8c0,0.3-0.4,0.5-0.4,0.5s-0.2,0.1-0.3,0.1c-0.1,0-0.2,0.2-0.3,0.3c-0.1,0.1-0.2,0.1-0.4,0.1
	c-0.2,0-0.2-0.2-0.4-0.2c-0.2,0-0.2-0.1-0.2-0.1l-0.1-0.3c0,0-0.1,0.3-0.4,0.6c-0.2,0.2-0.2-0.2-0.2-0.2l-0.3-0.1c0,0-0.3,0-0.4,0
	c-0.1,0-0.4,0.2-0.5,0.3c-0.1,0.1-0.1,0.1-0.5,0.2C72,22,72.1,21.9,72.1,22c0,0.2-0.4,0.3-0.4,0.3l-0.2,0.1
	c-0.2,0.1-0.1,0.1-0.3,0.3c-0.3,0.2-0.5,0.2-0.5,0.2l-0.2-0.2l-0.1-0.3l-0.2-0.1c0,0-0.1-0.2-0.5-0.3c-0.4-0.1-0.5-0.3-0.5-0.3
	l0.4,0.2l-0.1-0.2l-0.3-0.3c0,0-0.1-0.1-0.2-0.3C68.9,21,69.2,21,69.2,21 M76.6,14.7c-0.2,0.1-0.2-0.1-0.2-0.1l0-0.2
	C76.4,14.5,76.7,14.6,76.6,14.7 M60.3,16.8c0-0.1,0-0.3,0-0.3c0.1,0.1,0.2,0.2,0.3,0.3c0,0.1,0.1,0.2,0,0.3
	c-0.1,0.1-0.1,0.3-0.2,0.1C60.4,17.2,60.3,16.9,60.3,16.8 M54.7,21.6l1.2-0.6L55,22.3l0.2,0.3c0,0-0.6-0.1-0.8-0.5l-0.6,0.2
	c0,0,0.3,1,1.8,1.1l0.1,0.2l-1.4-0.4l-0.8,1.1l0.2-1.3l-1.3-0.4l1.4-0.7l0.2-1.5L54.7,21.6z M57.4,17.5c0.6,1.7,1.5,3.2,2.7,4.4
	c-0.9,0.3-2.9,0.9-4.1,0.8l-0.2-0.4l1.5-2l-0.1-0.6L55,20.7l-0.2-0.3C54.8,20.4,55.2,19.4,57.4,17.5 M69,0.8l-0.3,0.4l-0.2,0.1
	l-0.2,0l0,0.2l-0.2,0.1c0,0-0.5,0.2-0.6,0.2c-0.2,0-0.4,0-1.3,0.2c-0.8,0.2-0.5,0.2-0.8,0.3c-0.3,0.1-0.5,0.2-0.7,0.2
	c-0.1,0-0.3-0.2-0.3-0.2l0,0.3c0,0-0.2-0.1-0.4-0.2c-0.2-0.1-0.4,0-0.8,0.2c0.4-0.3,1.5-0.9,2.9-1.4C67.5,0.8,69,0.8,69,0.8
	 M69.4,1.5c0.2-0.1,0.5-0.1,0.5-0.1s-0.2,0-0.1,0.3C69.9,1.9,70.1,2,69.9,2c-0.1,0-0.3,0.3-0.3,0.3l-0.2,0.1c0,0-0.1,0.4,0.1,0.3
	c0.2,0,0.2,0,0.3,0.1c0,0.1,0,0.3,0,0.4c0,0.1,0,0.5,0,0.5s-0.4-0.3-0.6-0.4c-0.1-0.1-0.3-0.1-0.3-0.2c0.1-0.2,0.1-0.5,0.1-0.6
	c0-0.1,0-0.2-0.3,0c-0.2,0.2-0.3,0.1-0.4,0.2c-0.1,0.1-0.2,0.2,0,0.2c0.2,0,0.1,0.2-0.1,0.2c-0.2,0.1-0.3,0.1-0.5,0.1
	c-0.2,0-0.4,0.1-0.5,0.2c-0.1,0.1-0.1,0.4-0.2,0.5c-0.1,0.1-0.4,0.4-0.1,0.4c0.3,0,0.4,0,0.4,0l0.2-0.1L68,4.6c0,0-0.1,0.1,0,0.2
	c0.1,0.1,0,0.3,0,0.4c0,0.1,0.1,0.3,0,0.5c0,0.2-0.1,0.4-0.2,0.5c-0.1,0.2-0.2,0.3-0.3,0.3c-0.2,0-0.3-0.2-0.3,0
	c0,0.2,0.1,0.3,0,0.4c-0.1,0.1,0.1,0.2-0.1,0.2c-0.1,0-0.3,0.2-0.3,0.2s0,0.2,0.2,0.3c0.1,0.1,0.3,0.2,0.3,0.2s0.1,0.1,0.1,0.2
	c0,0.1,0,0.3-0.2,0.3c-0.1,0-0.2,0.2-0.2,0.2s0-0.3-0.1-0.5c-0.1-0.1-0.1-0.3-0.1-0.3l-0.2,0c0,0,0-0.1,0-0.2c0-0.1-0.1-0.2-0.2-0.1
	c-0.1,0-0.2,0.2-0.3,0.3c-0.1,0.1-0.3,0.3-0.3,0.3s0.1-0.2,0.1-0.4c0-0.1,0-0.3-0.1-0.2c-0.1,0.1-0.2,0.3-0.2,0.3s0,0.1-0.1,0.2
	c-0.1,0.1-0.1,0-0.1,0.1c-0.1,0.1,0,0.3,0.1,0.3c0.1,0.1,0.2,0.3,0.3,0.2c0.1-0.1,0.2-0.3,0.2-0.3s0.2-0.2,0.2,0
	c0,0.1,0,0.3-0.1,0.3c-0.1,0-0.3,0.3-0.3,0.3l0.1,0.2c0,0,0.2,0.1,0.3,0.2c0.1,0.1,0.2,0.1,0.2,0.1l0.1,0.2L66,9.9l0.3,0
	c0,0,0.1,0.3,0.1,0.5c0,0.2-0.1,0.4-0.1,0.6c0,0.2-0.1,0.5-0.2,0.7c-0.1,0.2-0.3,0.4-0.4,0.5c-0.1,0.1-0.3,0.2-0.5,0.3
	c-0.2,0.1-0.4,0.3-0.4,0.3l0.1,0.2c0,0-0.2,0.1-0.2-0.1c0-0.1-0.2-0.3-0.3-0.2c-0.1,0.1,0,0.3-0.2,0.4c-0.1,0.1-0.3,0-0.2,0.3
	c0.1,0.4,0.2,0.4,0.3,0.5c0.2,0,0.4,0.1,0.5,0.3c0.1,0.2,0.1,0.4,0.1,0.5c0.1,0.1,0.1,0.4,0.1,0.4S65,15,64.8,15.2
	c-0.1,0.2-0.3,0.2-0.3,0.2l-0.1,0.4l-0.2-0.3l-0.1-0.1c0,0-0.2,0-0.2-0.1c-0.1-0.1-0.2-0.2-0.2-0.2s-0.1,0-0.2,0
	c-0.1,0-0.2-0.2-0.2-0.2s0,0.3,0,0.4c0,0.1,0,0.2,0,0.4c0,0.2,0.1,0.2,0.2,0.3c0.1,0.1,0.2,0.2,0.2,0.2s0.3,0,0.4,0.1
	c0.1,0.1,0.3,0.3,0.4,0.5c0.1,0.2,0.2,0.3,0.2,0.3l0.3,0.2c0,0-0.5,0-0.7-0.2c-0.2-0.1-0.3-0.3-0.4-0.5c-0.1-0.1-0.4-0.3-0.5-0.4
	c-0.1-0.1-0.2-0.3-0.2-0.4c0-0.1-0.1-0.8-0.3-1c-0.2-0.2-0.4-0.5-0.4-0.5s-0.1,0.1-0.2,0.3c-0.1,0.1-0.3,0.2-0.3,0.2s0.1-0.2,0-0.5
	c-0.1-0.3-0.1-0.5-0.1-0.5s-0.2-0.1-0.3-0.3c-0.1-0.1-0.3-0.3-0.3-0.3s-0.2,0.1-0.4,0.2c-0.2,0.1-0.2,0.2-0.2,0.3
	c0,0.1-0.1,0.4-0.1,0.4l-0.1,0.3c0,0-0.1,0.1-0.1,0.3c0,0.1-0.1,0.3-0.1,0.3L60,15.1c0,0,0.1,0.2,0.1,0.4c0.1,0.2,0.1,0.6,0.1,0.6
	l-0.1,0.3l0,0.2c0,0,0,0.5-0.1,0.2c-0.1-0.2-0.7-1.4-0.8-1.7c-0.1-0.3-0.2-0.9-0.2-0.9l0-0.4c0,0-0.1,0.3-0.3,0.2
	c-0.1-0.1-0.1-0.3-0.1-0.3s-0.1-0.2-0.2-0.3c-0.1-0.2-0.1-0.3-0.1-0.3l0-0.1c0,0-0.3,0.1-0.3,0c-0.1-0.1-0.3-0.3-0.4-0.7
	c0,0.4,0,0.8,0,0.8l0.1-0.2c0,0,0.2,0.6,0.2,0.7c0,0.1,0,0.5,0,0.5s0,0.4-0.1,0.6c-0.1,0.1,0,0.3,0,0.3l0.1,0.4c0,0-0.1,0.1-0.1,0.2
	c0,0.1,0.1,0.2,0.1,0.2s0.1,0.6,0.1,0.7c0,0.1,0.3,0.8,0.3,0.8s-0.9-1.5-0.9-4.1c0-2.6,1-6,3.7-8.9c0,0,0,0.3,0.2,0.3
	c0.2-0.1,0.4-0.1,0.4-0.2C61.9,4.2,62,4.1,62,4.1l0.3-0.3l0.3,0c0,0,0.2-0.1,0.3-0.2c0.1-0.1,0.5-0.3,0.5-0.3s0.1-0.1,0.5-0.2
	c0.3-0.1,1.1-0.7,0.7-0.2c-0.3,0.4,0.2,0.1,0.5,0c0.3-0.1,0.5,0,0.5,0l0.6-0.3c0,0,0.4-0.3,0.6-0.3c0.2-0.1,0.8-0.1,0.8-0.1l0.4-0.3
	c0,0,0.2-0.2,0.4-0.2c0.2-0.1,0.4-0.2,0.5-0.2C69,1.5,69.2,1.6,69.4,1.5 M67.7,17.1l0,0.2c0,0,0,0.2-0.1,0.2c-0.1,0-0.2,0.1-0.3,0.1
	c-0.1,0-0.6,0.1-0.6,0.1l-0.2-0.1c0,0-0.1-0.1-0.2-0.2c-0.2-0.1-0.3-0.1-0.3-0.1s-0.3-0.2-0.1-0.4l0.2-0.2c0,0-0.1-0.1,0.2-0.3
	c0.3-0.2,0.2-0.2,0.3-0.4c0-0.2,0.1-0.3,0.2-0.4c0.1-0.1,0.2-0.3,0.2-0.3l0.1-0.2c0.1,0.1,0.1,0.2,0.3,0.2c0.2,0,0.2,0,0.3,0
	c0.1,0,0.4,0,0.2,0.1c-0.2,0.1-0.3,0.3-0.3,0.3l0,0.1c0,0,0.1,0.2,0.2,0.3c0.1,0.1,0.3,0.2,0.3,0.2l-0.3,0.1l0,0.3L67.7,17.1
	L67.7,17.1z M68.6,17c0,0,0.1,0.3,0.1,0.4c0,0.1,0,0.3-0.1,0.2c-0.1-0.1-0.1-0.4-0.1-0.4l-0.3,0c0,0,0-0.3,0-0.4s0-0.2,0-0.2
	l0.1-0.4c0,0,0.2-0.1,0.3-0.2c0.1,0,0.2-0.1,0.3-0.1c0.2-0.1,0.2-0.2,0.3-0.3l-0.1,0.3c0,0-0.4,0.2-0.7,0.3c-0.3,0.1,0,0.3,0.1,0.3
	c0.2-0.1,0.4-0.2,0.4-0.2l-0.3,0.2c0,0,0.1,0.2,0.2,0.3c0.1,0.1,0.4,0.2,0.4,0.2s-0.1,0.1-0.2,0.1C69.1,17.4,68.6,17,68.6,17
	 M68.7,6.2c0.1,0.1,0.4,0.2,0.4,0.2l0.1,0.2c0,0,0.1,0.3,0.1,0.4c0,0.1,0.1,0.3,0.1,0.3s0,0.2-0.1,0.2c-0.1,0-0.2,0.2-0.3,0.3
	c-0.1,0.1-0.1,0.1-0.2,0.2c-0.1,0-0.3,0.2-0.3,0.2l-0.3,0.1c0,0,0-0.1-0.1,0.2c-0.2,0.3-0.1,0.4-0.1,0.4L67.9,9l-0.2-0.4
	c0,0-0.3-0.3,0.2-0.5c0.5-0.2,0.5-0.5,0.6-0.6c0.1-0.1,0.1-0.1,0.2-0.3c0.2-0.2,0.2-0.3,0.2-0.3l-0.1-0.4
	C68.8,6.5,68.8,6.4,68.7,6.2c-0.2,0-0.2-0.1-0.1-0.2c0.1-0.1,0.1-0.3,0.1-0.3l0-0.1c0.2,0.1,0.4,0.1,0.4,0.1l0.2,0
	c0,0,0,0.1-0.1,0.2c-0.1,0.1-0.3,0.2-0.3,0.2S68.6,6.1,68.7,6.2 M68.5,4.9l0,0.2l0.2,0.2l-0.2,0.1c0,0-0.3-0.3-0.3-0.4
	c0-0.1-0.2-0.3-0.2-0.4c0-0.1-0.2-0.5-0.1-0.5c0.2,0,0.2,0.3,0.3,0.4c0.1,0,0.5,0.2,0.5,0.2L68.5,4.9z M67.3,13.1
	c0,0.1,0.3,0.2,0.3,0.2l0.3-0.1c0,0,0,0.2-0.1,0.2c-0.1,0-0.4,0.1-0.4,0.1s-0.3,0-0.4-0.2c-0.1-0.1-0.1-0.2-0.1-0.4
	c0-0.2-0.1-0.4,0-0.4c0.1-0.1,0.3-0.1,0.3-0.1c0.1,0.1,0.2,0.2,0.1,0.4C67.2,12.9,67.2,13,67.3,13.1 M67.3,14.4
	c0,0.2-0.2,0.3-0.2,0.4C66.9,15,66.8,15,66.8,15s0.3-0.8,0.5-0.9C67.4,14,67.3,14.3,67.3,14.4 M67.1,13.6l0.3,0c0,0,0.1,0.3-0.1,0.2
	C67.2,13.8,67.1,13.6,67.1,13.6 M68.2,13.5c0.1-0.1,0.3,0,0.3,0s0,0.1,0.1,0.2c0,0.1,0.2,0.3,0.1,0.3c-0.2,0-0.3-0.1-0.3-0.1
	S68.1,13.5,68.2,13.5 M68.2,14.8c-0.1,0.1-0.2,0-0.1-0.1c0.1-0.1,0.3-0.2,0.4-0.4c0.1-0.1,0.4-0.3,0.4-0.3c0,0.1,0,0.2,0.1,0.3
	c0.1,0.1,0.1,0.2,0.1,0.2l-0.1,0.1l0.1,0.2c0,0,0,0.1-0.1,0.1c-0.1,0-0.3-0.1-0.3-0.1s0-0.2-0.2-0.2C68.2,14.7,68.3,14.6,68.2,14.8
	 M68,14.2l-0.2-0.2l-0.1-0.2l0.2,0c0.1,0.1,0.3,0,0.4,0.1c0.1,0.1,0.1,0.2,0,0.3C68.1,14.3,68,14.2,68,14.2 M66.6,11.5
	c0.1,0.1,0,0.3,0,0.3s-0.1-0.7-0.1-0.9c0.1-0.2,0.2-0.1,0.2,0.1C66.8,11.3,66.5,11.4,66.6,11.5 M65.9,18.6l-0.3,0.1
	c0,0-0.2,0.2-0.5-0.1c-0.3-0.3-0.5-0.4-0.5-0.4s-0.2,0-0.3-0.3c-0.2-0.3-0.2-0.2-0.4-0.3c-0.1-0.1-0.1-0.3-0.5-0.3
	c-0.4,0-0.5-0.5-0.5-0.5c0.1,0.1,0.5,0,0.5,0l0.2,0.3l0.5,0.2c0,0,0.4,0,0.5,0.1c0.1,0.1,0.3,0.4,0.3,0.4s0.2,0.1,0.3,0.1
	c0.1,0,0.2,0.2,0.2,0.2l0.3,0.1L65.9,18.6z M64.8,13.3c-0.2,0-0.3-0.1-0.2-0.3c0.1-0.1,0.4-0.2,0.4-0.1C65,13.2,64.9,13.4,64.8,13.3
	 M70.1,15.8c0,0.1,0.1,0.3,0.1,0.3l-0.1,0.2l-0.2-0.4l-0.1-0.3l0.1-0.3l0-0.1l0.2,0.3C70.1,15.6,70.1,15.7,70.1,15.8 M73.2,1.4
	l-1.5-0.3c0,0,0,0,0.1,0.2c0,0,0,0,0,0c0,0,0,0,0.1,0c0.1,0.1,0.5,0.3,0.5,0.3s-0.4-0.2-0.5-0.3c-0.1,0-0.4,0.1-0.4,0.1
	s-0.2,0-0.4,0c-0.2,0-0.4-0.2-0.4-0.2s-0.3,0.1-0.4,0.1c-0.2,0-0.1-0.2-0.1-0.2S70,1.2,69.8,1.2c-0.2,0.1-0.4,0-0.5-0.1
	c-0.1-0.1-0.1-0.2,0.1-0.3C71.3,0.6,73.2,1.4,73.2,1.4 M81.3,9.4l0.5,0.5c-1.5,1.4-3.5,3-5.8,4.5c0.1,0.1,0.3,0.2,0.1,0.2
	c-0.2,0.1-0.2-0.1-0.2-0.1l0-0.1c-0.4,0.3-0.8,0.6-1.3,0.8l0,0.1c0,0,0.3,0.2,0.4,0.2c0.1,0,0.5,0.2,0.5,0.2l-0.4,0.2
	c0,0-0.4-0.1-0.6-0.2c-0.2-0.1-0.4,0-0.5,0.1c-0.1,0.1,0,0.4-0.2,0.5c-0.1,0.1-0.6,0-0.6,0l-0.5,0.2l0-0.1c-0.5,0.3-0.9,0.5-1.4,0.8
	c-3.8,2.2-7.6,4-10.5,5l-0.3-0.6c2-0.7,4.2-1.6,6.6-2.9c-0.1,0-0.2,0-0.2,0s-0.4-0.1-0.6-0.1c-0.2,0-0.6,0-0.6,0
	c0.2-0.2,0.5-0.3,0.6-0.3c0.2,0.1,0.3,0,0.5,0c0.2-0.1,0.7-0.2,0.7-0.2l0,0.1l0.5-0.1l0,0c0.9-0.5,1.9-1,2.8-1.5
	c0.4-0.3,0.9-0.5,1.3-0.8l-0.2,0c0,0-0.3,0.1-0.4,0.1c-0.1,0-0.4,0.1-0.5,0c-0.1-0.1,0-0.1,0.1-0.2c0.1-0.1,0-0.2,0-0.2l-0.1,0.1
	c0,0-0.1,0-0.3,0.1c-0.2,0-0.1-0.2-0.1-0.3c0.1-0.1,0.2-0.1,0.3-0.1c0.1,0,0.3,0.1,0.3,0.1l0.2,0.3c0,0,0.2,0.1,0.2,0
	c0-0.1,0.1-0.2,0.2-0.4s0.2-0.2,0.2-0.2s0.1,0,0.3,0c0.2,0,0.4-0.1,0.7-0.1c0.2,0,0.3-0.1,0.5-0.1C76.8,13.2,79.4,11.2,81.3,9.4
	 M82,8.8C81.4,7,80.4,5.4,79.1,4c4.3-1.6,5.2,0,5.2,0C85.5,5.1,83.2,7.6,82,8.8 M50.3,19.5l2.2,0.4v-2.2l-6.3-1.3v2.5l2.2,0.4v18.9
	l1.9-0.4V19.5z M42.1,39.4l3.1-0.7V16.1l-1.9-0.4v20.1h-0.1l-2.7-20.6l-3.3-0.7v25.9l1.9-0.4V17.7h0.1L42.1,39.4z M36.9,52.4
	c-0.4,0-0.7,0.3-0.7,0.8v5.6c0,0.5,0.3,0.8,0.7,0.8c0.4,0,0.7-0.3,0.7-0.8v-2.2h3.1v2.2c0,0.5,0.3,0.8,0.7,0.8
	c0.4,0,0.7-0.3,0.7-0.8v-5.6c0-0.5-0.3-0.8-0.7-0.8c-0.4,0-0.7,0.3-0.7,0.8v2.1h-3.1v-2.1C37.7,52.7,37.4,52.4,36.9,52.4 M34.3,41.1
	l2.5-0.5l-3.9-27l-3.8-0.8l-4.5,30.4l2.6-0.6l1.3-9.6l4.7-0.4L34.3,41.1z M32.8,29.4L29,29.6l1.9-13.3h0.1L32.8,29.4z M22,43.8
	l3.6-31.7l-2.7-0.5l-2.4,24.9h-0.1l-2.6-26.1L15,9.9l4,34.6L22,43.8z M16.6,45L11.4,9.1l-5-1l-6,40.4l3.3-0.7l1.8-12.7l6.6-0.6
	l1.5,11.1L16.6,45z M11.5,30.2l-5.4,0.2l2.7-17.7h0.1L11.5,30.2z M0,56c0,2.1,1.4,3.7,3.4,3.7c2,0,3.4-1.6,3.4-3.7
	c0-2-1.4-3.7-3.4-3.7C1.4,52.4,0,54,0,56 M1.5,56c0-1.2,0.6-2.3,1.9-2.3s1.9,1.1,1.9,2.3c0,1.2-0.6,2.3-1.9,2.3
	C2.2,58.3,1.5,57.2,1.5,56 M7.5,53.2v3.5c0,1.7,1.4,2.9,3,2.9c1.6,0,3-1.3,3-2.9v-3.5c0-0.5-0.3-0.8-0.7-0.8c-0.4,0-0.7,0.3-0.7,0.8
	v3.5c0,0.9-0.6,1.6-1.5,1.6c-0.9,0-1.5-0.7-1.5-1.6v-3.5c0-0.5-0.3-0.8-0.7-0.8S7.5,52.7,7.5,53.2 M13.9,53.2c0,0.3,0.2,0.7,0.7,0.7
	h1.1v5c0,0.5,0.3,0.8,0.7,0.8c0.4,0,0.7-0.3,0.7-0.8v-5h1.1c0.5,0,0.7-0.3,0.7-0.7c0-0.3-0.2-0.7-0.7-0.7h-3.7
	C14.1,52.5,13.9,52.8,13.9,53.2 M21.6,56c0,2.1,1.4,3.7,3.4,3.7c2,0,3.4-1.6,3.4-3.7c0-2-1.4-3.7-3.4-3.7C23,52.4,21.6,54,21.6,56
	 M23.1,56c0-1.2,0.6-2.3,1.9-2.3c1.2,0,1.9,1.1,1.9,2.3c0,1.2-0.6,2.3-1.9,2.3S23.1,57.2,23.1,56 M29.1,53.3v5.6
	c0,0.5,0.3,0.8,0.7,0.8c0.4,0,0.7-0.3,0.7-0.8v-2.2h1.5c0.5,0,0.7-0.3,0.7-0.7c0-0.3-0.2-0.7-0.7-0.7h-1.5v-1.4h1.8
	c0.4,0,0.7-0.3,0.7-0.7c0-0.3-0.2-0.7-0.7-0.7h-2.5C29.4,52.5,29.1,52.9,29.1,53.3 M43,56c0,2.1,1.4,3.7,3.4,3.7
	c2,0,3.4-1.6,3.4-3.7c0-2-1.4-3.7-3.4-3.7C44.4,52.4,43,54,43,56 M44.6,56c0-1.2,0.6-2.3,1.9-2.3c1.2,0,1.9,1.1,1.9,2.3
	c0,1.2-0.6,2.3-1.9,2.3C45.2,58.3,44.6,57.2,44.6,56 M50.2,58.7c0,0.1,0,0.1,0,0.2c0,0.4,0.3,0.7,0.7,0.7c0.5,0,0.7-0.2,0.8-0.7
	l0.6-4h0l1.2,4.2c0.1,0.2,0.3,0.6,0.8,0.6c0.5,0,0.7-0.3,0.8-0.6l1.2-4.2h0l0.6,4c0.1,0.5,0.3,0.7,0.8,0.7c0.4,0,0.7-0.3,0.7-0.7
	c0,0,0-0.1,0-0.2l-0.9-5.5c-0.1-0.4-0.4-0.8-1-0.8c-0.5,0-0.9,0.4-1,0.7l-1.2,3.9h0l-1.2-3.9c-0.1-0.4-0.5-0.7-1-0.7
	c-0.5,0-0.9,0.4-1,0.8L50.2,58.7z M59.1,53.4v5.5c0,0.4,0.3,0.7,0.8,0.7h2.6c0.5,0,0.7-0.3,0.7-0.7c0-0.3-0.2-0.7-0.7-0.7h-1.8v-1.5
	h1.6c0.5,0,0.7-0.3,0.7-0.7c0-0.3-0.2-0.7-0.7-0.7h-1.6v-1.4h1.7c0.5,0,0.7-0.3,0.7-0.7c0-0.3-0.2-0.7-0.7-0.7h-2.5
	C59.3,52.5,59.1,52.9,59.1,53.4 M59.7,41.8c4.6,0,6.9-3.3,6.9-4.2c0-0.1-0.2-0.2-0.3-0.2c-0.6,0-2,2.8-5.4,2.9
	c-4.1,0-5.9-4.3-5.9-7.3c0-2.9,1.7-5.9,4.9-5.9c2.5,0,4.4,1.9,5.5,3.9c0.2,0.3,0.3,0.7,0.7,0.7c0.4,0,0.3-0.5,0.3-0.7l-0.4-4.1
	c0-0.1-0.2-0.1-0.3-0.1c-0.3,0-0.3,0.7-0.7,0.7c-0.6,0-2.3-1.3-4.9-1.3c-5.4,0-7.7,4.8-7.6,8.4C52.3,36.3,53.3,41.8,59.7,41.8
	 M66.2,58.7c0,0.1,0,0.1,0,0.2c0,0.4,0.3,0.7,0.7,0.7c0.5,0,0.7-0.2,0.8-0.7l0.6-4h0l1.2,4.2c0.1,0.2,0.3,0.6,0.8,0.6S71,59.3,71,59
	l1.2-4.2h0l0.6,4c0.1,0.5,0.3,0.7,0.8,0.7c0.4,0,0.7-0.3,0.7-0.7c0,0,0-0.1,0-0.2l-0.9-5.5c-0.1-0.4-0.4-0.8-1-0.8
	c-0.5,0-0.9,0.4-1,0.7l-1.2,3.9h0L69,53.2c-0.1-0.4-0.5-0.7-1-0.7c-0.5,0-0.9,0.4-1,0.8L66.2,58.7z M74,38.6
	c0.2,0.4,0.7,1.2,1.7,0.9c0.8-0.2,1.9-1.2,1.8-1.7c0-0.1-0.1-0.2-0.3-0.1c-0.1,0-0.4,0.2-0.6,0.3c-0.5,0.1-0.6-0.1-0.9-1.2l-0.9-3.6
	c-0.5-2.1-1.8-2.8-3.9-2.3c-1.5,0.4-3.7,1.5-3.3,3.4c0.1,0.4,0.5,0.3,0.7,0.3c0.1,0,1.5-0.4,1.3-1.4c-0.2-1-0.1-1.2,0.7-1.4
	c1.7-0.4,2.1,0.8,2.6,2.6c-2,1.1-4.7,2.1-4.1,4.7c0.3,1.2,1.3,1.8,2.5,1.5C72.2,40.4,73.3,39.6,74,38.6 M73.6,38
	c0.1,0.5-0.9,1-1.3,1.1c-1.1,0.3-1.4-0.8-1.5-1.1c-0.3-1.4,1.1-2.5,2-2.7c0.2,0,0.2,0.2,0.3,0.7L73.6,38z M75.1,53.4v5.5
	c0,0.4,0.3,0.7,0.8,0.7h2.6c0.5,0,0.7-0.3,0.7-0.7c0-0.3-0.2-0.7-0.7-0.7h-1.8v-1.5h1.6c0.5,0,0.7-0.3,0.7-0.7
	c0-0.3-0.2-0.7-0.7-0.7h-1.6v-1.4h1.7c0.5,0,0.7-0.3,0.7-0.7c0-0.3-0.2-0.7-0.7-0.7h-2.5C75.3,52.5,75.1,52.9,75.1,53.4 M79.6,37.9
	c0.1,0.2,0.2,0.2,0.4,0c0.5-0.2,1-0.6,1.9-1.1c0.6-0.3,1.8-0.8,2.2-1c0.2-0.1,0.2-0.4,0.1-0.5c-0.3-0.6-1.8,0.9-2.7-0.9L80.4,32
	c-0.1-0.2-0.9-1.6,0.2-2.1c1.1-0.5,1.5,0.2,1.9,0c0.3-0.2,0.6-1.4,0.2-2.1c-0.2-0.4-1.7-0.7-2.1-0.5c-0.5,0.2-0.8,1.3-1.2,2.7
	l-0.7-1.5c-0.1-0.3-0.2-0.4-0.4-0.3c-0.2,0.1-0.2,0.7-1.7,1.9c-0.6,0.5-0.9,0.7-0.7,1c0.3,0.5,1.2-0.6,1.7,0.3l2.3,4.5
	C80.5,37.4,79.3,37.3,79.6,37.9 M79.8,53.3v5.6c0,0.6,0.5,0.7,0.8,0.7h1.7c2,0,3.4-1.3,3.4-3.4c0-2.2-1.3-3.6-3.5-3.6h-1.6
	C80.1,52.5,79.8,52.8,79.8,53.3 M81.2,53.9h0.9c1.4,0,2,0.9,2,2.2c0,1.2-0.6,2.1-1.9,2.1h-1V53.9z M86.4,53.2v5.6
	c0,0.5,0.3,0.8,0.7,0.8c0.4,0,0.7-0.3,0.7-0.8v-5.6c0-0.5-0.3-0.8-0.7-0.8C86.8,52.4,86.4,52.7,86.4,53.2 M88.5,58.6
	c0,0-0.1,0.2-0.1,0.3c0,0.4,0.3,0.7,0.7,0.7c0.4,0,0.6-0.2,0.7-0.5l0.3-0.9h2.8l0.3,0.9c0.1,0.3,0.3,0.5,0.7,0.5
	c0.4,0,0.7-0.3,0.7-0.7c0-0.1,0-0.2-0.1-0.4l-1.9-5.4c-0.2-0.5-0.5-0.8-1.1-0.8c-0.5,0-0.9,0.4-1.1,0.8L88.5,58.6z M90.6,56.8
	l0.9-2.9h0l0.9,2.9H90.6z"/>
</svg>
