<?xml version="1.0" encoding="utf-8"?>
<!-- Generator: Adobe Illustrator 21.1.0, SVG Export Plug-In . SVG Version: 6.00 Build 0)  -->
<svg version="1.1" id="Слой_1" xmlns="http://www.w3.org/2000/svg" xmlns:xlink="http://www.w3.org/1999/xlink" x="0px" y="0px"
	 viewBox="0 0 45.9 78.7" style="enable-background:new 0 0 45.9 78.7;" xml:space="preserve">
<style type="text/css">
	.st0{fill:#FFFFFF;}
</style>
<path class="st0" d="M31.2,73h4.1v-7.8c0-3,1-4.3,3.2-4.3c1.9,0,2.6,1.2,2.6,3.7V73h4.1v-9.2c0-3.7-1.1-6.1-5.5-6.1
	c-1.7,0-3.5,0.8-4.6,2.5h-0.1v-2.1h-3.9V73z M21.6,69.5c-2.5,0-3.3-2.3-3.3-4.5c0-2.2,1-4.2,3.3-4.2c2.7,0,3.5,2.2,3.5,4.6
	C25,67.5,23.9,69.5,21.6,69.5 M28.9,58.1H25v2H25c-1-1.7-2.5-2.4-4.4-2.4c-4.2,0-6.4,3.5-6.4,7.4c0,4.1,1.9,7.5,6.4,7.5
	c1.8,0,3.6-0.8,4.5-2.3H25v2c0,2.1-1,3.7-3.3,3.7c-1.4,0-2.7-0.5-3.1-2h-4.1c0.2,3.4,3.6,4.8,6.6,4.8c6.9,0,7.7-4.2,7.7-6.6V58.1z
	 M12.4,52.4H8.3v3.4h4.1V52.4z M8.3,73h4.1V58.1H8.3V73z"/>
<path class="st0" d="M32.1,53.8c0.2,4,3.5,5.3,7,5.3c3.4,0,6.8-1.3,6.8-5.2c0-2.8-2.3-3.6-4.7-4.2c-2.3-0.5-4.6-0.8-4.6-2.2
	c0-1.2,1.4-1.4,2.3-1.4c1.5,0,2.7,0.4,2.8,2h3.9c-0.3-3.7-3.3-4.8-6.6-4.8c-3.2,0-6.5,1-6.5,4.8c0,2.6,2.4,3.5,4.7,4
	c2.9,0.6,4.6,1.1,4.6,2.3c0,1.4-1.5,1.9-2.7,1.9c-1.6,0-3.1-0.7-3.1-2.5H32.1z M20.7,49.5c0.1-1.2,0.8-3.2,3.4-3.2
	c2,0,2.9,1.1,3.3,3.2H20.7z M31.4,52.1c0.3-4.6-2.2-8.9-7.2-8.9c-4.5,0-7.6,3.4-7.6,7.9c0,4.6,2.9,7.8,7.6,7.8c3.4,0,5.8-1.5,7-5
	h-3.6c-0.3,0.9-1.6,1.9-3.2,1.9c-2.3,0-3.5-1.2-3.7-3.8H31.4z M11.3,51.1c0,2.5-0.8,4.8-3.5,4.8c-2.5,0-3.6-2.5-3.6-4.8
	c0-2.5,0.9-4.8,3.6-4.8C10.4,46.4,11.3,48.7,11.3,51.1 M11.4,58.6h3.9V38h-4.1v7.5h-0.1c-0.9-1.5-2.7-2.2-4.4-2.2
	c-4.4,0-6.6,3.7-6.6,7.7c0,4.1,2.2,8,6.7,8c1.9,0,3.6-0.7,4.5-2.3h0.1V58.6z"/>
<path class="st0" d="M41.6,36.7c0,2.5-1.1,4.8-3.5,4.8c-2.4,0-3.5-2.3-3.5-4.8c0-2.5,1.1-4.8,3.5-4.8C40.5,31.9,41.6,34.2,41.6,36.7
	 M30.6,44.2h3.9v-1.9h0.1c0.9,1.6,2.7,2.3,4.9,2.3c3,0,6.2-2.4,6.2-7.9c0-5.5-3.2-7.8-6.2-7.8c-1.8,0-3.7,0.7-4.7,2.2h-0.1v-7.5
	h-4.1V44.2z M19.1,33.8c0.1-1.6,1.2-2.3,2.7-2.3c1.4,0,2.7,0.3,2.7,2c0,1.7-2.3,1.6-4.8,2c-2.5,0.3-5.1,1.2-5.1,4.5
	c0,3.1,2.3,4.5,5.1,4.5c1.8,0,3.7-0.5,5-1.8c0,0.5,0.1,1,0.3,1.4h4.2c-0.4-0.6-0.5-2-0.5-3.3v-7.8c0-3.6-3.6-4.2-6.5-4.2
	c-3.3,0-6.8,1.2-7,5H19.1z M24.4,38.4c0,0.9-0.1,3.4-3.3,3.4c-1.3,0-2.5-0.4-2.5-1.9c0-1.5,1.2-1.9,2.4-2.2c1.3-0.2,2.7-0.3,3.4-0.9
	V38.4z M8.9,44.2H13V23.6H8.9V44.2z"/>
<path class="st0" d="M35.1,20.7c0.1-1.2,0.8-3.2,3.4-3.2c2,0,2.9,1.1,3.3,3.2H35.1z M45.8,23.3c0.3-4.6-2.2-8.9-7.2-8.9
	c-4.5,0-7.6,3.4-7.6,7.9c0,4.6,2.9,7.8,7.6,7.8c3.4,0,5.8-1.5,7-5H42c-0.3,0.9-1.6,1.9-3.2,1.9c-2.3,0-3.5-1.2-3.7-3.8H45.8z
	 M30.4,20.1c-0.3-3.8-3.5-5.7-7-5.7c-4.8,0-7.6,3.4-7.6,8.1c0,4.5,3,7.6,7.5,7.6c3.9,0,6.7-2.2,7.2-6.1h-4c-0.3,1.8-1.4,3-3.3,3
	c-2.6,0-3.4-2.6-3.4-4.7c0-2.2,0.9-4.8,3.5-4.8c1.7,0,2.8,0.9,3,2.6H30.4z"/>
<path class="st0" d="M35.6,5c0.1-1.6,1.2-2.3,2.7-2.3c1.4,0,2.7,0.3,2.7,2c0,1.7-2.3,1.6-4.8,2c-2.5,0.3-5.1,1.2-5.1,4.5
	c0,3.1,2.3,4.5,5.1,4.5c1.8,0,3.7-0.5,5-1.8c0,0.5,0.1,1,0.3,1.4h4.2c-0.4-0.6-0.5-2-0.5-3.3V4.2c0-3.6-3.6-4.2-6.5-4.2
	c-3.3,0-6.8,1.2-7,5H35.6z M41,9.5c0,0.9-0.1,3.4-3.3,3.4c-1.3,0-2.5-0.4-2.5-1.9c0-1.5,1.2-1.9,2.4-2.2C38.9,8.7,40.3,8.6,41,8V9.5
	z M22.7,12.6c-2.7,0-3.6-2.3-3.6-4.7c0-2.4,0.9-4.8,3.5-4.8c2.6,0,3.6,2.5,3.6,4.8C26.2,10.3,25.4,12.6,22.7,12.6 M15.1,20.6h4.1
	v-7.1h0.1c1,1.5,2.7,2.3,4.5,2.3c4.4,0,6.6-3.7,6.6-7.7c0-4.2-2.1-8-6.8-8c-1.8,0-3.5,0.7-4.4,2.3H19V0.4h-3.9V20.6z M0,10.5
	c0.2,4,3.5,5.3,7,5.3c3.4,0,6.8-1.3,6.8-5.2c0-2.8-2.3-3.6-4.7-4.2C6.8,5.8,4.4,5.6,4.4,4.1c0-1.2,1.4-1.4,2.3-1.4
	c1.5,0,2.7,0.4,2.8,2h3.9C13.1,1.1,10.1,0,6.8,0C3.6,0,0.3,1,0.3,4.8c0,2.6,2.4,3.5,4.7,4C8,9.4,9.7,9.8,9.7,11.1
	C9.7,12.5,8.2,13,7,13c-1.6,0-3.1-0.7-3.1-2.5H0z"/>
</svg>
