<?xml version="1.0" encoding="utf-8"?>
<!-- Generator: Adobe Illustrator 21.1.0, SVG Export Plug-In . SVG Version: 6.00 Build 0)  -->
<svg version="1.1" id="Слой_1" xmlns="http://www.w3.org/2000/svg" xmlns:xlink="http://www.w3.org/1999/xlink" x="0px" y="0px"
	 viewBox="0 0 112.9 63.8" style="enable-background:new 0 0 112.9 63.8;" xml:space="preserve">
<style type="text/css">
	.st0{fill:#FFFFFF;}
</style>
<path class="st0" d="M42.8,59.8c0-1.2-0.5-1.8-1.3-1.8c-0.8,0-1.3,0.7-1.3,1.8c0,1.2,0.5,1.8,1.3,1.8C42.2,61.7,42.8,61,42.8,59.8
	 M39.4,59.8c0-1.5,0.8-2.4,2-2.4c1.2,0,2.1,0.9,2.1,2.4c0,1.5-0.8,2.4-2.1,2.4C40.2,62.2,39.4,61.3,39.4,59.8"/>
<path class="st0" d="M46.2,57.6h0.6v1c0.3-0.8,0.7-1.2,1.3-1.2c0.1,0,0.2,0,0.2,0v0.7h-0.1c-0.9,0-1.4,0.6-1.4,1.7v2.3h-0.7V57.6z"
	/>
<path class="st0" d="M53,59.8c-1.2,0-1.9,0.4-1.9,1c0,0.5,0.4,0.8,0.9,0.8c0.8,0,1.4-0.7,1.4-1.6v-0.2C53.3,59.8,53.2,59.8,53,59.8
	 M53.5,61.3c-0.3,0.6-0.9,1-1.6,1c-0.9,0-1.6-0.6-1.6-1.4c0-1,0.9-1.6,2.7-1.6c0.1,0,0.3,0,0.4,0V59c0-0.7-0.4-1-1.1-1
	c-0.7,0-1.1,0.2-1.2,0.8l-0.6-0.1c0.2-0.8,0.9-1.2,2-1.2c1.2,0,1.7,0.6,1.7,1.8v2c0,0.3,0,0.6,0.1,0.9h-0.7
	C53.6,61.9,53.5,61.6,53.5,61.3"/>
<path class="st0" d="M57.1,62.1h0.7v-2.5c0-1,0.6-1.6,1.3-1.6c0.6,0,0.9,0.4,0.9,1.2v2.9h0.7v-2.9c0-1.2-0.5-1.8-1.5-1.8
	c-0.6,0-1.1,0.3-1.5,1v-0.8h-0.6V62.1z"/>
<path class="st0" d="M64.3,59c0,0.6,0.4,1,1,1c0.6,0,1-0.4,1-1c0-0.6-0.4-1-1-1C64.7,58,64.3,58.4,64.3,59 M63.9,62.6
	c0,0.5,0.5,0.8,1.5,0.8c1,0,1.5-0.3,1.5-0.7c0-0.4-0.3-0.6-1-0.6l-1.5-0.1C64.1,62.1,63.9,62.3,63.9,62.6 M63.6,59.1
	c0-0.9,0.7-1.6,1.7-1.6c0.4,0,0.7,0.1,1,0.2c0.1-0.5,0.4-0.8,1-0.8c0.1,0,0.2,0,0.3,0v0.5h-0.2c-0.4,0-0.6,0.2-0.7,0.5
	c0.3,0.3,0.4,0.7,0.4,1.1c0,0.9-0.7,1.5-1.7,1.5c-0.2,0-0.5,0-0.7-0.1c-0.3,0.1-0.5,0.2-0.5,0.4c0,0.3,0.2,0.5,0.6,0.5l1.4,0.1
	c1,0.1,1.5,0.4,1.5,1.1c0,0.8-0.8,1.3-2.3,1.3c-1.4,0-2.1-0.5-2.1-1.2c0-0.4,0.3-0.8,0.8-0.9c-0.3-0.2-0.5-0.4-0.5-0.7
	c0-0.4,0.2-0.6,0.7-0.8C63.8,59.9,63.6,59.5,63.6,59.1"/>
<path class="st0" d="M72.8,59.4c0-0.9-0.5-1.4-1.2-1.4c-0.7,0-1.2,0.5-1.3,1.4H72.8z M71.5,62.2c-1.2,0-2-0.9-2-2.4
	c0-1.5,0.8-2.4,2-2.4c1.2,0,2,0.9,2,2.4v0.1h-3.3v0c0,1.1,0.5,1.8,1.4,1.8c0.6,0,1-0.3,1.3-0.9l0.6,0.1
	C73.1,61.8,72.5,62.2,71.5,62.2"/>
<path class="st0" d="M69.2,26c-1.2,0.4-1.5,1.9-2.7,1.9c-0.7,0.1-1.1-0.6-1-1.6v-2.8c0-2.8,1.4-5.3,2-7.9l-0.3-0.6
	c-1.6,0.3-3.4,1.5-4.1,3c-0.6,1.3-1,1.9-1.5,3.2c-0.2,0.7-0.8,1-1,1.4c-1.3,2.3-5.9,8.2-3.8,6.3c6.7-5.9,4.2,0.5,5.9,1.4
	c1.9,1,4.2-0.9,5.9-2.3C69,27.5,69.8,25.8,69.2,26 M71.9,6.3c1-0.8-0.3-1.4-0.7-2L71,3.5c-1.5,0-3.2,1.2-3.8,2.5
	c-0.3,0.8,0.5,2.2,1.5,2.1C69.9,7.8,70.9,7.2,71.9,6.3"/>
<path class="st0" d="M94.9,27h-0.2c-0.2,0.7-1,0.7-1.5,0.7c-0.8,0.1-1.4-0.3-1.5-1.1c-0.3-3,1-6.5,0.8-9.5c-0.1-0.7,0.3-2.7-1-1.8
	c-3.7,2.5-5.2,6.8-7.7,10.2h-0.4c0.2-1,0.1-1.6,0.1-2.7c0-1,0.7-1.3,0.3-2.1c-0.2-0.4,0.2-1.2,0.3-1.8c0.3-1.7,0.8-3.9-0.4-4.9
	c-0.5-0.4-1.3,0.4-1.8,0.8c-0.9,0.8-1.2,2-1.7,3c-0.7,1.2-0.8,2.6-1.3,4c-0.2,0.6-0.3,0.9-0.5,1.3c-0.3,0.7-0.3,1.6-0.9,2
	c-0.3,0.2-0.5-0.6-0.4-1c0.3-0.7,0.5-1.1,0.5-1.7c-0.1-1,0.2-1.8,0.4-2.9c0.4-1.9,2-6.7,1.9-7.2c-0.3-1.5,0.1-1.6-1.1-1.7
	c-3.1-0.4-3.6,2.6-5,5.7c-0.5,1.1-0.6,2.8-1,3.9c-0.5,1.3-0.7,3.5-1.2,4.8c-0.1,0.4-1.7,4.2-2,5.4c0,0-0.8,1.7-1.8,3.9
	c-0.6,1.3-0.4,0.1-1.2,1.4c-0.7,1.3-2.5,1.5-3,2.9c-0.4,1.3-0.7,2.7,1.1,2.4c0.8-0.1,1.4-0.5,1.7-1.2c1.1-2,0.5-0.5,1.3-2.8
	c0.7-2.1,1.5-2.4,2.1-4c0.2-1,1.5-2.6,1.7-3.6c0.8-3.1,1.5-4.2,2.3-8c0.3-1.1,0.5-4.4,1.9-4.3c0.9,0.1,0,1.9-0.1,2.7
	c-0.1,1-0.4,2-0.6,3l0.1,0.1c-0.7,1.5-0.3,3.4-1,4.9l-0.3,5.3l0.4,0.5c1.7,0.2,2.1-1.6,3-2.6c0.9-1.1,0.7-2.6,1.3-3.9
	c0.3-0.7,0.3-1.5,0.5-2.1c0.2-0.7,0.6-1.3,0.7-2c0.2-1.3,0.7-2.7,1.1-4c0.1-0.2,0.4-0.5,0.6-0.3c0.5,0.6,0.1,1.6-0.1,2.5
	c-0.2,1.4-0.3,3.1-0.6,4.6c-0.2,1.1-0.8,2.6-0.1,3.5c0.2,0.3,0.8,0.3,1.1,0c1.9-1.8,3.2-4,4.6-6.2c1.1-1.7,1.3-3.7,3.1-4.5
	c0.4-0.2,0.5,0.7,0.4,1.1c-0.1,1.6-0.3,2.7-0.7,4.1c-0.1,0.4,0,0.6-0.1,1.2c-0.3,1.6-0.3,3.6,0.6,4.9c0.1,0.2,0.3,0.1,0.7,0.1
	c0.8,0.1,1.7-0.1,2.3-0.7C93.7,28.7,94.4,28,94.9,27"/>
<path class="st0" d="M63.6,0.5c0,2.5-1.5,4.8-2.5,7c-0.9,1.9-2.1,3.5-3,5.4c-0.8,1.7-1.9,3.2-2.3,5.1c-0.1,0.3-0.1,0.3-0.1,0.5
	c-1,2.3-1.4,4.9-2.1,7.3c-0.5,1.5-0.6,3-0.8,4.6c-0.3,2.2,0.1,4.4,0.9,6.4c0.3,0.8,0.7,1.7,1,2.5c0.6,1.7,3.5,2,2.7,3.8
	c-0.2,0.6-0.9,1-1.5,1c-0.4-0.1-0.5,0.3-0.6,0c-0.6-1.4-1.9-2.4-1.9-3.9c-0.1-0.8-0.7-1.2-0.9-1.9c-0.6-1.2-1.1-2.1-1.1-3.4
	c0.1-2.4-0.3-4.1-0.5-6.6c-0.1-1,0.3-3.2-0.8-2.5c-2.1,1.2-3.6,4.4-5.7,3.8c-1.6-0.4,2-8.2,4.5-10.3l0.5-0.4
	c1.6-1.8,4.7-2.1,5.6-5.2c1-3.4,1.5-7.1,3.6-10C59,2.8,59,1.8,60.1,1.4C61.2,1.1,63.6-1,63.6,0.5 M52.2,19.1c-0.9-1-2.1,1.2-2.8,2.2
	c-1.3,1.7-2.9,3.4-3,5.6c0,0.2,0.5,0.2,0.7,0.1c1.6-1.2,2.5-2.6,3.7-4.3C51.6,21.7,53.3,20.1,52.2,19.1"/>
<path class="st0" d="M19.7,2.8c0,2.5-1.5,4.8-2.5,7c-0.9,1.9-2.1,3.5-3,5.4c-0.8,1.7-1.9,3.2-2.3,5.1c-0.1,0.3-0.1,0.3-0.1,0.5
	c-1,2.3-1.4,4.9-2.1,7.3c-0.5,1.5-0.6,3-0.8,4.6C8.7,34.8,9,37,9.8,39c0.3,0.8,0.7,1.7,1,2.5c0.6,1.7,3.5,2,2.7,3.8
	c-0.2,0.6-0.9,1-1.5,1c-0.4-0.1-0.5,0.3-0.6,0c-0.5-1.4-1.9-2.4-1.9-3.9c-0.1-0.8-0.7-1.2-0.9-1.9c-0.6-1.2-1.1-2.1-1.1-3.4
	c0.1-2.4-0.3-4.1-0.5-6.6c-0.1-1,0.3-3.2-0.8-2.5c-2.1,1.2-3.6,4.4-5.7,3.8c-1.6-0.4,2-8.2,4.5-10.3l0.5-0.4C7,19.3,10,19,10.9,15.9
	c1-3.4,1.5-7.1,3.6-10C15.2,5,15.2,4,16.2,3.7C17.4,3.3,19.7,1.3,19.7,2.8 M8.4,21.3c-0.9-1-2.1,1.2-2.8,2.2c-1.3,1.7-2.9,3.4-3,5.6
	c0,0.2,0.5,0.2,0.7,0.1C4.9,28,5.8,26.6,7,24.9C7.8,23.9,9.4,22.3,8.4,21.3"/>
<path class="st0" d="M25.7,26.6c-1.3,0.4-1.6,2-2.8,2c-0.7,0.1-1.2-0.6-1.1-1.7v-3c0-2.9,1-4.9,1.7-7.6l-0.4-0.7
	c-1.7,0.4-3.6,1.6-4.4,3.1c-0.7,1.4-0.7,1.2-1.2,2.7c-0.2,0.7-1.1,2.2-1.4,2.7c-0.6,1.1-0.7,1.1-1.8,2.7c-0.3,0.4-0.7,1.3-1.5,1.5
	c-0.2,0.2-0.9,0.6-1.4,0.6l-0.1,1.2c0.1,0.3,1.1,0,2.7-1.7c0.9-0.8,0.7-0.6,1.3-0.9c3.5-1.9,1.9,2.9,3.4,3.7c2,1.1,4.4-0.9,6.2-2.5
	c0.2-0.1,2.2-3.5,2.9-4.3c0.5-1,0.2-1.3,0.2-1.5C28.3,22.4,26.1,26.5,25.7,26.6"/>
<path class="st0" d="M38.7,30.5c4.1-2.3,10.2-7.4,11-11.7c0.1-0.9-2.3,1.6-2.7,2.4c-0.7,1.6-0.7,1.1-1.7,2.4
	c-1.5,1.9-2.8,4.7-5.5,4.9c-1.4,0.1-1.3-2.4-0.9-3.9c0.7-3.2,1.6-6.2,1.8-9.4c0.1-0.8,0.4-1.8-0.4-2.2c-1.3-0.6-2.5,1.2-3.8,1.7
	c-1.2,0.5-2.9,2.8-3.2,1.2c-0.2-1.2,0.6-1.9,0.9-3.1c0.1-0.7,1.4-1.5,0.4-1.7c-0.5-0.1-0.9,0.6-1.4,0.8c-4.2,2-4.3,6-4.9,9.5
	c-0.4,2-1.2,3.5-1.2,5.6c0,0.9-0.7,1.5-0.5,2.5c0.1,0.9-1.6,2.7-0.8,2.6c1,0,1.9-0.7,2.3-1.5c2-3.6,2.8-7.6,5.5-10.8
	c0.7-0.8,0.9-2.5,2.3-2c0.6,0.3,0.1,1.2,0.1,1.9c0,0.2,0.1,0.3,0.1,0.7c-0.1,3.5-2,8.1,0.9,10.5C37.5,31.1,38,30.8,38.7,30.5"/>
<path class="st0" d="M112.6,27c0.4-0.3,0.5-1.4,0-1.4c-0.6,0-1,0.4-1.5,0.6c-0.9,0.2-2.3,0.3-2.7-0.6c-0.9-2.1,0.4-4.2,0.5-6.6
	c0.1-0.8,1.4-2,0.4-2.2c-1.5-0.1-2.3,1.5-3.5,2.5v0.5c-0.7,1.2-1.3,2.5-2.2,3.8c-1.2,1.7-2,5-4.4,4.7c-0.9-0.1-0.2-1.7,0-2.8
	c0.4-1.3,0.7-2.5,1.3-3.6c0.4-0.8,1.3-0.9,2.3-1.1c1.7-0.4,2.6-2.8,3-4.6c0.1-0.7,0-1.7-0.9-1.4c-2.2,0.9-3.9,2.5-5.2,4.6
	c-1,1.5-1.6,3.1-2.3,4.8c-0.4,1.1-0.9,2.1-1.4,3.2c-0.4,1-0.8,2.3-0.7,3.3c0.1,0.8,1.2,0.9,2,0.7c2.5-0.8,3.9-3.1,5.8-4.8
	c0.3-0.2,0.8-0.6,0.9-0.2c0.2,1.2,0.8,2.8,1.9,3.1C108.4,30.4,110.7,28.5,112.6,27"/>
<path class="st0" d="M28.2,8.3c1.1-1-0.3-1.7-0.8-2.3l-0.2-0.9c-1.8,0-3.7,1.4-4.4,2.9c-0.4,0.9,0.6,2.6,1.8,2.4
	C25.9,10.2,27.1,9.4,28.2,8.3"/>
<path class="st0" d="M76.3,46c-0.1-0.3-0.3-0.9-0.6-2c-0.3-1.1-0.8-2.7-1.4-4.7c0,0,0-0.1,0-0.1c0-0.1,0-0.1,0-0.1
	c0-0.1,0.1-0.2,0.3-0.3c0.2,0,0.3,0,0.4,0c0.3,0,0.4,0.1,0.6,0.2c0.1,0.1,0.2,0.3,0.3,0.6l1,3.3l0.1,0.1c0.1-0.2,0.2-0.5,0.2-0.8
	c0-0.3,0.1-0.6,0.1-0.9c0-0.3,0.1-0.5,0.2-0.8c0.1-0.2,0.3-0.4,0.7-0.5c0.1,0,0.1,0,0.2,0c0.1,0,0.2,0.1,0.2,0.1
	c0.1,0.1,0.1,0.1,0.2,0.2c0.1,0.1,0.1,0.1,0.1,0.2l0.9,3l0.2,0.3c0-0.2,0.1-0.5,0.2-1c0.1-0.5,0.1-0.9,0.2-1.4
	c0.1-0.5,0.1-1,0.2-1.4c0.1-0.4,0.1-0.7,0.1-0.9c0,0,0-0.1,0-0.1c0-0.1,0-0.1,0-0.1c0.1-0.1,0.2-0.2,0.4-0.2c0.2-0.1,0.3-0.1,0.4,0
	c0,0,0.1,0,0.2,0.1c0.1,0,0.1,0.1,0.2,0.2c0.1,0.1,0.1,0.1,0.2,0.2c0,0.1,0.1,0.1,0.1,0.2l-1,7.1c0,0.1-0.1,0.1-0.1,0.2
	c-0.1,0-0.1,0.1-0.2,0.1c-0.1,0-0.2,0-0.3,0.1c-0.1,0-0.2,0-0.2,0c-0.3-0.1-0.5-0.3-0.7-0.5c-0.2-0.2-0.4-0.5-0.5-0.8
	c-0.2-0.3-0.3-0.6-0.4-0.9c-0.1-0.3-0.3-0.6-0.4-0.8l-0.1,0c-0.1,0.1-0.1,0.3-0.2,0.5c-0.1,0.3-0.1,0.6-0.1,0.9
	c0,0.3-0.1,0.6-0.1,0.8c0,0.2,0,0.4,0,0.4c0,0.2-0.1,0.3-0.3,0.4c-0.2,0.1-0.4,0.1-0.5,0.1c-0.2,0-0.3-0.1-0.4-0.2
	C76.5,46.2,76.4,46.1,76.3,46"/>
<path class="st0" d="M84.7,46.2c-0.1-1.1-0.2-2.1-0.3-3c-0.1-0.8-0.1-1.5-0.2-2.1c-0.1-0.6-0.1-1-0.1-1.3c0-0.3-0.1-0.6-0.1-0.7
	c0-0.2,0-0.3-0.1-0.3c0-0.1,0-0.1,0-0.1v-0.1c0-0.1,0.1-0.2,0.2-0.3c0.1-0.1,0.2-0.1,0.3-0.1c0.2,0,0.4,0,0.6,0.1
	c0.2,0.1,0.3,0.2,0.4,0.4c0.1,0.6,0.2,1.1,0.2,1.7c0,0.6,0.1,1.1,0.1,1.7c0,0.6,0.1,1.1,0.1,1.7c0.1,0.6,0.1,1.1,0.3,1.7
	c0,0,0,0.1,0,0.1c0,0.1,0,0.1,0.1,0.2c0,0.1,0,0.2,0,0.2c0,0.1,0,0.1,0,0.1v0c0,0,0,0,0,0c0,0.1-0.1,0.3-0.2,0.4
	c-0.1,0.1-0.3,0.2-0.4,0.2c0,0-0.1,0-0.3-0.1s-0.2-0.1-0.3-0.1c0,0-0.1,0-0.1-0.1c-0.1,0-0.1-0.1-0.2-0.1c-0.1,0-0.1-0.1-0.1-0.2
	C84.7,46.2,84.7,46.2,84.7,46.2 M83.8,33.6c0-0.1,0.1-0.2,0.2-0.2c0.1-0.1,0.2-0.1,0.3-0.1c0.2,0,0.4,0,0.6,0.1
	c0.2,0.1,0.3,0.2,0.3,0.4c0,0.2,0,0.3-0.1,0.4c-0.1,0.1-0.2,0.1-0.4,0.1c-0.2,0-0.4-0.1-0.6-0.2C83.9,34,83.8,33.8,83.8,33.6"/>
<path class="st0" d="M92.7,46.2c-0.2-0.2-0.3-0.5-0.4-1c-0.1-0.4-0.2-0.8-0.3-1.3c-0.1-0.5-0.2-0.9-0.3-1.3c-0.1-0.4-0.2-0.8-0.3-1
	c-0.1-0.3-0.2-0.4-0.3-0.4c-0.1,0-0.2,0.1-0.4,0.5l-1.5,4.6c-0.1,0.2-0.1,0.3-0.2,0.3c-0.1,0.1-0.2,0.1-0.4,0.1c-0.1,0-0.2,0-0.3,0
	c-0.1,0-0.2-0.1-0.3-0.1c-0.1-0.1-0.2-0.1-0.2-0.2c-0.1-0.1-0.1-0.2-0.1-0.3c0-0.1,0.1-0.4,0.1-0.8c0-0.4,0-0.8,0.1-1.3
	c0-0.5,0-1,0-1.5c0-0.5,0-1,0-1.5c0-0.5,0-0.9,0-1.2c0-0.3,0-0.6,0-0.7c0-0.1,0-0.2,0-0.4c0-0.1,0-0.2,0.1-0.3
	c0-0.1,0.1-0.2,0.2-0.3c0.1-0.1,0.2-0.1,0.4-0.1c0.2,0,0.4,0.1,0.6,0.3c0.2,0.2,0.3,0.4,0.3,0.6c0,0.3,0,0.6,0,0.9
	c0,0.3,0,0.6,0,0.9v0.5c0,0.1,0,0.3,0.1,0.5c0-0.1,0.1-0.3,0.2-0.5c0.1-0.2,0.2-0.5,0.3-0.7c0.1-0.3,0.2-0.5,0.3-0.7
	c0.1-0.2,0.1-0.4,0.2-0.5c0.1-0.2,0.2-0.5,0.4-0.7c0.2-0.2,0.4-0.3,0.6-0.4c0.2,0,0.3,0,0.5,0.1c0.1,0.1,0.3,0.2,0.4,0.4
	s0.2,0.3,0.3,0.5c0.1,0.2,0.1,0.3,0.2,0.5l0.9,4.3l0.7,2c0,0,0,0,0,0.1v0.1c0,0.1,0,0.3-0.1,0.4c-0.1,0.1-0.2,0.2-0.3,0.2
	c-0.2,0-0.4-0.1-0.6-0.2C92.9,46.5,92.8,46.4,92.7,46.2"/>
<path class="st0" d="M99.2,40.6c0.1,0,0.1-0.1,0.1-0.2c0-0.1,0-0.2-0.1-0.2C99.2,40,99.1,40,99,40c-0.1,0-0.2,0-0.2,0.1
	c0,0-0.1,0.1-0.2,0.3c-0.1,0.1-0.2,0.3-0.3,0.4c-0.1,0.1-0.2,0.3-0.2,0.4c-0.1,0.1-0.1,0.1,0,0.1L99.2,40.6z M103,41.9
	c0,0.2,0,0.4-0.1,0.5c0,0.1-0.1,0.2-0.1,0.3c-0.1,0.1-0.2,0.2-0.3,0.3c-0.1,0.1-0.3,0.2-0.5,0.4c-0.2,0.2-0.5,0.4-0.8,0.7
	c-0.3,0.3-0.7,0.7-1.2,1.1c-0.2,0.2-0.4,0.4-0.6,0.5c-0.2,0.2-0.4,0.3-0.6,0.5c-0.2,0.1-0.4,0.3-0.7,0.4c-0.2,0.1-0.5,0.1-0.7,0.1
	c-0.5,0-0.9-0.2-1.1-0.5c-0.2-0.3-0.3-0.7-0.3-1.2c0-0.3,0-0.5,0-0.7c0-0.2,0.1-0.4,0.1-0.8c-0.1-0.1-0.2-0.2-0.3-0.3
	c-0.1-0.1-0.1-0.2-0.1-0.4c0-0.1,0-0.2,0.1-0.3c0.1,0,0.1-0.1,0.2-0.1c0.1,0,0.2,0,0.3-0.1c0.1,0,0.1-0.1,0.2-0.1
	c0-0.1,0.1-0.2,0.1-0.4c0.1-0.2,0.1-0.4,0.2-0.6c0.1-0.2,0.1-0.4,0.2-0.6c0.1-0.2,0.1-0.3,0.1-0.4c0.1-0.2,0.2-0.4,0.3-0.6
	c0.1-0.2,0.2-0.4,0.3-0.5c0.1-0.2,0.3-0.3,0.5-0.4c0.2-0.1,0.4-0.2,0.6-0.2c0.1,0,0.3,0.1,0.5,0.2c0.2,0.1,0.4,0.3,0.6,0.5
	c0.2,0.2,0.3,0.4,0.5,0.6c0.1,0.2,0.2,0.4,0.2,0.5c0,0.2,0,0.3-0.1,0.5c-0.1,0.1-0.2,0.3-0.3,0.4c-0.1,0.1-0.2,0.2-0.4,0.3
	c-0.1,0.1-0.3,0.2-0.4,0.3c0,0,0,0-0.1,0c0,0-0.1,0-0.1,0.1c0,0,0,0-0.1,0.1c0,0-0.1,0.1-0.1,0.1c0,0-0.1,0.1-0.1,0.1
	c0,0-0.1,0.1-0.1,0.1c0,0-0.1,0.1-0.2,0.2c-0.1,0.1-0.2,0.2-0.3,0.2c-0.1,0.1-0.2,0.2-0.3,0.2c-0.1,0.1-0.2,0.1-0.2,0.1l-0.1,0.1
	c0,0,0,0.1-0.1,0.3c0,0.2,0,0.3-0.1,0.5c0,0.2,0,0.4-0.1,0.6c0,0.2,0,0.4,0,0.5c0,0,0,0,0,0c0,0,0,0,0.1,0c0.1,0,0.2,0,0.3-0.1
	c0.1-0.1,0.2-0.1,0.3-0.2l2.8-2.6l0.7-1.1c0.1-0.1,0.2-0.2,0.3-0.3c0.2-0.1,0.3-0.2,0.5-0.2c0.2,0,0.3,0,0.5,0.2
	C103,41.3,103,41.6,103,41.9"/>
<path class="st0" d="M107,46.2c0-0.1,0-0.1,0-0.2c0,0,0-0.1,0.1-0.1c0.1-0.2,0.3-0.4,0.5-0.5c0.2-0.2,0.3-0.4,0.5-0.6
	c0.2-0.2,0.3-0.4,0.4-0.6c0.1-0.2,0.3-0.4,0.3-0.6v-0.1l-2.3,0.5h-0.3c-0.2,0-0.4,0-0.6,0c-0.2,0-0.5-0.1-0.7-0.1
	c-0.2-0.1-0.4-0.2-0.6-0.3c-0.2-0.1-0.2-0.3-0.2-0.6c0-0.3,0.1-0.6,0.4-0.9c0.3-0.3,0.6-0.6,0.9-0.9c0.4-0.3,0.7-0.6,1.1-0.9
	c0.4-0.3,0.7-0.5,0.9-0.6c0.2-0.1,0.5-0.3,0.9-0.3c0.3-0.1,0.6-0.1,0.9-0.1c0.2,0,0.4,0,0.6,0.1c0.2,0.1,0.3,0.3,0.3,0.5
	c0,0.1,0,0.2,0,0.3c0,0.1-0.1,0.2-0.2,0.2c-0.4,0-0.7,0-1,0.1c-0.3,0.1-0.6,0.2-0.9,0.4c-0.3,0.2-0.6,0.4-0.8,0.6
	c-0.3,0.2-0.5,0.5-0.7,0.7c-0.1,0.1-0.2,0.2-0.3,0.3c-0.1,0.1-0.2,0.2-0.2,0.3v0c0.3,0,0.6,0,0.9-0.1s0.6-0.1,0.9-0.2
	c0.3-0.1,0.6-0.1,0.9-0.2c0.3-0.1,0.6-0.1,0.9-0.1c0.1,0,0.2,0,0.4,0c0.1,0,0.3,0.1,0.4,0.1c0.1,0.1,0.2,0.1,0.3,0.2
	c0.1,0.1,0.1,0.2,0.1,0.4c0,0.2-0.1,0.4-0.2,0.6c-0.1,0.2-0.3,0.4-0.5,0.7s-0.5,0.6-0.8,1c-0.3,0.4-0.7,0.9-1.2,1.6
	c0,0-0.1,0.1-0.2,0.1c-0.1,0-0.2,0-0.2,0c-0.2,0-0.3-0.1-0.5-0.2S107,46.3,107,46.2"/>
</svg>
