<?xml version="1.0" encoding="utf-8"?>
<!-- Generator: Adobe Illustrator 21.1.0, SVG Export Plug-In . SVG Version: 6.00 Build 0)  -->
<svg version="1.1" id="Слой_1" xmlns="http://www.w3.org/2000/svg" xmlns:xlink="http://www.w3.org/1999/xlink" x="0px" y="0px"
	 viewBox="0 0 224.2 47.6" style="enable-background:new 0 0 224.2 47.6;" xml:space="preserve">
<style type="text/css">
	.st0{fill:#FFFFFF;}
</style>
<path class="st0" d="M3.8,43.9l-1-2.2l-1,2.2H3.8z M4,44.2H1.7l-0.3,0.6c-0.1,0.2-0.1,0.4-0.1,0.5c0,0.2,0.1,0.3,0.2,0.4
	c0.1,0,0.3,0.1,0.6,0.1V46H0v-0.2c0.2,0,0.4-0.1,0.6-0.3c0.1-0.2,0.3-0.5,0.5-1l2.3-5.1h0.1l2.3,5.3c0.2,0.5,0.4,0.8,0.5,0.9
	c0.1,0.1,0.3,0.2,0.5,0.2V46H3.7v-0.2h0.1c0.2,0,0.4,0,0.5-0.1c0.1,0,0.1-0.1,0.1-0.2c0-0.1,0-0.1,0-0.2c0,0-0.1-0.1-0.1-0.4L4,44.2
	z"/>
<path class="st0" d="M10.7,41.6v3.5c0,0.3,0,0.6,0.1,0.6c0.1,0.1,0.2,0.1,0.4,0.2V46H9.4v-0.6C9.2,45.7,9,45.9,8.8,46
	c-0.2,0.1-0.4,0.2-0.7,0.2c-0.2,0-0.5-0.1-0.7-0.2c-0.2-0.2-0.3-0.3-0.4-0.5c-0.1-0.2-0.1-0.6-0.1-1.1v-1.8c0-0.3,0-0.5-0.1-0.6
	c-0.1-0.1-0.2-0.1-0.4-0.2v-0.2h1.8v3c0,0.3,0,0.5,0,0.6c0,0.1,0.1,0.2,0.1,0.2c0.1,0,0.1,0.1,0.2,0.1c0.1,0,0.2,0,0.3-0.1
	c0.1-0.1,0.3-0.2,0.5-0.5v-2.4c0-0.3,0-0.5-0.1-0.6c-0.1-0.1-0.2-0.1-0.4-0.2v-0.2H10.7z"/>
<path class="st0" d="M14.3,41.5l0.1,1.5h-0.2c-0.2-0.4-0.4-0.8-0.6-0.9c-0.2-0.2-0.4-0.2-0.6-0.2c-0.1,0-0.2,0-0.3,0.1
	c-0.1,0.1-0.1,0.2-0.1,0.3c0,0.1,0,0.2,0.1,0.2c0.1,0.1,0.4,0.4,0.8,0.7c0.5,0.3,0.8,0.6,0.9,0.8c0.1,0.2,0.2,0.5,0.2,0.7
	c0,0.2-0.1,0.5-0.2,0.7c-0.1,0.2-0.3,0.4-0.5,0.5c-0.2,0.1-0.5,0.2-0.7,0.2c-0.2,0-0.5-0.1-0.8-0.2c-0.1,0-0.2-0.1-0.2-0.1
	c-0.1,0-0.2,0.1-0.3,0.2h-0.2l-0.1-1.6h0.2c0.1,0.4,0.3,0.7,0.6,0.9c0.2,0.2,0.5,0.3,0.7,0.3c0.2,0,0.3,0,0.4-0.1
	c0.1-0.1,0.1-0.2,0.1-0.3c0-0.2,0-0.3-0.1-0.4c-0.1-0.1-0.3-0.3-0.6-0.5c-0.5-0.3-0.8-0.6-0.9-0.8c-0.2-0.3-0.3-0.5-0.3-0.9
	c0-0.3,0.1-0.6,0.4-0.9c0.2-0.3,0.6-0.4,1-0.4c0.2,0,0.5,0.1,0.7,0.2c0.1,0,0.2,0.1,0.2,0.1c0.1,0,0.1,0,0.1,0c0,0,0.1-0.1,0.2-0.2
	H14.3z"/>
<path class="st0" d="M16.7,40v1.6h1v0.5h-1v2.7c0,0.3,0,0.4,0,0.5c0,0.1,0.1,0.1,0.1,0.2c0.1,0,0.1,0.1,0.2,0.1
	c0.2,0,0.4-0.2,0.6-0.5l0.1,0.1c-0.3,0.6-0.7,0.9-1.2,0.9c-0.3,0-0.5-0.1-0.7-0.2c-0.2-0.2-0.3-0.3-0.4-0.5c0-0.1,0-0.4,0-0.9v-2.4
	h-0.6v-0.2c0.4-0.3,0.7-0.6,1-0.9c0.3-0.3,0.5-0.7,0.7-1H16.7z"/>
<path class="st0" d="M19.9,41.6v1c0.3-0.5,0.5-0.8,0.8-0.9c0.2-0.2,0.4-0.2,0.6-0.2c0.2,0,0.3,0.1,0.4,0.2c0.1,0.1,0.2,0.3,0.2,0.5
	c0,0.2-0.1,0.4-0.2,0.5c-0.1,0.1-0.2,0.2-0.4,0.2c-0.2,0-0.3-0.1-0.4-0.2c-0.1-0.1-0.2-0.2-0.2-0.2c0,0-0.1,0-0.1,0
	c-0.1,0-0.2,0-0.3,0.1c-0.1,0.1-0.2,0.3-0.3,0.5c-0.1,0.3-0.2,0.6-0.2,1v1l0,0.3c0,0.2,0,0.3,0,0.3c0,0.1,0.1,0.1,0.2,0.2
	c0.1,0,0.2,0.1,0.4,0.1V46h-2.4v-0.2c0.2,0,0.3-0.1,0.4-0.2c0.1-0.1,0.1-0.3,0.1-0.7v-2.4c0-0.3,0-0.4,0-0.5c0-0.1-0.1-0.2-0.1-0.2
	c-0.1,0-0.2-0.1-0.3-0.1v-0.2H19.9z"/>
<path class="st0" d="M24.3,45v-1.5c-0.4,0.2-0.7,0.5-0.9,0.7c-0.1,0.2-0.2,0.3-0.2,0.5c0,0.1,0.1,0.3,0.2,0.4
	c0.1,0.1,0.2,0.1,0.3,0.1C23.9,45.3,24.1,45.2,24.3,45 M24.3,45.4c-0.5,0.5-1,0.7-1.5,0.7c-0.3,0-0.5-0.1-0.6-0.2
	C22,45.7,22,45.5,22,45.2c0-0.3,0.1-0.6,0.4-0.9c0.3-0.3,0.9-0.6,1.9-1.1v-0.4c0-0.3,0-0.5-0.1-0.6c0-0.1-0.1-0.2-0.2-0.2
	c-0.1-0.1-0.2-0.1-0.3-0.1c-0.2,0-0.4,0-0.5,0.1c-0.1,0.1-0.1,0.1-0.1,0.2c0,0.1,0,0.1,0.1,0.2c0.1,0.1,0.2,0.3,0.2,0.4
	c0,0.2-0.1,0.3-0.2,0.4c-0.1,0.1-0.3,0.2-0.4,0.2c-0.2,0-0.4-0.1-0.5-0.2c-0.1-0.1-0.2-0.3-0.2-0.4c0-0.2,0.1-0.4,0.3-0.6
	c0.2-0.2,0.4-0.4,0.8-0.5c0.3-0.1,0.7-0.2,1-0.2c0.4,0,0.8,0.1,1,0.3c0.2,0.2,0.4,0.4,0.5,0.6c0,0.1,0.1,0.4,0.1,0.9V45
	c0,0.2,0,0.3,0,0.4c0,0.1,0,0.1,0.1,0.1c0,0,0.1,0,0.1,0c0.1,0,0.2-0.1,0.3-0.2l0.1,0.1c-0.2,0.2-0.3,0.4-0.5,0.5
	c-0.2,0.1-0.4,0.2-0.6,0.2c-0.3,0-0.4-0.1-0.6-0.2C24.4,45.8,24.3,45.6,24.3,45.4"/>
<path class="st0" d="M28.1,39.6v5.5c0,0.3,0,0.5,0.1,0.6c0.1,0.1,0.2,0.1,0.4,0.1V46h-2.4v-0.2c0.2,0,0.3-0.1,0.4-0.2
	c0.1-0.1,0.1-0.3,0.1-0.6v-4.6c0-0.3,0-0.5-0.1-0.6c-0.1-0.1-0.2-0.1-0.4-0.2v-0.2H28.1z"/>
<path class="st0" d="M30.8,41.6v3.5c0,0.3,0,0.5,0.1,0.6c0.1,0.1,0.2,0.1,0.4,0.1V46H29v-0.2c0.2,0,0.3-0.1,0.4-0.2
	c0.1-0.1,0.1-0.3,0.1-0.6v-2.6c0-0.3,0-0.5-0.1-0.6c-0.1-0.1-0.2-0.1-0.4-0.2v-0.2H30.8z M30.2,39.5c0.2,0,0.4,0.1,0.5,0.2
	c0.1,0.1,0.2,0.3,0.2,0.5c0,0.2-0.1,0.4-0.2,0.5c-0.1,0.1-0.3,0.2-0.5,0.2c-0.2,0-0.4-0.1-0.5-0.2c-0.1-0.1-0.2-0.3-0.2-0.5
	c0-0.2,0.1-0.4,0.2-0.5C29.8,39.5,29.9,39.5,30.2,39.5"/>
<path class="st0" d="M33.9,45v-1.5c-0.4,0.2-0.7,0.5-0.9,0.7c-0.1,0.2-0.2,0.3-0.2,0.5c0,0.1,0.1,0.3,0.2,0.4
	c0.1,0.1,0.2,0.1,0.3,0.1C33.5,45.3,33.7,45.2,33.9,45 M33.9,45.4c-0.5,0.5-1,0.7-1.5,0.7c-0.3,0-0.5-0.1-0.6-0.2
	c-0.2-0.2-0.3-0.4-0.3-0.6c0-0.3,0.1-0.6,0.4-0.9c0.3-0.3,0.9-0.6,1.9-1.1v-0.4c0-0.3,0-0.5-0.1-0.6c0-0.1-0.1-0.2-0.2-0.2
	c-0.1-0.1-0.2-0.1-0.3-0.1c-0.2,0-0.4,0-0.5,0.1c-0.1,0.1-0.1,0.1-0.1,0.2c0,0.1,0,0.1,0.1,0.2c0.1,0.1,0.2,0.3,0.2,0.4
	c0,0.2-0.1,0.3-0.2,0.4c-0.1,0.1-0.3,0.2-0.5,0.2c-0.2,0-0.4-0.1-0.5-0.2c-0.1-0.1-0.2-0.3-0.2-0.4c0-0.2,0.1-0.4,0.3-0.6
	c0.2-0.2,0.4-0.4,0.8-0.5c0.3-0.1,0.7-0.2,1-0.2c0.4,0,0.7,0.1,1,0.3c0.2,0.2,0.4,0.4,0.5,0.6c0,0.1,0.1,0.4,0.1,0.9V45
	c0,0.2,0,0.3,0,0.4c0,0.1,0,0.1,0.1,0.1c0,0,0.1,0,0.1,0c0.1,0,0.2-0.1,0.3-0.2l0.1,0.1c-0.2,0.2-0.3,0.4-0.5,0.5
	c-0.2,0.1-0.4,0.2-0.6,0.2c-0.3,0-0.4-0.1-0.6-0.2C34,45.8,34,45.6,33.9,45.4"/>
<path class="st0" d="M37.8,41.6v0.6c0.2-0.2,0.4-0.4,0.7-0.5c0.2-0.1,0.4-0.2,0.7-0.2c0.3,0,0.5,0.1,0.7,0.2
	c0.2,0.2,0.3,0.4,0.4,0.6c0,0.2,0.1,0.5,0.1,1v1.7c0,0.3,0,0.6,0.1,0.6c0.1,0.1,0.2,0.1,0.4,0.2V46h-2.2v-0.2c0.2,0,0.3-0.1,0.4-0.2
	c0.1-0.1,0.1-0.3,0.1-0.6v-2c0-0.4,0-0.6,0-0.7c0-0.1-0.1-0.2-0.1-0.2c-0.1-0.1-0.1-0.1-0.2-0.1c-0.3,0-0.5,0.2-0.8,0.6v2.4
	c0,0.3,0,0.5,0.1,0.6c0.1,0.1,0.2,0.1,0.3,0.2V46h-2.2v-0.2c0.2,0,0.3-0.1,0.4-0.2c0.1-0.1,0.1-0.3,0.1-0.6v-2.5
	c0-0.3,0-0.5-0.1-0.6c-0.1-0.1-0.2-0.1-0.4-0.2v-0.2H37.8z"/>
<path class="st0" d="M49.4,39.5v2.3h-0.2c-0.2-0.6-0.5-1.1-1-1.4c-0.4-0.3-0.9-0.5-1.4-0.5c-0.5,0-0.9,0.1-1.2,0.4
	c-0.3,0.3-0.5,0.6-0.7,1.1c-0.1,0.5-0.2,1-0.2,1.5c0,0.6,0.1,1.2,0.2,1.6c0.1,0.5,0.4,0.8,0.7,1c0.3,0.2,0.7,0.3,1.2,0.3
	c0.2,0,0.3,0,0.5,0c0.2,0,0.3-0.1,0.5-0.1v-1.3c0-0.3,0-0.4-0.1-0.5c0-0.1-0.1-0.1-0.2-0.2c-0.1-0.1-0.2-0.1-0.4-0.1h-0.2v-0.2h3.1
	v0.2c-0.2,0-0.4,0-0.5,0.1c-0.1,0-0.2,0.1-0.2,0.2c0,0.1,0,0.2,0,0.4v1.3C49,45.8,48.6,46,48.1,46c-0.4,0.1-0.9,0.1-1.4,0.1
	c-0.6,0-1.1-0.1-1.5-0.2c-0.4-0.2-0.8-0.4-1.1-0.7c-0.3-0.3-0.5-0.6-0.7-0.9c-0.2-0.4-0.3-0.9-0.3-1.5c0-1,0.3-1.8,1-2.4
	c0.7-0.7,1.5-1,2.6-1c0.3,0,0.6,0,0.9,0.1c0.1,0,0.4,0.1,0.7,0.2c0.3,0.1,0.5,0.2,0.6,0.2c0.1,0,0.2,0,0.2-0.1
	c0.1-0.1,0.1-0.2,0.2-0.4H49.4z"/>
<path class="st0" d="M52.5,41.8c-0.2,0-0.3,0.1-0.4,0.2c-0.1,0.1-0.2,0.4-0.2,0.7c0,0.4-0.1,0.9-0.1,1.5c0,0.3,0,0.6,0.1,0.9
	c0,0.2,0.1,0.4,0.2,0.5c0.1,0.1,0.2,0.2,0.4,0.2c0.1,0,0.3,0,0.4-0.1c0.1-0.1,0.2-0.3,0.2-0.5c0.1-0.3,0.1-0.9,0.1-1.8
	c0-0.5,0-0.9-0.1-1.1C53,42.2,53,42,52.8,41.9C52.8,41.9,52.7,41.8,52.5,41.8 M52.5,41.5c0.4,0,0.7,0.1,1.1,0.3
	c0.3,0.2,0.6,0.5,0.8,0.8c0.2,0.4,0.3,0.8,0.3,1.2c0,0.6-0.2,1.2-0.5,1.6c-0.4,0.5-0.9,0.8-1.6,0.8c-0.7,0-1.2-0.2-1.5-0.7
	c-0.4-0.5-0.5-1-0.5-1.6c0-0.6,0.2-1.2,0.5-1.7C51.4,41.7,51.9,41.5,52.5,41.5"/>
<path class="st0" d="M56.7,46.2l-1.5-3.4c-0.2-0.4-0.3-0.7-0.4-0.8c-0.1-0.1-0.2-0.1-0.3-0.2v-0.2h2.3v0.2c-0.1,0-0.2,0-0.3,0.1
	c-0.1,0.1-0.1,0.1-0.1,0.2c0,0.1,0.1,0.3,0.2,0.7l0.7,1.7l0.6-1.4c0.2-0.4,0.3-0.7,0.3-0.9c0-0.1,0-0.2-0.1-0.2
	c-0.1-0.1-0.2-0.1-0.4-0.1v-0.2h1.4v0.2c-0.1,0-0.3,0.1-0.3,0.2c-0.1,0.1-0.2,0.3-0.4,0.8l-1.5,3.5H56.7z"/>
<path class="st0" d="M61.4,43.4c0-0.5,0-0.9-0.1-1c-0.1-0.2-0.1-0.3-0.3-0.4c-0.1-0.1-0.2-0.1-0.3-0.1c-0.2,0-0.3,0.1-0.4,0.2
	c-0.2,0.3-0.3,0.7-0.3,1.2v0.2H61.4z M62.6,43.7h-2.4c0,0.6,0.2,1,0.5,1.4c0.2,0.3,0.5,0.4,0.8,0.4c0.2,0,0.4-0.1,0.5-0.2
	c0.2-0.1,0.3-0.3,0.5-0.6l0.2,0.1c-0.2,0.5-0.5,0.8-0.8,1c-0.3,0.2-0.6,0.3-1,0.3c-0.7,0-1.2-0.3-1.5-0.8c-0.3-0.4-0.4-0.9-0.4-1.5
	c0-0.7,0.2-1.3,0.6-1.8c0.4-0.4,0.9-0.7,1.4-0.7c0.4,0,0.8,0.2,1.2,0.6C62.4,42.4,62.6,42.9,62.6,43.7"/>
<path class="st0" d="M64.7,41.6v1c0.3-0.5,0.5-0.8,0.8-0.9c0.2-0.2,0.4-0.2,0.6-0.2c0.2,0,0.3,0.1,0.4,0.2c0.1,0.1,0.2,0.3,0.2,0.5
	c0,0.2-0.1,0.4-0.2,0.5c-0.1,0.1-0.2,0.2-0.4,0.2c-0.2,0-0.3-0.1-0.4-0.2c-0.1-0.1-0.2-0.2-0.2-0.2c0,0-0.1,0-0.1,0
	c-0.1,0-0.2,0-0.3,0.1c-0.1,0.1-0.2,0.3-0.3,0.5c-0.1,0.3-0.2,0.6-0.2,1v1l0,0.3c0,0.2,0,0.3,0,0.3c0,0.1,0.1,0.1,0.2,0.2
	c0.1,0,0.2,0.1,0.4,0.1V46h-2.4v-0.2c0.2,0,0.3-0.1,0.4-0.2c0.1-0.1,0.1-0.3,0.1-0.7v-2.4c0-0.3,0-0.4,0-0.5c0-0.1-0.1-0.2-0.1-0.2
	c-0.1,0-0.2-0.1-0.3-0.1v-0.2H64.7z"/>
<path class="st0" d="M68.8,41.6v0.6c0.2-0.2,0.4-0.4,0.7-0.5c0.2-0.1,0.4-0.2,0.7-0.2c0.3,0,0.5,0.1,0.7,0.2
	c0.2,0.2,0.3,0.4,0.4,0.6c0,0.2,0.1,0.5,0.1,1v1.7c0,0.3,0,0.6,0.1,0.6c0.1,0.1,0.2,0.1,0.4,0.2V46h-2.2v-0.2c0.2,0,0.3-0.1,0.4-0.2
	c0.1-0.1,0.1-0.3,0.1-0.6v-2c0-0.4,0-0.6,0-0.7c0-0.1-0.1-0.2-0.1-0.2c-0.1-0.1-0.1-0.1-0.2-0.1c-0.3,0-0.5,0.2-0.8,0.6v2.4
	c0,0.3,0,0.5,0.1,0.6c0.1,0.1,0.2,0.1,0.3,0.2V46H67v-0.2c0.2,0,0.3-0.1,0.4-0.2c0.1-0.1,0.1-0.3,0.1-0.6v-2.5c0-0.3,0-0.5-0.1-0.6
	c-0.1-0.1-0.2-0.1-0.4-0.2v-0.2H68.8z"/>
<path class="st0" d="M73.9,41.6v0.6c0.2-0.3,0.5-0.4,0.7-0.6c0.2-0.1,0.4-0.2,0.7-0.2c0.3,0,0.5,0.1,0.7,0.2
	c0.2,0.1,0.3,0.3,0.4,0.6c0.3-0.3,0.5-0.5,0.7-0.6c0.2-0.1,0.5-0.2,0.7-0.2c0.3,0,0.5,0.1,0.7,0.2c0.2,0.1,0.3,0.3,0.4,0.5
	c0.1,0.2,0.1,0.6,0.1,1v1.8c0,0.3,0,0.6,0.1,0.6c0.1,0.1,0.2,0.1,0.4,0.2V46h-2.3v-0.2c0.2,0,0.3-0.1,0.4-0.2
	c0.1-0.1,0.1-0.3,0.1-0.6v-1.9c0-0.4,0-0.6,0-0.8c0-0.1-0.1-0.2-0.2-0.2c-0.1-0.1-0.1-0.1-0.2-0.1c-0.1,0-0.3,0-0.4,0.2
	c-0.1,0.1-0.3,0.2-0.4,0.4v2.4c0,0.3,0,0.5,0.1,0.6c0.1,0.1,0.2,0.2,0.4,0.2V46h-2.3v-0.2c0.1,0,0.2,0,0.3-0.1
	c0.1-0.1,0.1-0.1,0.1-0.2c0-0.1,0-0.2,0-0.5v-1.9c0-0.4,0-0.7,0-0.8c0-0.1-0.1-0.2-0.2-0.2c-0.1-0.1-0.2-0.1-0.2-0.1
	c-0.1,0-0.2,0-0.3,0.1c-0.1,0.1-0.3,0.3-0.5,0.5v2.4c0,0.3,0,0.5,0.1,0.6c0.1,0.1,0.2,0.2,0.4,0.2V46h-2.3v-0.2
	c0.2,0,0.3-0.1,0.4-0.2c0.1-0.1,0.1-0.3,0.1-0.6v-2.5c0-0.3,0-0.5-0.1-0.6c-0.1-0.1-0.2-0.1-0.4-0.2v-0.2H73.9z"/>
<path class="st0" d="M82.3,43.4c0-0.5,0-0.9-0.1-1c-0.1-0.2-0.1-0.3-0.3-0.4c-0.1-0.1-0.2-0.1-0.3-0.1c-0.2,0-0.3,0.1-0.4,0.2
	c-0.2,0.3-0.3,0.7-0.3,1.2v0.2H82.3z M83.5,43.7h-2.4c0,0.6,0.2,1,0.5,1.4c0.2,0.3,0.5,0.4,0.8,0.4c0.2,0,0.4-0.1,0.5-0.2
	c0.2-0.1,0.3-0.3,0.5-0.6l0.2,0.1c-0.2,0.5-0.5,0.8-0.8,1c-0.3,0.2-0.6,0.3-1,0.3c-0.7,0-1.2-0.3-1.5-0.8c-0.3-0.4-0.4-0.9-0.4-1.5
	c0-0.7,0.2-1.3,0.6-1.8c0.4-0.4,0.9-0.7,1.4-0.7c0.4,0,0.8,0.2,1.2,0.6C83.3,42.4,83.5,42.9,83.5,43.7"/>
<path class="st0" d="M85.5,41.6v0.6c0.2-0.2,0.4-0.4,0.7-0.5c0.2-0.1,0.4-0.2,0.7-0.2c0.3,0,0.5,0.1,0.7,0.2
	c0.2,0.2,0.3,0.4,0.4,0.6c0,0.2,0.1,0.5,0.1,1v1.7c0,0.3,0,0.6,0.1,0.6c0.1,0.1,0.2,0.1,0.4,0.2V46h-2.2v-0.2c0.2,0,0.3-0.1,0.4-0.2
	c0.1-0.1,0.1-0.3,0.1-0.6v-2c0-0.4,0-0.6,0-0.7c0-0.1-0.1-0.2-0.1-0.2c-0.1-0.1-0.1-0.1-0.2-0.1c-0.3,0-0.5,0.2-0.8,0.6v2.4
	c0,0.3,0,0.5,0.1,0.6c0.1,0.1,0.2,0.1,0.3,0.2V46h-2.2v-0.2c0.2,0,0.3-0.1,0.4-0.2c0.1-0.1,0.1-0.3,0.1-0.6v-2.5
	c0-0.3,0-0.5-0.1-0.6c-0.1-0.1-0.2-0.1-0.4-0.2v-0.2H85.5z"/>
<path class="st0" d="M90.3,40v1.6h1.1v0.5h-1.1v2.7c0,0.3,0,0.4,0,0.5c0,0.1,0.1,0.1,0.1,0.2c0.1,0,0.1,0.1,0.2,0.1
	c0.2,0,0.4-0.2,0.6-0.5l0.1,0.1c-0.3,0.6-0.7,0.9-1.2,0.9c-0.3,0-0.5-0.1-0.7-0.2c-0.2-0.2-0.3-0.3-0.4-0.5c0-0.1,0-0.4,0-0.9v-2.4
	h-0.6v-0.2c0.4-0.3,0.7-0.6,1-0.9c0.3-0.3,0.5-0.7,0.7-1H90.3z"/>
<path class="st0" d="M38,28.2c0,0.1-0.1,0.1-0.1,0.1"/>
<path class="st0" d="M39.1,19.5c0.1,0,0.2-0.1,0.2-0.2c0-0.1-0.1-0.2-0.2-0.2c-0.1,0-0.2,0.1-0.2,0.2C38.9,19.4,39,19.5,39.1,19.5"
	/>
<path class="st0" d="M49.6,14.4h-2.5V10h2.5V14.4z M49.6,16.6c0,0.5-0.2,0.9-0.5,1.1l-2,1.2v-4.2h2.5V16.6z M46.9,14.4h-2.3V10h2.3
	V14.4z M46.9,19l-0.9,0.6h0c-0.1,0.1-0.1,0.1-0.2,0.1c-0.1,0-0.2,0-0.2-0.1L44.5,19v-4.3h2.3V19z M43.6,12.8h0.7v1.6h-0.7V12.8z
	 M44.3,18.9l-2-1.2c-0.3-0.2-0.5-0.6-0.5-1.1v-1.9h2.5V18.9z M42.6,11.7h-0.9V10h0.9V11.7z M42.8,10.6l0.1-0.1l-0.1-0.1l0.1,0
	l0.1-0.1l0.1,0.1l0.1,0l-0.1,0.1l0.1,0.1l-0.1,0v0.1l-0.1-0.1L43,10.8v-0.1L42.8,10.6z M43.5,12.4C43.5,12.4,43.4,12.4,43.5,12.4
	c-0.2-0.1-0.2,0.1-0.3,0.1c0,0-0.1,0-0.1-0.1c0,0,0.1-0.1,0.1-0.1c-0.5,0-0.6,0.2-0.6,0.2c-0.1,0,0.1-0.3,0.2-0.3
	c-0.1,0-0.2-0.2-0.3-0.2c0.1-0.1,0.1,0,0.2,0c0-0.1,0-0.1,0.2-0.1c0.2,0,0.2,0.2,0.2,0.2s0-0.2,0.2-0.2c0.2,0,0.5,0.6,0.3,0.6
	C43.4,12.5,43.5,12.4,43.5,12.4 M42.9,13.7l0.1,0l0.1-0.1l0.1,0.1l0.1,0l-0.1,0.1l0.1,0.1l-0.1,0v0.1L43.1,14L43,14.1V14l-0.1,0
	l0.1-0.1L42.9,13.7z M41.9,12.1l0.1,0l0.1-0.1l0.1,0.1l0.1,0l-0.1,0.1l0.1,0.1l-0.1,0v0.1l-0.1-0.1L42,12.5v-0.1l-0.1,0l0.1-0.1
	L41.9,12.1z M41.8,12.8h0.9v1.6h-0.9V12.8z M43.8,12.3l0.1-0.1l-0.1-0.1l0.1,0l0.1-0.1l0.1,0.1l0.1,0l-0.1,0.1l0.1,0.1l-0.1,0v0.1
	L44,12.4l-0.1,0.1v-0.1L43.8,12.3z M44.3,11.7h-0.7V10h0.7V11.7z M49.9,9.7L49.9,9.7l-8.3,0v0l0,6.7c0,0.6,0.3,1.2,0.7,1.4l3.2,1.9
	c0.1,0.1,0.2,0.1,0.3,0.1c0.1,0,0.2,0,0.3-0.1l3.3-1.9c0.4-0.2,0.7-0.7,0.7-1.4L49.9,9.7L49.9,9.7z"/>
<path class="st0" d="M44.2,16.2c0,0-0.3,0.1-0.2,0.1c0-0.1,0.2-0.3,0.3-0.3c0-0.1-0.2,0-0.3,0.1c0.5-0.7,0.2-0.4-0.1-0.4
	c0.4-0.5,0.3-0.5,0-0.3c0.2-0.2,0.3-0.4,0.3-0.5c-0.2,0.3-0.4,0.3-0.4,0.5c0,0.2-0.1,0.5-0.2,0.6c-0.1,0.1,0-0.5-0.4-0.5
	c-0.1,0-0.3,0-0.4,0.1c0.1,0,0.2,0.2,0.2,0.2c0,0.1,0.1,0.3,0,0.3c-0.1,0-0.2-0.2-0.2-0.3c0-0.1,0-0.1,0-0.2c0-0.3-0.4-0.6-0.6-0.6
	c0,0.2,0.2,0.2,0.2,0.5c-0.1,0-0.3-0.2-0.3-0.1c0,0.1,0.2,0.1,0.2,0.2c0,0.1-0.2,0-0.2,0.1c0,0.1,0.1,0.1,0.1,0.2
	c-0.1,0-0.1,0-0.2,0c0,0,0,0.1,0.1,0.1c0,0,0,0.1,0,0.2c0,0.5,0.3,0.8,0.6,0.8c0.2,0,0.1-0.1,0.2-0.2c0,0.1,0.1,0,0.1,0.1
	c0,0.2-0.2,0.1-0.2,0.2c0,0.2,0.3,0,0.3,0.2c0,0.3,0,0.2,0,0.3c0,0.1,0.3-0.1,0.3-0.1c0.1,0,0.1,0.2,0.2,0.2c0.1,0,0.1-0.2,0.2-0.2
	c0,0,0.3,0.2,0.3,0.1c0-0.2-0.1-0.1-0.1-0.3c0-0.2,0.3-0.1,0.3-0.2c0-0.1-0.1,0-0.1-0.1c0,0-0.3-0.4,0.1-0.2
	C44.1,17,44.2,16.3,44.2,16.2"/>
<path class="st0" d="M53.1,18c0.2,0,0.3-0.1,0.3-0.2s-0.1-0.2-0.3-0.2c-0.2,0-0.3,0.1-0.3,0.2S52.9,18,53.1,18"/>
<path class="st0" d="M51.9,18.6c0.2,0,0.3-0.1,0.3-0.2c0-0.1-0.1-0.2-0.3-0.2c-0.2,0-0.3,0.1-0.3,0.2C51.7,18.5,51.8,18.6,51.9,18.6
	"/>
<path class="st0" d="M38.8,20.2c0.2,0,0.3-0.1,0.3-0.2c0-0.1-0.1-0.2-0.3-0.2c-0.2,0-0.3,0.1-0.3,0.2C38.5,20,38.6,20.2,38.8,20.2"
	/>
<path class="st0" d="M39.6,20.2c0.2,0,0.3-0.1,0.3-0.2c0-0.1-0.1-0.2-0.3-0.2c-0.2,0-0.3,0.1-0.3,0.2C39.3,20.1,39.5,20.2,39.6,20.2
	"/>
<path class="st0" d="M63.4,8.7c0.4,0.5,0.5,1.3,0.2,1.8c-0.2,0-0.1-0.2-0.2-0.3c-0.3-0.5-0.5-1.2-0.3-1.8
	C63.3,8.4,63.3,8.6,63.4,8.7"/>
<path class="st0" d="M28.5,9.4c-0.1,0.4-0.1,0.8,0,1.2c-0.1,0.1-0.1-0.1-0.1-0.1c-0.6-0.4-0.3-1.2-0.5-1.8c0,0,0.1-0.1,0.1,0
	C28.3,8.8,28.5,9.1,28.5,9.4"/>
<path class="st0" d="M64.6,9.4c0.1,0.2-0.1,0.3-0.2,0.4c-0.1,0-0.3,0-0.4-0.2c0-0.2,0-0.3,0.2-0.4C64.4,9.3,64.5,9.3,64.6,9.4"/>
<path class="st0" d="M27.6,10.1c0,0.1-0.1,0.3-0.2,0.3c-0.1,0-0.2,0-0.3-0.1c-0.1-0.1-0.1-0.2-0.1-0.3c0.1-0.1,0.2-0.1,0.3-0.1
	C27.5,9.9,27.6,10,27.6,10.1"/>
<path class="st0" d="M65.2,10.3c0,0.1,0,0.1,0,0.2c-0.1,0.1-0.2,0.2-0.4,0.1c-0.1-0.1-0.1-0.2-0.2-0.3c0-0.1,0.1-0.2,0.2-0.3
	C65,10.2,65.1,10.2,65.2,10.3"/>
<path class="st0" d="M64.3,10.3c0.1,0.1,0,0.2,0,0.3c-0.1,0.1-0.2,0.2-0.3,0.1c-0.1-0.1-0.2-0.1-0.2-0.2c0-0.1,0.1-0.3,0.2-0.3
	C64.2,10.2,64.3,10.3,64.3,10.3"/>
<path class="st0" d="M63.3,10.6c0,0.2,0,0.4-0.2,0.4c-0.2,0.1-0.3-0.1-0.3-0.2c0-0.1,0.1-0.3,0.2-0.4C63.1,10.4,63.2,10.5,63.3,10.6
	"/>
<path class="st0" d="M29.2,10.6c0,0.1-0.1,0.2-0.2,0.3c-0.1,0-0.2-0.1-0.3-0.2c-0.1-0.1,0-0.2,0.1-0.3
	C28.9,10.4,29.2,10.5,29.2,10.6"/>
<path class="st0" d="M28.3,10.7c0,0.1-0.1,0.2-0.2,0.3c-0.1,0-0.2,0-0.3-0.1c-0.1-0.1,0-0.3,0.1-0.3C28.2,10.4,28.3,10.6,28.3,10.7"
	/>
<path class="st0" d="M59.8,10.7c0.1,0.3,0.3,0.7,0.3,1.1c-0.1,0.3,0,0.6-0.2,0.8c-0.2-0.1-0.2-0.3-0.3-0.5c-0.3-0.5,0-1.1,0.1-1.6
	C59.7,10.5,59.7,10.7,59.8,10.7"/>
<path class="st0" d="M27.7,10.9c0,0.2-0.1,0.3-0.2,0.4c-0.2,0-0.3-0.1-0.4-0.2c0-0.1,0.1-0.3,0.2-0.4C27.4,10.7,27.6,10.8,27.7,10.9
	"/>
<path class="st0" d="M62.1,11.3c0.2,0.4,0.2,0.9,0.1,1.4L62,12.8c-0.2-0.4-0.5-0.8-0.6-1.2c0-0.3,0.1-0.6,0.2-0.8
	c0.1-0.1,0.2,0,0.2,0.1C61.8,11.1,61.9,11.2,62.1,11.3"/>
<path class="st0" d="M63.9,11.1c0,0.1-0.1,0.3-0.2,0.4c-0.1,0-0.3,0-0.3-0.2c0-0.1,0-0.3,0.2-0.4C63.7,10.8,63.8,10.9,63.9,11.1"/>
<path class="st0" d="M28.4,11.5c0,0.1-0.1,0.2-0.2,0.3c-0.1,0.1-0.2-0.1-0.3-0.1c0-0.1-0.1-0.2,0-0.3c0-0.1,0.1-0.1,0.2-0.1
	C28.2,11.3,28.3,11.4,28.4,11.5"/>
<path class="st0" d="M29,11.4c0.1,0.1-0.1,0.2-0.2,0.3c-0.2,0.1-0.3-0.1-0.3-0.2c0-0.1,0.1-0.2,0.2-0.3C28.8,11.2,28.9,11.3,29,11.4
	"/>
<path class="st0" d="M64.3,11.4c0,0.2-0.3,0.4-0.3,0.6c-0.2,0.4-0.5,0.7-0.9,0.8C63,12.9,62.9,13,62.7,13c0-0.3,0.2-0.6,0.4-0.8
	C63.4,11.8,63.9,11.5,64.3,11.4"/>
<path class="st0" d="M28.1,12c0.2,0.2,0.3,0.5,0.6,0.7c0,0.1,0,0.1-0.1,0.1c-0.7,0-1.2-0.8-1.5-1.3c0-0.2,0.2,0,0.3,0
	C27.6,11.7,27.9,11.8,28.1,12"/>
<path class="st0" d="M64.5,12.2c0,0.6-0.3,1.3-0.9,1.6c-0.2,0.1-0.3,0.2-0.5,0.1c0.3-0.6,0.8-1.1,1.3-1.7H64.5z"/>
<path class="st0" d="M61.7,12.6c0,0.2-0.1,0.4-0.2,0.4c-0.2,0-0.3-0.1-0.3-0.2c0-0.1,0.1-0.3,0.2-0.3c0,0,0.1,0,0.2,0
	C61.6,12.5,61.6,12.6,61.7,12.6"/>
<path class="st0" d="M27.3,12.8c0.3,0.2,0.5,0.5,0.8,0.7c-0.2,0.1-0.4,0-0.6,0c-0.5-0.2-0.8-0.6-1.3-0.7c0-0.2,0.2-0.1,0.3-0.1
	C26.7,12.6,27,12.7,27.3,12.8"/>
<path class="st0" d="M42.9,8.4C42,8.1,41.5,9,40.7,8.9c-0.1,0.1-0.1,0.2-0.1,0.2c0,0-0.1,0-0.2,0c0-0.4-0.2-0.7-0.2-1
	c-0.1-0.1,0-0.4-0.1-0.5c-0.5-1.3,1.1-0.3,1.5-1.1c0.3-0.6-0.5-0.7-0.8-1.2V5.2c-0.2-0.2-0.5-0.3-0.6-0.6c0.1-0.4,0.1-0.8,0-1.1
	c0-0.1-0.1-0.2-0.2-0.2c-0.3,0.4-0.5,0.7-0.7,1.1c-0.3-0.2-0.5-0.5-0.9-0.6c-0.2,0-0.4-0.2-0.7-0.2c0,0.1,0,0.2,0,0.2
	c0,0.6,0.3,1,0.7,1.4l0,0.2c-0.3,0.6-0.2,1.3-0.3,1.9c-0.7,1.7-1.7,3.3-3.2,4.4c-0.8,0.9-1.8,1.8-2,3.1c0,0.2,0,0.5-0.1,0.6
	c-0.5-0.2-1-0.4-1.4-0.7c-0.7-0.5-1.6-0.4-2.1-1.3c-0.2-0.3,0-0.7,0.2-0.9c0.5-0.5,0.4-1.3,0.2-1.9c-0.1,0-0.1,0.1-0.1,0.1
	c0,0.9-0.7,1.5-0.5,2.4c0.1,0.3,0.2,0.5,0.3,0.7c-0.1,0-0.2,0-0.3-0.1c-0.3,0-0.6-0.2-1-0.1c-0.7,0.3-1.6-0.1-2.1,0.5
	c-0.1,0-0.2,0-0.2,0.2c0.3,0,0.6,0.1,0.9,0.1c0.5,0.1,0.8-0.3,1.2-0.5h0.1c0.1-0.1,0.4-0.1,0.6-0.1c0.9,0.1,1.6,0.5,2.4,1v0.1
	c-0.3,0.1-0.6,0.2-0.9,0.4c-0.3,0.2-0.7,0.6-0.8,1c-0.2,0.4,0.1,0.7,0.2,1c0,0.1,0,0.3,0.2,0.4c0.5-0.5,0-1.1,0.1-1.7
	c0.1-0.4,0.5-0.6,0.9-0.8c0.8-0.4,1.4,0.3,2.1,0.7c0,0.7,0.1,1.3-0.1,2C32.7,18,32.4,18,32.2,18c-1.1,0.1-2.1,0.7-3.1,1.1
	c-0.5,0.2-1,0.1-1.5,0.3c0.4,0.1,0.7,0,1.1,0c1.4-0.2,2.5-1.3,4.1-1.1l0,0c-0.2,0.4-0.4,0.7-0.7,1c0-0.2-0.1-0.3-0.2-0.4
	c-0.1-0.1-0.2,0-0.3,0.1c0,0.1,0,0.2,0,0.2c0.1,0.1,0.2,0.2,0.3,0.2c0,0.1-0.2,0.2-0.3,0.3c-0.4,0.7-1.2,0.4-1.7,0.9
	c-0.1,0.1-0.3,0.2-0.2,0.3c0.6,0.1,1.1-0.1,1.5-0.4c0.5-0.6,1.1-1.2,1.6-1.7c0.1,0.5,0,1-0.3,1.3c-0.1-0.1-0.2-0.2-0.4-0.2
	c-0.1,0-0.2,0.2-0.3,0.3c0.1,0.1,0.1,0.2,0.2,0.3c-0.5,0.4-1.1,0.4-1.7,0.5c-1.1,0.1-2.1,0.2-3.2,0.2c-0.5,0-1.1,0.1-1.6,0
	c-0.6,0.1-1.2-0.1-1.6,0.2c-0.1,0.1,0,0.1,0,0.2c0.7,0.4,1.6,0.1,2.3,0.2h5.7c0.4,0,0.8,0,1.2-0.2c0.7-0.4,1.2-1.2,1.5-1.9
	c0.1-0.3,0.2-0.6,0.3-0.9c0.1-0.5,0.6-0.9,1.1-0.9c0.1,0.8-0.1,1.5-0.2,2.2c-0.1,0.5-0.4,0.9-0.2,1.4c0,0.2,0.3,0.2,0.5,0.3
	c1.8,0,3.5-0.1,5.4,0c0.3,0.1,0.6,0.2,1,0.1c0,0,0.1-0.1,0.1-0.1c0-0.2-0.2-0.4-0.3-0.4c0-0.1-0.2-0.1-0.2-0.1
	c-0.9-0.5-2.1-0.2-3.1-0.2c-0.6,0.1-1.1,0.2-1.6-0.2c-0.2-0.3-0.1-1.1-0.1-1.1c0-0.3,0.8-2.6,0.9-2.8c0-0.2,0.1-0.4,0.1-0.7
	c0.1-0.3,0.1-0.7,0.1-1c0.1-0.5,0.3-0.9,0.5-1.4c0.1-0.2,0.2-0.5,0.2-0.7c0.1-0.3,0.1-0.5,0.3-0.8c0.5,0.3,0.9,0.3,1.2,0.8l0.2,1.2
	c0,0.1,0.1,0.2,0.2,0.1c0.4-0.2,0.3-0.8,0.3-1.2c0.1-0.5-0.2-0.7-0.4-1.1c-0.1-0.1-0.3-0.4-0.3-0.4c-0.1-0.3-0.8-0.5-0.6-0.9
	c0.1-0.3,0.2-0.6,0.5-0.8c0,0,0.1,0.1,0.1,0.1l0.2-0.1l0-1.2c0.5,0,1.2,0.1,1.7,0.1c0.1,0,0.2,0.1,0.4,0.2L43,9.2L44.1,9
	C43.6,9,43.3,8.4,42.9,8.4"/>
<path class="st0" d="M44.1,9c0,0,0.1,0,0.1,0L44.1,9z"/>
<path class="st0" d="M31.5,13c0,0.2-0.1,0.3-0.2,0.3c-0.1,0-0.2-0.1-0.3-0.2c-0.1-0.2,0.1-0.3,0.2-0.3C31.3,12.9,31.4,12.9,31.5,13"
	/>
<path class="st0" d="M30.5,13c0.1,0.1,0.1,0.2,0.1,0.3c-0.1,0.1-0.3,0.2-0.3,0c-0.1-0.1-0.2-0.2-0.1-0.3C30.2,13,30.4,12.9,30.5,13"
	/>
<path class="st0" d="M50.8,13.2C50.8,13.2,50.8,13.2,50.8,13.2"/>
<path class="st0" d="M61.9,13.5c0.1,0.2-0.1,0.3-0.2,0.3c-0.1,0-0.3-0.1-0.3-0.3c0-0.1,0.1-0.2,0.2-0.2
	C61.7,13.3,61.8,13.4,61.9,13.5"/>
<path class="st0" d="M62.6,13.4c0,0.1,0.1,0.2,0,0.3c-0.1,0-0.1,0.1-0.1,0.1c-0.2,0-0.3,0-0.3-0.2c0-0.2,0.1-0.2,0.2-0.3
	C62.5,13.3,62.6,13.4,62.6,13.4"/>
<path class="st0" d="M26.9,13.6c-0.1,0.2-0.2,0.3-0.4,0.2c0,0-0.1-0.1-0.1-0.2c0-0.1,0-0.2,0.2-0.2C26.7,13.4,26.8,13.4,26.9,13.6"
	/>
<path class="st0" d="M31.8,13.9c0,0.1-0.1,0.2-0.2,0.3c-0.1,0-0.2-0.1-0.3-0.2c0-0.1,0.1-0.3,0.2-0.3C31.5,13.6,31.7,13.7,31.8,13.9
	"/>
<path class="st0" d="M30.9,13.7c0,0,0.1,0.2,0,0.2c-0.1,0.1-0.2,0.2-0.4,0.1c-0.1-0.1-0.2-0.1-0.2-0.3c0.1-0.1,0.1-0.1,0.2-0.2
	C30.8,13.6,30.8,13.7,30.9,13.7"/>
<path class="st0" d="M64.9,13.9c0,0.1-0.1,0.2-0.2,0.3c-0.1,0-0.2,0-0.3-0.1c-0.1,0-0.1-0.1-0.1-0.2c0.1-0.1,0.2-0.2,0.3-0.2
	C64.7,13.7,64.8,13.8,64.9,13.9"/>
<path class="st0" d="M65.8,14.1c0,0.1-0.1,0.2-0.3,0.3c-0.1,0-0.2,0-0.2-0.2c0-0.1,0.1-0.2,0.1-0.2C65.6,13.8,65.7,13.9,65.8,14.1"
	/>
<path class="st0" d="M28.5,14.3c0,0.2,0,0.3-0.2,0.4c-0.1,0.1-0.2,0-0.3-0.1c-0.1-0.1-0.1-0.2-0.1-0.3c0-0.1,0.2-0.1,0.2-0.2
	C28.4,14.1,28.4,14.2,28.5,14.3"/>
<path class="st0" d="M29.2,14.4c0,0.1-0.1,0.2-0.1,0.2c-0.1,0-0.2,0.1-0.3,0c-0.1-0.1-0.2-0.2-0.1-0.4
	C28.9,14.1,29.2,14.2,29.2,14.4"/>
<path class="st0" d="M64,14.3c0,0.1-0.1,0.2-0.2,0.3c-0.1,0-0.3-0.1-0.3-0.2c0-0.1,0.1-0.2,0.2-0.3C63.8,14.2,63.9,14.2,64,14.3"/>
<path class="st0" d="M65.2,14.6c0,0.1,0,0.3-0.2,0.4c-0.1,0-0.3,0-0.3-0.1c-0.1-0.1-0.1-0.2-0.1-0.3c0.1-0.1,0.2-0.2,0.3-0.2
	C65.1,14.4,65.1,14.5,65.2,14.6"/>
<path class="st0" d="M28,14.9c0.1,0.1-0.1,0.1-0.1,0.2c-0.1,0.1-0.2,0-0.3,0c-0.1-0.1-0.1-0.2,0-0.3C27.6,14.5,27.9,14.7,28,14.9"/>
<path class="st0" d="M64.3,15.1c0.1,0,0,0.1,0,0.1c-0.4,0.2-0.9,0.2-1.2-0.1c-0.2-0.1-0.4-0.2-0.6-0.3c0.1-0.2,0.3-0.2,0.5-0.2
	C63.5,14.7,63.8,15.1,64.3,15.1"/>
<path class="st0" d="M28.7,15c0,0.1-0.1,0.2-0.1,0.3c-0.1,0.1-0.2,0.1-0.2,0c-0.1-0.1-0.2-0.3-0.1-0.4C28.4,14.8,28.6,14.8,28.7,15"
	/>
<path class="st0" d="M29.9,15.1c0.1,0.1,0,0.3-0.1,0.3c-0.1,0.1-0.2,0-0.3,0c-0.1-0.1-0.2-0.2-0.1-0.3
	C29.6,14.8,29.8,14.9,29.9,15.1"/>
<path class="st0" d="M46.8,15.7c0,0.3-0.5,0-0.4,0.3c0.1,0.3,0.1,0.6,0.3,0.8c0.1,0.2,0.1,0.5,0.1,0.7c-0.1,0.2-0.3,0.4-0.6,0.5
	c-0.4,0-1,0.2-1.2-0.3c-0.1-0.2-0.2-0.4-0.2-0.7c0,0,0.1,0,0.1-0.1c0-0.1-0.1-0.2-0.1-0.3c0.5-0.1-0.2-0.5,0.2-0.5
	c0.3,0.3,0.9,0.2,1.2,0.6c0.1,0.1,0.1,0.1,0.2,0.2c-0.1-0.3-0.2-0.7-0.3-1.1c0-0.2,0-0.4,0.2-0.5C46.4,15.3,46.6,15.6,46.8,15.7"/>
<path class="st0" d="M31.2,15.6c0,0.1-0.1,0.2-0.2,0.3c-0.1,0.1-0.2-0.1-0.3-0.2c0-0.1,0.1-0.2,0.1-0.3C31,15.5,31.2,15.5,31.2,15.6
	"/>
<path class="st0" d="M40.2,15.8c0.2,0.6,0.1,1.2-0.2,1.6c0,0.1,0,0.3-0.1,0.3c-0.4-0.5-0.1-1.3,0.1-1.9C40,15.7,40.2,15.6,40.2,15.8
	"/>
<path class="st0" d="M52.7,16c0.2,0.4,0.2,1,0,1.4l-0.1,0.1c-0.2-0.3-0.3-0.7-0.3-1c0.1-0.3,0.2-0.5,0.2-0.8
	C52.6,15.7,52.6,15.9,52.7,16"/>
<path class="st0" d="M32.4,16.2c-0.1,0.2-0.3,0.2-0.5,0.3c-0.3,0.3-0.9,0.3-1.3,0.3c0.4-0.5,1-0.8,1.7-0.7
	C32.3,16.2,32.3,16.1,32.4,16.2"/>
<path class="st0" d="M26.4,16.7c0.5,0.4,0.7,0.9,1,1.4c0,0.1,0.2,0.1,0.1,0.2c-0.1,0.1-0.2-0.1-0.4-0.1c-0.6-0.3-0.9-0.9-0.9-1.5
	C26.2,16.7,26.3,16.7,26.4,16.7"/>
<path class="st0" d="M52.1,17.2c0,0.1,0,0.3-0.1,0.3c-0.2,0-0.3,0-0.3-0.2c0-0.1,0-0.2,0.1-0.2C51.8,17,52,17.1,52.1,17.2"/>
<path class="st0" d="M58.2,18c0-0.3,0.1-0.5,0.1-0.8c0-0.1,0.1-0.2,0.1-0.3c0.3-0.5,1.1-0.3,1.6-0.3c0.2,0.1,0.5,0.1,0.7,0.2
	c0.1-0.1,0.2-0.1,0.4-0.1c0.5-0.3,0.2-0.8,0.2-1.2L61.1,15c0-0.1-0.1-0.2-0.1-0.3c-0.1-0.1-0.1-0.3-0.2-0.4c-0.2-0.6-0.7-1-1.1-1.5
	c-0.7-1-1.9-1.5-3.1-1.9c-1.2-0.4-2.3,0.1-3.3,0.5c-0.3-0.1-0.5-0.3-0.6-0.6c-0.1-0.6,0.1-1.1,0.3-1.6c0-0.4,0.3-0.6,0.4-1
	c0.3-0.8,0.5-1.6,0.6-2.5c0-0.5-0.4-0.9-0.8-1.2c-0.3-0.1-0.6-0.1-0.8,0.2c-0.2,0.4-0.6,0.7-0.9,0.9c0,0.2,0.3,0.1,0.4,0.2
	c0.3,0.1,0.7,0,0.9,0.2c0,0.6-0.3,1.1-0.6,1.5c-0.5,0.7-1,1.5-1.3,2.3l-0.1-0.1l0.1,3.6c0.5,0.8,1,1.7,1.9,1.9
	c0.5,0.4,1.1,0.8,1.7,0.5c0.3-0.1,0.4,0.4,0.5,0.6c0.2,0.5-0.2,0.9-0.2,1.4l-0.4,0.8c-0.4,0.8-0.8,1.8-1.5,2.5
	c-0.2,0-0.4,0.2-0.6,0.2c-0.1,0.2-0.4,0-0.5,0.1c-0.5,0.2-1.1,0.1-1.4,0.5c0,0,0.1,0.1,0.1,0.1c0.9,0,1.9,0.1,2.8,0
	c0.1,0,0.2-0.1,0.2-0.3c-0.1-0.2,0-0.5,0.2-0.7c0.1-0.4,0.3-0.6,0.4-0.9c0.3-0.6,0.7-1.2,1-1.8l0.5-0.7c0.1-0.3,0.3-0.6,0.5-0.8
	c0.1-0.1,0.2-0.2,0.3-0.4c0-0.1-0.1-0.2-0.1-0.3c0.1-0.1,0.3-0.1,0.4-0.1c0.4,0.2,0.7,0.6,0.8,1l0.1,0.4l0.1,0.2l0,0.5l0.1,0.5
	c0.1,0.7-0.1,1.4-0.1,2.1c-0.2,0.9-1.2,0.8-1.9,1c-0.2,0.1-0.5,0.1-0.5,0.4c0.8,0.2,1.8,0.1,2.7,0.1c0.1-0.1,0.2-0.2,0.2-0.3
	c0-0.2,0.2-0.4,0.2-0.6c-0.2-0.2,0-0.5-0.1-0.8c0-0.1,0-0.2,0-0.3c0.1-0.4,0.1-0.9,0.2-1.3L58.2,18z"/>
<path class="st0" d="M65.4,17.4c-0.5,0.7-1,1.4-1.8,1.6c-0.1,0-0.1,0-0.1,0c0.5-0.5,0.8-1.4,1.5-1.5C65.1,17.4,65.3,17.3,65.4,17.4"
	/>
<path class="st0" d="M25.7,18.1c-0.1,0.1,0,0.2-0.1,0.2c-0.1,0.1-0.2,0-0.3-0.1c-0.1-0.1,0.1-0.3,0.2-0.3
	C25.5,17.9,25.6,18,25.7,18.1"/>
<path class="st0" d="M29.9,18.3c0,0.1-0.1,0.1-0.2,0.2c-0.6,0.2-1.2,0-1.7-0.4c0-0.1,0-0.1,0.1-0.1C28.7,18.1,29.4,18,29.9,18.3"/>
<path class="st0" d="M26.5,18.1c0,0.1,0,0.2,0,0.2c-0.1,0.1-0.2,0.2-0.4,0.1c-0.1,0-0.1-0.1-0.2-0.2c0-0.1,0.1-0.2,0.2-0.3
	C26.3,18,26.4,18.1,26.5,18.1"/>
<path class="st0" d="M40.1,18.2c0,0.1-0.1,0.2-0.2,0.3c-0.1,0-0.2,0-0.3-0.1c0-0.1,0-0.3,0.1-0.3C39.9,18.1,40.1,18.1,40.1,18.2"/>
<path class="st0" d="M65.9,18.3c0,0.1-0.1,0.2-0.2,0.3c-0.1,0-0.2,0-0.3,0c0-0.1-0.1-0.1-0.1-0.2c0.1-0.1,0.2-0.2,0.3-0.2
	C65.8,18.2,65.9,18.2,65.9,18.3"/>
<path class="st0" d="M66.9,18.2c0.1,0.1,0,0.2-0.1,0.3c-0.1,0.1-0.2,0.1-0.3,0.1c-0.1-0.1-0.2-0.1-0.2-0.3c0-0.1,0.1-0.2,0.2-0.3
	C66.7,18.1,66.8,18.2,66.9,18.2"/>
<path class="st0" d="M25.1,18.6c0,0.1-0.1,0.2-0.1,0.2c-0.1,0-0.1,0.1-0.2,0.1c-0.1,0-0.2-0.1-0.2-0.2c0-0.1,0.1-0.2,0.3-0.3
	C24.9,18.4,25,18.5,25.1,18.6"/>
<path class="st0" d="M55.7,18.6c0,0.1,0,0.1,0,0.2c-0.1,0.1-0.2,0.2-0.4,0.1c-0.1-0.1-0.2-0.2-0.1-0.3
	C55.3,18.5,55.6,18.4,55.7,18.6"/>
<path class="st0" d="M27.4,18.8c0,0.1-0.1,0.2-0.2,0.2c-0.1,0-0.2-0.1-0.2-0.2c0-0.1,0-0.3,0.1-0.3C27.2,18.5,27.4,18.7,27.4,18.8"
	/>
<path class="st0" d="M26,18.9c0,0.1-0.1,0.3-0.1,0.3c-0.2,0.1-0.3-0.1-0.4-0.2c0-0.1,0.1-0.3,0.3-0.3C25.9,18.7,25.9,18.8,26,18.9"
	/>
<path class="st0" d="M56.7,18.8c0,0.1,0,0.3-0.2,0.4c-0.2,0.1-0.3-0.1-0.4-0.2c0.1-0.1,0.1-0.3,0.3-0.3
	C56.5,18.7,56.6,18.7,56.7,18.8"/>
<path class="st0" d="M26.7,18.9c0,0.1,0,0.1-0.1,0.2c-0.1,0-0.1,0.1-0.2,0.1c-0.1-0.1-0.2-0.1-0.2-0.2c0-0.1,0.1-0.2,0.2-0.3
	C26.6,18.7,26.6,18.8,26.7,18.9"/>
<path class="st0" d="M65.1,19c0,0.1-0.1,0.2-0.2,0.2c-0.1,0-0.2-0.1-0.3-0.1c-0.1-0.1,0-0.2,0-0.3C64.8,18.6,65.1,18.7,65.1,19"/>
<path class="st0" d="M66.3,19.1c0,0.2-0.2,0.2-0.3,0.2c-0.1-0.1-0.3-0.2-0.2-0.3c0.1-0.1,0.1-0.1,0.2-0.1
	C66.1,18.8,66.2,18.9,66.3,19.1"/>
<path class="st0" d="M59.3,19.2c0.1,0.2-0.1,0.3-0.2,0.3c-0.1,0-0.2-0.1-0.3-0.1c0-0.2,0-0.3,0.2-0.4C59.2,19,59.3,19.1,59.3,19.2"
	/>
<path class="st0" d="M55.3,19.4c0.1,0,0,0.1,0,0.2c-0.1,0.1-0.2,0.2-0.3,0.1c-0.1-0.1-0.2-0.1-0.1-0.3C55,19.2,55.3,19.2,55.3,19.4"
	/>
<path class="st0" d="M56.2,19.5c0,0.1,0,0.2-0.1,0.2c-0.1,0.1-0.2,0-0.3,0c0-0.1-0.1-0.1,0-0.2c0-0.1,0.1-0.1,0.2-0.1
	C56,19.3,56.1,19.3,56.2,19.5"/>
<path class="st0" d="M31.5,19.5c0.1,0.1,0,0.2,0,0.3c-0.1,0.1-0.2,0.2-0.4,0.1c-0.1-0.1-0.1-0.2-0.1-0.4c0.1,0,0.1-0.1,0.2-0.1
	C31.3,19.3,31.4,19.4,31.5,19.5"/>
<path class="st0" d="M60.9,19.5c0,0.1-0.1,0.2-0.2,0.2c-0.2,0.1-0.3-0.1-0.3-0.2c0-0.1,0.1-0.1,0.1-0.2
	C60.7,19.3,60.8,19.4,60.9,19.5"/>
<path class="st0" d="M60.1,19.5c0.1,0.1-0.1,0.2-0.2,0.3c-0.1,0-0.2,0-0.3-0.1c-0.1,0-0.1-0.1-0.1-0.2c0.1-0.1,0.1-0.2,0.2-0.2
	C59.9,19.4,60.1,19.4,60.1,19.5"/>
<path class="st0" d="M66.7,19.7c0,0.2-0.2,0.1-0.3,0.2c-0.6,0.4-1.4,0.1-2-0.1c0-0.2,0.3-0.1,0.4-0.2C65.4,19.2,66,19.6,66.7,19.7
	L66.7,19.7z"/>
<path class="st0" d="M26.8,19.5l-0.1,0.1c-0.5,0.3-1.2,0.5-1.9,0.3l-0.1-0.1C25.4,19.5,26.1,19.4,26.8,19.5L26.8,19.5z"/>
<path class="st0" d="M62.4,19.6c0,0.1-0.1,0.2-0.1,0.3c-0.1,0-0.3,0-0.4-0.2c0-0.1,0.1-0.2,0.2-0.3C62.1,19.5,62.3,19.5,62.4,19.6"
	/>
<path class="st0" d="M29.4,19.7c-0.1,0.1,0,0.2-0.2,0.3c-0.1,0.1-0.3-0.1-0.4-0.2c0-0.2,0.1-0.2,0.1-0.3
	C29.2,19.4,29.4,19.6,29.4,19.7"/>
<path class="st0" d="M28.4,19.8c0,0.1,0,0.2-0.1,0.2c-0.1,0.1-0.2,0.1-0.3,0c-0.1-0.1-0.2-0.2-0.2-0.4c0.1-0.1,0.1-0.1,0.2-0.2
	C28.3,19.6,28.4,19.6,28.4,19.8"/>
<path class="st0" d="M63.4,20.1c0,0.1-0.1,0.2-0.2,0.3c-0.1,0-0.2-0.1-0.3-0.1c0-0.1,0-0.2,0.1-0.3c0,0,0.1,0,0.2-0.1
	C63.3,19.9,63.4,20,63.4,20.1"/>
<path class="st0" d="M27.3,19.9c0,0.1-0.1,0.2-0.1,0.2c0,0.3-0.2,0.4-0.3,0.6c-0.3,0.3-0.7,0.3-1.1,0.4l-0.1-0.1
	C26.2,20.6,26.7,20.2,27.3,19.9L27.3,19.9z"/>
<path class="st0" d="M62.7,20.3c0,0.2-0.1,0.2-0.2,0.3c-0.1,0-0.2-0.1-0.3-0.2c0-0.2,0.1-0.2,0.2-0.3C62.5,20.1,62.6,20.2,62.7,20.3
	"/>
<path class="st0" d="M29,20.3C29,20.3,29,20.3,29,20.3c0,0.2-0.1,0.3-0.2,0.4c-0.1,0-0.2,0-0.3-0.1c-0.1-0.1,0-0.3,0.1-0.3
	C28.8,20.1,29,20.1,29,20.3"/>
<path class="st0" d="M65.3,20.7c0.1,0,0.2-0.2,0.3-0.2c0.1,0,0.3,0.1,0.3,0.2c0.1,0.2-0.1,0.3-0.2,0.3c-0.1,0.1-0.3-0.1-0.3,0.1
	c0.1,0.1,0.2,0.2,0.2,0.3c0,0.1-0.1,0-0.2,0c-0.4-0.2-0.9-0.5-1-0.9c-0.1-0.1-0.3-0.2-0.2-0.4C64.8,20.1,65.1,20.4,65.3,20.7"/>
<path class="st0" d="M66.7,20.3c0.1,0.1,0,0.2,0,0.3c-0.1,0.1-0.3,0.1-0.4,0.1c-0.1-0.1-0.1-0.1-0.1-0.3c0.1-0.1,0.1-0.1,0.2-0.2
	C66.5,20.1,66.6,20.2,66.7,20.3"/>
<path class="st0" d="M61.5,21c0.1,0.2,0.3,0.4,0.3,0.6c0,0-0.1,0-0.1,0c-0.5-0.3-1.1-0.6-1.3-1.2c0-0.1-0.2-0.1-0.1-0.2
	c0.4-0.1,0.7,0.2,1,0.4C61.3,20.8,61.4,20.9,61.5,21"/>
<path class="st0" d="M28.2,20.5c0.1,0.1-0.1,0.2-0.1,0.3c-0.2,0-0.2,0-0.3-0.1c-0.1-0.2,0.1-0.3,0.2-0.4
	C28,20.3,28.1,20.4,28.2,20.5"/>
<path class="st0" d="M63.3,20.8c0,0.1-0.1,0.1-0.1,0.2c-0.1,0-0.2,0.1-0.3,0c0-0.1-0.1-0.2,0-0.3C62.9,20.5,63.2,20.7,63.3,20.8"/>
<path class="st0" d="M66.9,21c0,0.2-0.1,0.3-0.2,0.4c-0.1,0-0.3-0.1-0.4-0.1c-0.1-0.1,0-0.2,0-0.3c0.1-0.1,0.2-0.2,0.4-0.1
	C66.8,20.9,66.8,21,66.9,21"/>
<path class="st0" d="M56.8,23.1c0,0.2-0.3,0.1-0.5,0.3c-0.5,0.2-1,0.2-1.5,0.2v-0.1C55.4,23,56.1,22.9,56.8,23.1"/>
<path class="st0" d="M35.6,23.7c0,0.1-0.1,0.2-0.2,0.2c-0.1,0-0.2-0.1-0.2-0.1c-0.1-0.2,0.1-0.3,0.2-0.3
	C35.5,23.5,35.6,23.6,35.6,23.7"/>
<path class="st0" d="M56.6,23.8c0,0.1-0.1,0.3-0.2,0.3c-0.1,0-0.2,0-0.3-0.1c-0.1-0.1,0-0.2,0-0.2C56.1,23.6,56.5,23.6,56.6,23.8"/>
<path class="st0" d="M59.5,23.9c-0.4,0.2-0.8,0.5-1.3,0.5l-0.8,0l-0.1-0.1C57.9,23.8,58.7,23.8,59.5,23.9L59.5,23.9z"/>
<path class="st0" d="M31.6,24.3c0,0.1-0.1,0.2-0.2,0.3c-0.1,0-0.2,0-0.3-0.1c-0.1-0.1,0-0.3,0.1-0.3C31.4,24,31.6,24.1,31.6,24.3"/>
<path class="st0" d="M32.3,24.4c0,0.1,0,0.1-0.1,0.2c-0.1,0-0.2,0.1-0.3,0c-0.1-0.1-0.1-0.2-0.1-0.3c0-0.1,0.1-0.1,0.2-0.1
	C32.2,24.3,32.3,24.3,32.3,24.4"/>
<path class="st0" d="M26.8,25.9c-0.1,0.2-0.4,0-0.5-0.1c-0.5-0.3-0.5-0.9-1-1.2c0.1-0.2,0.2,0,0.3,0c0.1,0.1,0.2,0.1,0.3,0.2
	C26.3,25,26.4,25.4,26.8,25.9"/>
<path class="st0" d="M46.1,25.6c-0.1,0.2-0.2,0.3-0.2,0.5l-0.1,0c0-0.2-0.2-0.4-0.1-0.6c-0.1-0.2-0.1-0.4-0.2-0.6
	c-0.1-0.2,0.1-0.3,0.2-0.5c0.2,0.1,0.3,0.3,0.4,0.5C46.2,25.2,46,25.4,46.1,25.6 M69.2,20.2c-0.2-0.4-0.6-0.6-1.1-0.6
	c-0.4,0-0.7,0.3-0.8,0.6c-0.1,0.3,0,0.6,0.3,0.8c0.1,0,0.2,0,0.3-0.1c0.1-0.2-0.1-0.2-0.2-0.3c-0.1-0.2,0-0.4,0.2-0.5
	c0.1-0.1,0.4-0.1,0.6-0.1c0.2,0.1,0.3,0.2,0.4,0.4c0.1,0.3,0.1,0.5,0,0.8c-0.2,0.4-0.5,0.7-0.9,0.7c-1.2,0.2-14.5,0.1-14.5,0.1
	c-1.6,0.1-3.3-0.3-4.7,0.5c-0.6,0.3-0.9,1-1.1,1.6c-0.4,0.4-0.8,0.8-1.1,1.2l0,0c0.1-0.4,0.2-0.7,0.3-1c0.2-0.3,0.2-0.7,0.4-1
	c0.6-0.9,1.1-1.8,1.9-2.4c0.4-0.5,1-0.4,1.6-0.4c0.6,0.3,1.3,0.4,2,0.3c0,0,0-0.1,0-0.1c-0.2-0.2-0.5-0.3-0.8-0.5
	c-0.6-0.3-1.1,0.1-1.7,0c0,0-0.1,0,0-0.1c0.6-0.4,1.2-0.7,1.8-1c0.5-0.3,1-0.4,1.6-0.6c0.2,0,0.4-0.2,0.6-0.1l0.8-0.2
	c0,0,0.1,0.1,0.1,0c0.7-0.2,1.5,0,2.2,0l0.1,0.1l0.7,0.2c0.3,0,0.4,0.3,0.7,0.4c0.1-0.2-0.2-0.3-0.2-0.4c0.3-0.1,0.7,0,1,0.1
	l-0.1,0.2c-0.1,0.2,0,0.3,0.2,0.3c0.1,0,0.2,0,0.2-0.1c0.2-0.1,0-0.3,0-0.4c1.1,0.2,2.1,0.5,3.1,0.9c0.3,0.1,0.5,0.3,0.8,0.3
	c-0.3-0.3-0.7-0.4-1.1-0.6c-0.2-0.1-0.6-0.2-0.8-0.4c0-0.1,0.1,0,0.2-0.1c0.5-0.1,0.9-0.4,1.3-0.8c0-0.1,0.2-0.1,0.2-0.2
	c-0.1-0.1-0.3,0-0.5,0c-0.6,0.1-0.9,0.8-1.5,1c-0.7-0.2-1.5-0.4-2.2-0.5c-0.4-0.1-0.8-0.1-1.1-0.2l-0.8-0.1h-1.5c0,0-0.1,0,0-0.1
	c0.5-0.1,1-0.4,1.5-0.6l3.9-1.8c0.4-0.4,0.8-0.8,1.1-1.2c0-0.1-0.1-0.2-0.2-0.3c-0.1,0-0.2,0-0.3,0.1c-0.2,0.1,0,0.3,0,0.5
	c-0.2,0.2-0.5,0.4-0.7,0.6c-0.1,0-4,1.8-4,1.8c-0.6,0.2-1.2,0.5-1.8,0.7l-0.8,0.1c-0.1,0.2-0.2,0.3-0.4,0.3c-0.2,0-0.4,0.2-0.7,0.2
	c-1.9,0.7-3.9,1.5-5.4,3c0.1-0.2,0.1-0.4,0.1-0.6c0-0.2,0-0.5-0.2-0.6c0-0.1-0.1-0.3-0.1-0.4l-0.2,0.1c-0.1,0.3-0.2,0.9-0.1,1.2
	c0,0.3,0.3,0.6,0.1,0.8c-0.7,0.9-1.1,1.9-1.6,2.8c-0.2,0-0.3-0.2-0.3-0.4c0.5-0.6,0.9-1.3,1-2.1c0.1-0.1,0-0.3,0.1-0.4
	c0-0.2,0.1-0.5,0-0.7c0.1-0.3-0.4-0.6-0.1-0.8l-0.3,0.1c-0.6,0.8,0.3,2.1-0.4,2.8v0.1c-0.2,0.3-0.3,0.5-0.6,0.7
	c-0.3-0.1-0.5-0.5-0.7-0.8c-0.3-0.3-0.3-0.9-0.1-1.4c0.1-0.4-0.1-0.8-0.1-1.2l-0.1-0.1c-0.3,0.5-0.5,1.2-0.2,1.7
	c0.1,0.3,0.2,0.6,0.4,0.9c0.1,0.4,0.4,0.7,0.6,1.1c0.1,0.1-0.1,0.2-0.2,0.3c-0.2-0.1-0.1-0.3-0.3-0.4c-0.5-1-1.1-1.8-1.9-2.7
	c0-0.1-0.2-0.2-0.1-0.4c0.3-0.3,0.3-0.8,0.2-1.1c0-0.1-0.1-0.2-0.1-0.2L43,19.4c0,0.5-0.3,1-0.2,1.5v0c-1.5-1.1-3.2-2.1-4.8-2.9
	l-0.1,0.4c0.4,0.1,1.6,0.8,1.6,0.8c0.5,0.2,1,0.5,1.5,0.8c2,1.1,3.3,2.9,4.2,4.9c0,0.2,0.2,0.3,0.1,0.5c-0.3-0.5-0.7-0.7-1.1-1.1
	c-0.1-0.7-0.5-1.4-1.1-1.6c-0.2-0.3-0.7-0.4-1-0.5l-5.3,0c-4.3-0.1-8.2,0.1-12.5,0.1c-0.6-0.1-1.3-0.3-1.5-0.9
	c-0.1-0.2-0.1-0.6,0-0.8c0.2-0.3,0.5-0.4,0.7-0.4c0.2,0,0.4,0.2,0.5,0.4c0,0.2-0.2,0.4-0.2,0.5c0,0.1,0.1,0.2,0.2,0.1
	c0.2-0.1,0.3-0.3,0.4-0.5c0-0.1,0.1-0.2,0-0.3c-0.1-0.3-0.4-0.5-0.7-0.6c-0.4,0-0.7,0.1-1,0.3c-0.3,0.3-0.3,0.8-0.2,1.2
	c0.2,0.6,0.9,1.1,1.6,1.2l14.2,0.1c1.4,0.1,2.9-0.2,4.3,0.1c0.5,0.2,1,0.5,1.2,1.1c0,0-0.1,0-0.1,0c-1.2-0.7-2.7-1-4.1-0.9
	c-0.6,0-1.1,0.2-1.6,0.3c-0.3,0.1-0.5-0.1-0.7-0.2c-0.5-0.5-1.4-0.4-2.1-0.3c0,0,0,0.1,0,0.1c0.7-0.1,1.1,0.6,1.8,0.6
	c0.1,0,0.3-0.1,0.4,0c-0.7,0.3-1.3,0.7-2,0.9c-0.2,0-0.3-0.2-0.5-0.4c-0.3-0.3-0.8-0.2-1.2-0.2c-0.1,0-0.2-0.1-0.3,0
	c0.1,0.2,0.4,0.4,0.6,0.5c0.4,0.2,0.8,0,1.1,0.2c-0.1,0.1-0.2,0.1-0.3,0.2c-0.7,0.3-1.3,0.9-2,0.8c-0.8,0.1-1.6-0.1-2.2-0.7
	c-0.2-0.6-0.8-0.9-1.5-0.8c0,0-0.1,0-0.1,0.1c0.3,0.2,0.6,0.6,0.9,0.8c0.2,0.3,0.6,0,0.8,0.3c0.3,0.2,0.6,0.4,0.9,0.4
	c0.2,0.1,0.5,0.1,0.8,0.2l-0.1,0.1c-1.3,0.4-2.9,0.5-4.3,0.4c-0.4,0-0.9-0.1-1.3-0.1c0.1,0.1,0.2,0.2,0.3,0.2
	c-0.1,0.1-0.2,0.1-0.4,0.1c-0.2,0-0.4,0.1-0.6,0.1c-0.2,0-0.4,0.1-0.6,0.1c-0.2,0.3-0.5,0.5-0.8,0.7c0,0.1,0,0.1,0.1,0.1
	c0.3-0.1,0.6,0,0.9-0.1c0.5,0,0.8-0.6,1.1-0.8c0.4-0.3,1-0.2,1.5-0.2c0.3,0.1,0,0.2,0.1,0.4c0.1,0.1,0.2,0.2,0.4,0.2
	c0,0,0.1-0.1,0.1-0.1c0.1-0.1,0.1-0.3,0-0.4c0.2-0.1,0.5,0,0.7-0.1c0.6,0,1.1-0.1,1.6-0.1c0.1,0,0.2-0.1,0.3,0
	c0,0.1-0.2,0.1-0.1,0.3c0,0.1,0.2,0.2,0.3,0.2c0.1-0.1,0.3-0.2,0.2-0.4c0-0.1-0.1-0.1-0.2-0.2c0.3-0.1,0.7-0.2,1-0.3
	c0.2,0,0.4-0.1,0.6-0.2c0.2,0,0.3-0.2,0.5-0.1c-0.1,0.3-0.2,0.5-0.3,0.7c-0.2,0.8-0.4,1.8,0,2.5c0,0,0.1,0,0.1,0
	c-0.3-0.8-0.1-1.7,0.1-2.4c0.2-1.2,1.5-1.6,2.4-2.1l0,0.1c-0.2,0.6-0.6,1.3-0.6,2c0,0.1-0.1,0.3,0,0.4c0.2-0.1,0.4-0.4,0.5-0.7
	c0.1-0.7-0.3-1.5,0.4-2c1.2-0.5,2.3-1.1,3.7-1.1c0,0,0.1,0,0.2,0.1c-0.3,0.3-0.7,0.6-0.8,1c-0.5,0.6-0.4,1.7-0.2,2.5
	c0.1,0.5-0.3,0.7-0.4,1.1c-0.1,0.1-0.1,0.3-0.2,0.5l0.3,0c0.2-0.3,0.5-0.6,0.5-1c0,0.1,0.2,0.3,0.3,0.3c0.1-0.2-0.1-0.3-0.1-0.4
	c0.2-0.1,0.3,0.2,0.5,0.2c0.3,0.1,0.6,0.2,0.9,0.2l0.1-0.1c-0.3-0.5-1-0.6-1.5-0.6c-0.3-0.5-0.3-1.1-0.3-1.7
	c0.1-0.3,0.1-0.6,0.3-0.9c0.1-0.2,0.3-0.4,0.4-0.6c0.3-0.2,0.6-0.4,0.9-0.5h0c0,0,0,0,0,0c-0.4,0.3-0.4,0.7-0.7,1.1
	c-0.2,0.4-0.4,0.9-0.1,1.3c0.1,0.2,0,0.5,0.2,0.6c0.2-0.3,0.2-0.6,0.3-0.9c0-0.5-0.3-0.9-0.1-1.4c0.1-0.4,0.5-0.5,0.8-0.6
	c0.8-0.1,1.5,0.3,2.2,0.6c0.1,0.1,0.4,0.2,0.4,0.4c0,0.4-0.2,0.8-0.5,1c-0.4,0.2-1,0.3-1.3,0c-0.2-0.2-0.3-0.6-0.2-0.9
	c0.2-0.2,0.4-0.3,0.6-0.2c0.1,0.1,0.3,0.2,0.5,0.1c0.1,0,0.1-0.2,0.1-0.2c-0.2-0.1-0.2-0.3-0.4-0.3c-0.3,0-0.6,0-0.8,0.2
	c-0.3,0.3-0.4,0.7-0.3,1c0.1,0.5,0.5,0.8,0.9,0.9c0.7,0.2,1.4,0,1.8-0.6c0.2-0.2,0.2-0.4,0.3-0.6c0.7,0.4,1.2,1.2,1.5,1.9
	c0,0.2,0.1,0.5,0,0.7l0.5,0c0-0.1,0-0.2,0-0.3c0.2-1,0.8-1.8,1.5-2.4c0.2-0.1,0.2,0.2,0.2,0.3c0.2,0.6,0.7,1,1.3,1.1
	c0.6,0.1,1.2,0,1.6-0.5c0.2-0.4,0.4-0.9,0.1-1.2C50.5,24.1,50.3,24,50,24c-0.4,0-0.6,0.3-0.8,0.5c0,0.1,0,0.2,0.1,0.3
	c0.1,0,0.2,0,0.2-0.1c0-0.2,0.2-0.3,0.4-0.4c0.2-0.1,0.3,0,0.5,0.1c0.2,0.1,0.2,0.4,0.2,0.6c0,0.3-0.2,0.6-0.5,0.7
	c-0.4,0.2-1,0.1-1.4-0.1c-0.2-0.2-0.3-0.4-0.4-0.6c0-0.2-0.1-0.4,0-0.7c0.6-0.4,1.3-0.7,2.1-0.7c0.3,0.1,0.6,0.3,0.8,0.5
	c0.7,0.7-0.1,1.7,0.3,2.4c0.2,0,0.2-0.3,0.2-0.4c0.2-0.5-0.1-1.1-0.2-1.6c-0.2-0.3-0.3-0.6-0.6-0.9c0.1,0,0.1,0,0.2,0
	c0.3,0.2,0.6,0.4,0.9,0.8c0.4,0.7,0.6,1.5,0.6,2.4c-0.1,0.4-0.6,0.6-0.9,0.8c-0.1,0.1-0.3,0.3-0.4,0.5c0.2,0.1,0.4,0,0.6-0.1
	c0.3-0.1,0.4-0.5,0.6-0.6c0,0,0,0.1,0,0.1c0,0.2-0.1,0.4,0.1,0.4c0.1-0.2,0.1-0.5,0.1-0.7c0.2,0.2,0.2,0.5,0.3,0.7
	c0.1,0.3,0.3,0.6,0.7,0.7c0.1-0.1,0-0.3,0-0.4c0-0.4-0.3-0.6-0.6-0.8c-0.5-0.7-0.3-1.8-0.7-2.6c-0.1-0.4-0.5-0.7-0.8-1.1l0.1-0.1
	c0.7,0,1.3,0.2,2,0.4c0.8,0.4,2,0.3,2.3,1.3c0.2,0.6,0.4,1.1,0.8,1.6l0,0c0.1-0.1,0.1-0.4,0-0.5c-0.1-0.7-0.7-0.9-1.1-1.5l0-0.1
	c0.3,0.1,0.7,0.2,1.1,0.3c1.2,0.3,2,1.5,2.1,2.7c0,0.9-0.2,1.7-0.5,2.5c0,0.1-0.2,0.2-0.1,0.4c0.2-0.1,0.2-0.3,0.3-0.4
	c0.5-0.8,0.7-1.9,0.5-2.9c0-0.2-0.2-0.3-0.1-0.5c0.1,0.1,0.2,0.1,0.2,0.1c0.1-0.1,0.2-0.1,0.3-0.2c0-0.1,0.1-0.2,0-0.3
	c-0.1-0.1-0.3-0.1-0.4-0.1c-0.1,0.1-0.2,0.2-0.2,0.3c-0.1-0.2-0.3-0.6-0.5-0.8l0,0c0.7,0.2,1.3,0.5,1.9,0.7c0.1,0.1,0.3,0.2,0.5,0.2
	c0.6,0.2,1.2,0.3,1.8,0.5c0.4,0,0.8,0.2,1.2,0.1v0l0,0c-0.2-0.2-0.5,0-0.7-0.2c-1-0.1-2-0.4-2.9-0.7c0,0,0.1,0,0.1,0
	c0.1-0.1,0.2-0.2,0.2-0.4c-0.1-0.1-0.2-0.2-0.3-0.2c-0.1,0-0.2,0.1-0.2,0.2c0,0.1,0.1,0.3,0.2,0.3c0,0-0.1,0-0.1,0
	c-0.5-0.2-0.9-0.4-1.3-0.6c-0.2,0-0.3-0.2-0.5-0.2c-0.3-0.2-0.7-0.3-1-0.5c-0.9-0.5-2-0.7-3-1.1c-0.2-0.1-0.4-0.1-0.6-0.2
	c-0.4-0.1-0.7-0.2-1.1-0.3c-1.2-0.3-2.9-0.3-4,0.3c-0.2-0.1-0.3,0.2-0.4,0c0.3-0.8,1.2-1.1,2-1.1c5.8-0.1,11.3-0.1,17.1-0.2
	c0.7,0,1.3-0.2,1.7-0.8C69.3,21.2,69.4,20.6,69.2,20.2"/>
<path class="st0" d="M61.8,24.7c0,0,0.1,0.1,0.1,0.1c-0.5,0.5-1.2,0.6-2,0.6c-0.1,0-0.1,0.1-0.2,0c0,0-0.1-0.1,0-0.1
	C60.3,24.8,61.1,24.5,61.8,24.7"/>
<path class="st0" d="M59.5,24.9c0.1,0.2-0.1,0.3-0.2,0.4c-0.2,0-0.2-0.1-0.3-0.2c0-0.1,0.1-0.2,0.1-0.2
	C59.2,24.7,59.4,24.7,59.5,24.9"/>
<path class="st0" d="M31.8,24.9c0,0.1,0,0.2-0.1,0.3c-0.1,0.1-0.2,0.1-0.3,0.1c-0.1,0-0.2-0.1-0.2-0.2c0-0.1,0.1-0.2,0.2-0.3
	C31.6,24.8,31.7,24.8,31.8,24.9"/>
<path class="st0" d="M29.2,25.9V26c-0.3,0.1-0.7,0-0.9-0.2c-0.2-0.3-0.4-0.6-0.8-0.7c0,0-0.1-0.1,0-0.1
	C28.2,24.9,28.7,25.5,29.2,25.9"/>
<path class="st0" d="M64.1,24.9c-0.3,0.5-0.6,1.1-1.2,1.3c-0.1,0-0.2,0.1-0.3,0c0.2-0.6,0.7-1.2,1.3-1.4
	C63.9,24.9,64,24.9,64.1,24.9"/>
<path class="st0" d="M32.7,25.1c0,0.2-0.1,0.2-0.2,0.3c-0.1,0-0.2-0.1-0.2-0.2c-0.1-0.1,0.1-0.2,0.1-0.3
	C32.5,24.9,32.6,25,32.7,25.1"/>
<path class="st0" d="M65.9,25.2c-0.1,0.2-0.1,0.5-0.2,0.7c-0.3,0.3-0.5,0.7-1,0.8c-0.1-0.1,0.1-0.3,0.2-0.4
	C65.1,25.8,65.3,25.3,65.9,25.2L65.9,25.2z"/>
<path class="st0" d="M24.7,25.3c0,0.1,0.1,0.2,0,0.3c-0.1,0.1-0.2,0.1-0.3,0.1c-0.1-0.1-0.2-0.2-0.1-0.4
	C24.4,25.2,24.6,25.2,24.7,25.3"/>
<path class="st0" d="M23.9,25.5c0,0.1,0.1,0.1,0,0.2c0,0.1-0.1,0.2-0.2,0.2c-0.2,0-0.3-0.1-0.3-0.2c0-0.1,0-0.2,0.1-0.3
	C23.7,25.3,23.8,25.4,23.9,25.5"/>
<path class="st0" d="M25.6,25.6c0,0.1,0.1,0.3-0.1,0.4c-0.2,0.1-0.3-0.1-0.4-0.2c0-0.1,0.1-0.2,0.2-0.3
	C25.4,25.5,25.5,25.5,25.6,25.6"/>
<path class="st0" d="M28,25.8c0,0.1,0,0.2-0.1,0.3c-0.1,0.1-0.2,0-0.3,0c0-0.1-0.2-0.2-0.1-0.3c0.1-0.1,0.1-0.1,0.2-0.2
	C27.8,25.7,27.9,25.7,28,25.8"/>
<path class="st0" d="M67.3,25.9c0,0.1-0.1,0.2-0.2,0.2c-0.1,0-0.3,0-0.3-0.2c-0.1-0.2,0.1-0.2,0.2-0.3
	C67.1,25.7,67.3,25.7,67.3,25.9"/>
<path class="st0" d="M64.6,26c0,0.1-0.1,0.2-0.2,0.3c-0.2,0.1-0.4-0.1-0.5-0.2c0-0.1,0.1-0.2,0.2-0.3C64.4,25.7,64.5,25.8,64.6,26"
	/>
<path class="st0" d="M66.4,25.9c0,0.1-0.1,0.2-0.1,0.3c-0.1,0-0.3,0-0.3-0.1c-0.1-0.1,0-0.2,0.1-0.3C66.1,25.7,66.4,25.8,66.4,25.9"
	/>
<path class="st0" d="M24.3,26.2c0,0.2,0,0.3-0.2,0.4c-0.1,0-0.3-0.1-0.3-0.2c0-0.1,0-0.3,0.1-0.3C24.1,26,24.3,26.1,24.3,26.2"/>
<path class="st0" d="M63.9,26.3c0,0.2,0,0.3-0.2,0.4c-0.1,0-0.2,0-0.3-0.1c-0.1-0.1-0.1-0.2,0-0.3C63.5,26.1,63.8,26.2,63.9,26.3"/>
<path class="st0" d="M32.2,26.5c0.1,0.2-0.1,0.2-0.2,0.3c-0.1,0-0.2,0-0.2,0c-0.1-0.1-0.2-0.2-0.1-0.3c0.1-0.1,0.1-0.1,0.2-0.1
	C32,26.3,32.1,26.4,32.2,26.5"/>
<path class="st0" d="M67,26.6c0,0.1-0.1,0.1-0.1,0.2c-0.1,0.1-0.2,0.1-0.3,0.1c-0.1-0.1-0.1-0.2-0.1-0.3c0.1-0.1,0.1-0.1,0.2-0.2
	C66.8,26.4,67,26.5,67,26.6"/>
<path class="st0" d="M66.1,26.6c0.1,0.2-0.1,0.3-0.2,0.3c-0.1,0-0.1,0-0.2,0.1c0.4,0.2,0.6,0.5,0.9,0.8v0.1c-0.5,0-1.1-0.1-1.4-0.6
	c-0.1-0.1-0.3-0.1-0.4-0.2c0.2-0.2,0.5-0.1,0.8-0.1c0.2-0.2-0.2-0.4,0-0.5c0.1,0,0.1-0.1,0.3-0.1C66,26.5,66.1,26.6,66.1,26.6"/>
<path class="st0" d="M60.2,26.7c0,0.1-0.1,0.2-0.1,0.2C60,27,59.9,27,59.8,27c-0.1-0.1-0.2-0.2-0.1-0.3
	C59.7,26.4,60.1,26.4,60.2,26.7"/>
<path class="st0" d="M27.6,27.2c0,0.1-0.1,0.2-0.2,0.2c-0.1,0-0.2-0.1-0.3-0.2c0-0.1,0.1-0.2,0.1-0.2C27.4,26.9,27.6,27,27.6,27.2"
	/>
<path class="st0" d="M28.8,27c0,0.2-0.2,0.3-0.3,0.5c-0.2,0.5-0.6,0.9-1.2,1c-0.1-0.1,0.2-0.3,0.2-0.4C27.8,27.6,28.3,27.3,28.8,27
	L28.8,27z"/>
<path class="st0" d="M59.8,27.2c0,0.2-0.1,0.3-0.2,0.3c-0.1,0-0.2-0.1-0.3-0.1c-0.1-0.1,0-0.2,0-0.4C59.5,26.9,59.7,27,59.8,27.2"/>
<path class="st0" d="M60.7,27.3c0,0.2-0.1,0.3-0.3,0.3c0,0-0.1,0-0.1,0c-0.1-0.1-0.2-0.1-0.2-0.3c0.1-0.1,0.1-0.2,0.2-0.2
	C60.5,27.1,60.7,27.1,60.7,27.3"/>
<path class="st0" d="M31.1,27.3c0,0.2-0.1,0.2-0.2,0.3c-0.1,0-0.2-0.1-0.3-0.2c0-0.1,0.1-0.2,0.2-0.3C30.9,27.1,31,27.2,31.1,27.3"
	/>
<path class="st0" d="M32.1,27.3c0,0.1-0.1,0.2-0.3,0.2c-0.1,0-0.2-0.1-0.3-0.2c0-0.1,0.1-0.2,0.2-0.3C31.9,27.1,32,27.2,32.1,27.3"
	/>
<path class="st0" d="M63.9,28.4c0.1,0.1,0.2,0.1,0.2,0.2c-0.2,0.1-0.4-0.2-0.6-0.2c-0.3-0.4-0.6-0.7-0.8-1.2c0.1-0.1,0.3,0,0.4,0.1
	C63.4,27.6,63.7,27.9,63.9,28.4"/>
<path class="st0" d="M64.4,27.3c0,0.1,0,0.2,0,0.3c-0.1,0.1-0.3,0.1-0.4,0.1c-0.1-0.1-0.2-0.2-0.1-0.3c0-0.1,0.2-0.1,0.3-0.2
	C64.2,27.2,64.3,27.3,64.4,27.3"/>
<path class="st0" d="M33.4,27.7c0,0.1,0,0.3-0.1,0.4c-0.1,0-0.3,0-0.3-0.2c-0.1-0.2,0.1-0.2,0.2-0.3C33.2,27.6,33.3,27.6,33.4,27.7"
	/>
<path class="st0" d="M60.7,28.7c0.2,0.3,0.3,0.7,0.4,1c0,0.1,0.1,0.2,0,0.3H61c-0.7-0.5-0.8-1.1-1.1-1.8c-0.1,0-0.1-0.1-0.1-0.1
	c0.1-0.1,0.2,0.1,0.4,0.2L60.7,28.7z"/>
<path class="st0" d="M35.3,28.2C35.3,28.2,35.3,28.2,35.3,28.2c-0.6,0.4-1.4,0.7-2.1,0.3c0,0,0-0.1,0.1-0.1c0.4-0.1,0.8-0.3,1.3-0.3
	L35.3,28.2z"/>
<path class="st0" d="M32,28.2c-0.5,0.3-0.9,0.9-1.6,1.1c-0.1,0-0.2,0.2-0.3,0.1c0.3-0.8,1.1-1.2,1.9-1.3V28.2z"/>
<path class="st0" d="M59.8,28.9c0,0.1,0,0.3-0.1,0.3c-0.1,0.1-0.2,0.1-0.3,0c-0.1-0.1-0.1-0.2-0.1-0.3c0-0.1,0.1-0.1,0.2-0.2
	C59.6,28.8,59.7,28.8,59.8,28.9"/>
<path class="st0" d="M58.6,29c-0.1,0.2-0.3,0.3-0.5,0.4c-0.5,0.2-0.9-0.1-1.4-0.2c0-0.1,0.2-0.1,0.2-0.1c0.5-0.1,1-0.2,1.5-0.1
	C58.5,28.9,58.6,28.9,58.6,29"/>
<path class="st0" d="M32,29.4c0,0.1-0.1,0.2-0.2,0.2c-0.1,0-0.2,0-0.3-0.1c0-0.1-0.1-0.2-0.1-0.3c0-0.1,0.1-0.1,0.2-0.2
	C31.8,29.2,32,29.3,32,29.4"/>
<path class="st0" d="M32.8,29.5c0,0.1-0.1,0.2-0.2,0.3c-0.1,0-0.2,0-0.3-0.1c0-0.1-0.1-0.2,0-0.3c0-0.1,0.1-0.1,0.2-0.1
	C32.6,29.3,32.8,29.4,32.8,29.5"/>
<path class="st0" d="M59.5,29.7c0,0.1,0,0.2-0.1,0.3c-0.1,0.1-0.2,0.1-0.3,0.1c-0.1,0-0.1-0.1-0.2-0.2c-0.1-0.1,0.1-0.2,0.1-0.3
	C59.2,29.4,59.5,29.5,59.5,29.7"/>
<path class="st0" d="M60.2,29.7c0,0.1,0.1,0.1,0,0.2c-0.1,0.1-0.1,0.3-0.3,0.2c-0.1,0-0.1-0.1-0.2-0.1c-0.1-0.1,0-0.4,0.2-0.4
	C60,29.5,60.1,29.6,60.2,29.7"/>
<path class="st0" d="M32.3,30.1c0,0.2,0,0.3-0.1,0.4c-0.2,0-0.4,0-0.4-0.2c0-0.1,0-0.3,0.2-0.4C32.1,29.9,32.2,29.9,32.3,30.1"/>
<path class="st0" d="M33.1,30c0,0.4-0.1,0.9-0.5,1.1c-0.2,0-0.5,0.3-0.7,0.1v-0.1C32.2,30.8,32.8,30.4,33.1,30"/>
<path class="st0" d="M57.3,30.4c0.1,0.1,0,0.2-0.1,0.2c-0.1,0.1-0.2,0.1-0.3,0c-0.1,0-0.1-0.2-0.1-0.3c0-0.1,0.1-0.1,0.2-0.2
	C57.1,30.1,57.2,30.3,57.3,30.4"/>
<path class="st0" d="M34.6,31c0.2,0.3,0.1,0.8,0.2,1.2c-0.2,0-0.3-0.3-0.5-0.4c-0.3-0.4-0.3-1-0.4-1.5c0,0,0.1,0,0.1,0
	c0.2,0.1,0.4,0.4,0.6,0.6C34.5,30.9,34.6,30.9,34.6,31"/>
<path class="st0" d="M58,30.5c0,0.1-0.1,0.1-0.2,0.2c-0.1,0-0.2-0.1-0.3-0.1c0-0.1,0.1-0.2,0.1-0.3C57.8,30.2,57.9,30.3,58,30.5"/>
<path class="st0" d="M59.7,31.8c0,0,0,0.1-0.1,0.1h-0.1c-0.4-0.4-0.8-0.8-0.8-1.4l0.1,0C59.3,30.8,59.7,31.2,59.7,31.8"/>
<path class="st0" d="M58.6,31.3c0,0.1-0.1,0.2-0.1,0.3c-0.2,0-0.4,0-0.4-0.2c0-0.1,0.1-0.2,0.2-0.3C58.5,31.1,58.6,31.2,58.6,31.3"
	/>
<path class="st0" d="M57.7,31.6c-0.2,0.5-0.8,0.8-1.1,1.2c-0.1,0,0-0.2,0-0.2c0.1-0.6,0.6-1.1,1.1-1.3
	C57.9,31.3,57.6,31.5,57.7,31.6"/>
<path class="st0" d="M58.8,32.1c0,0.1-0.1,0.2-0.2,0.3c-0.1,0-0.2,0-0.3-0.2c0-0.1,0.1-0.2,0.2-0.3C58.6,31.9,58.7,31.9,58.8,32.1"
	/>
<path class="st0" d="M47.9,5.6h-0.2c-0.4,0-0.1,0.5,0.2,0.5C48.2,6.1,48.2,5.6,47.9,5.6 M46.6,6.1c0.4,0,0-0.5-0.2-0.5H46
	c-0.4,0,0,0.5,0.2,0.5H46.6z M44.9,6.1c0.4,0,0-0.5-0.2-0.5h-0.4c-0.4,0,0,0.5,0.2,0.5H44.9z M47.9,5.4c0.2,0,0.4,0.2,0.4,0.4
	c0,0.2-0.2,0.4-0.4,0.4h-4.3c-0.2,0-0.4-0.2-0.4-0.4c0-0.2,0.2-0.4,0.4-0.4H47.9z"/>
<path class="st0" d="M48,12.1c0,0.2,0.3,0.1,0.4,0.1s0.4,0.1,0.4-0.1c0-0.3-0.3-0.2-0.4-0.2S48,11.9,48,12.1 M48.8,12.6
	c0.2,0,0.2-0.3,0.2-0.5c0-0.5-0.4,0-0.6-0.5c-0.1,0.4-0.6,0-0.6,0.5c0,0.3,0,0.5,0.3,0.5H48.8z M47.6,10.4l0.8,0.3l0.8-0.3l-0.3,1.2
	l0.6-0.1l-0.2,0.7l0.2,0.7l-0.6-0.2l0.2,1.3l-0.8-0.3l-0.8,0.3l0.3-1.3l-0.7,0.2l0.2-0.7l-0.2-0.7l0.6,0.1L47.6,10.4z"/>
<polygon class="st0" points="45.7,11.8 45.5,11.8 45.6,11.9 45.5,12 45.6,12 45.6,12.2 45.8,12.1 45.9,12.2 45.9,12 46,12 
	45.9,11.9 46,11.8 45.8,11.8 45.8,11.6 "/>
<polygon class="st0" points="45,12.6 44.9,12.6 45,12.7 44.8,12.8 45,12.9 45,13 45.1,12.9 45.2,13 45.2,12.9 45.4,12.8 45.3,12.7 
	45.3,12.6 45.2,12.6 45.1,12.5 "/>
<polygon class="st0" points="46.1,12.5 46,12.5 46,12.6 45.9,12.7 46.1,12.7 46.1,12.9 46.2,12.8 46.3,12.9 46.3,12.7 46.5,12.7 
	46.4,12.6 46.4,12.5 46.3,12.5 46.2,12.3 "/>
<polygon class="st0" points="46.2,13.3 46.1,13.3 46.2,13.4 46.1,13.4 46.2,13.4 46.2,13.5 46.3,13.5 46.3,13.5 46.3,13.4 
	46.4,13.4 46.4,13.4 46.4,13.3 46.3,13.3 46.3,13.2 "/>
<polygon class="st0" points="45.3,13.5 45,13.5 45.1,13.7 44.9,13.9 45.2,14 45.2,14.2 45.4,14.1 45.6,14.2 45.6,14 45.9,13.9 
	45.7,13.7 45.8,13.5 45.6,13.5 45.4,13.3 "/>
<polygon class="st0" points="45.7,0.4 46.2,1.7 47.5,1.3 46.9,2.5 48,3.2 46.6,3.5 46.7,4.8 45.7,3.9 44.7,4.8 44.8,3.5 43.4,3.2 
	44.5,2.5 43.9,1.3 45.2,1.7 "/>
<path class="st0" d="M41,28.7c-0.2,0.1-0.2,0.1-0.2,0.3l0.2,0.8c0,0.1,0,0.4-0.1,0.5c-0.1,0.2-0.4,0.3-0.5,0.3c-0.1,0-0.4,0.1-0.6,0
	c-0.1-0.1-0.2-0.1-0.3-0.4l-0.2-0.8c0-0.2-0.1-0.2-0.3-0.2l0-0.1l1-0.2l0,0.1c-0.2,0.1-0.3,0.1-0.2,0.3L40,30c0,0.1,0.1,0.5,0.5,0.4
	c0.5-0.1,0.4-0.5,0.4-0.6L40.7,29c0-0.1-0.1-0.2-0.3-0.2l0-0.1L41,28.7L41,28.7z"/>
<path class="st0" d="M42.4,28.8c-0.1-0.2-0.3-0.4-0.7-0.3c-0.2,0-0.3,0.1-0.3,0.3c0,0.1,0.1,0.2,0.4,0.2l0.5,0.1
	c0.1,0,0.4,0.1,0.4,0.4c0,0.2-0.1,0.5-0.6,0.7c-0.3,0.1-0.4,0-0.5,0c-0.1,0-0.1,0.1-0.1,0.1l-0.1,0l-0.1-0.6l0.1,0
	c0.1,0.2,0.3,0.5,0.7,0.4c0.3-0.1,0.3-0.3,0.3-0.4c0-0.2-0.2-0.2-0.4-0.2l-0.2,0c-0.5-0.1-0.6-0.3-0.6-0.4c0-0.1,0-0.5,0.5-0.6
	c0.2-0.1,0.4,0,0.5,0c0.1,0,0.1-0.1,0.1-0.1l0.1,0L42.4,28.8L42.4,28.8z"/>
<path class="st0" d="M44.4,29.8l-1.1,0.1l0-0.1c0.2,0,0.3,0,0.3-0.3l-0.1-1.3c-0.2,0-0.5,0.1-0.5,0.5l-0.1,0l0-0.5l1.8-0.2l0.1,0.5
	l-0.1,0c-0.1-0.4-0.4-0.4-0.6-0.4l0.1,1.3C44.1,29.7,44.1,29.7,44.4,29.8L44.4,29.8z"/>
<path class="st0" d="M45.6,28.9c0.4,0,0.5,0,0.6-0.4c0-0.3-0.1-0.4-0.4-0.4c-0.2,0-0.2,0-0.2,0.1L45.6,28.9z M46.8,29.8l-0.6,0
	L45.6,29l-0.1,0l0,0.5c0,0.2,0.1,0.2,0.3,0.2l0,0.1l-1,0v-0.1c0.2,0,0.3,0,0.3-0.2l0-1.1c0-0.2-0.1-0.2-0.3-0.2l0-0.1l1,0
	c0.2,0,0.8,0,0.8,0.5c0,0.3-0.3,0.4-0.5,0.4l0.6,0.7C46.8,29.7,46.8,29.7,46.8,29.8L46.8,29.8z"/>
<path class="st0" d="M48,29.3l-0.2-0.6l-0.4,0.6L48,29.3z M48.8,30l-1-0.1l0-0.1c0.2,0,0.2,0,0.2-0.1c0-0.1-0.1-0.3-0.1-0.3
	l-0.7-0.1c-0.1,0.2-0.2,0.3-0.2,0.3c0,0.1,0.1,0.1,0.2,0.1l0,0.1l-0.6-0.1l0-0.1c0.2,0,0.2-0.1,0.3-0.3l0.8-1.3l0.1,0l0.5,1.4
	C48.6,29.9,48.7,30,48.8,30L48.8,30z"/>
<path class="st0" d="M50.5,30.4l-1.7-0.3l0-0.1c0.2,0,0.3,0,0.3-0.1l0.2-1.2c0-0.2-0.1-0.2-0.2-0.2l0-0.1l1,0.2l0,0.1
	c-0.2,0-0.3,0-0.3,0.2L49.6,30c0,0.1,0,0.2,0.2,0.2c0.4,0.1,0.6-0.1,0.8-0.3l0.1,0L50.5,30.4z"/>
<path class="st0" d="M51.6,30.6l-1-0.2l0-0.1c0.2,0,0.3,0,0.3-0.1l0.2-1.2c0-0.2-0.1-0.2-0.2-0.2l0-0.1l1,0.2l0,0.1
	c-0.1,0-0.3-0.1-0.3,0.1l-0.2,1.2C51.4,30.5,51.5,30.5,51.6,30.6L51.6,30.6z"/>
<path class="st0" d="M52.9,30.2l-0.2-0.6l-0.3,0.6L52.9,30.2z M53.7,30.9l-1-0.1l0-0.1c0.2,0,0.2,0,0.2-0.1c0-0.1-0.1-0.3-0.1-0.3
	l-0.7-0.1c-0.1,0.2-0.2,0.3-0.2,0.3c0,0.1,0.1,0.1,0.2,0.1l0,0.1l-0.6-0.1l0-0.1c0.2,0,0.2-0.1,0.3-0.3l0.8-1.3l0.1,0l0.5,1.4
	C53.5,30.7,53.6,30.8,53.7,30.9L53.7,30.9z"/>
<path class="st0" d="M45.6,10.9c-0.2,0-0.4,0.1-0.4-0.1c0-0.3,0.2-0.2,0.4-0.2c0.2,0,0.4-0.1,0.4,0.2C46,11,45.8,10.9,45.6,10.9
	 M46.1,10.8c0-0.6-0.3,0-0.5-0.5c-0.1,0.4-0.5,0.1-0.5,0.5c0,0.2,0,0.3,0.1,0.3v0.2c0,0,0,0.1,0.1,0.1h0.6c0,0,0.1,0,0.1-0.1v-0.2
	C46.1,11,46.1,10.9,46.1,10.8"/>
<path class="st0" d="M51.3,18.1c0.2,0,0.3-0.1,0.3-0.2c0-0.1-0.1-0.2-0.3-0.2c-0.2,0-0.3,0.1-0.3,0.2C51,18,51.2,18.1,51.3,18.1"/>
<path class="st0" d="M50,9.3c0,0-0.1,0.2-0.1,0.3c0,0.1,0.1,0.1,0.1,0.1c0.1,0,0.1-0.1,0.1-0.1C50.2,9.5,50,9.3,50,9.3"/>
<path class="st0" d="M41.2,9.3c0,0-0.1,0.2-0.1,0.3c0,0.1,0.1,0.1,0.1,0.1c0.1,0,0.1-0.1,0.1-0.1C41.4,9.5,41.2,9.3,41.2,9.3"/>
<path class="st0" d="M43.4,9.3c0,0-0.1,0.2-0.1,0.3c0,0.1,0.1,0.1,0.1,0.1c0.1,0,0.1-0.1,0.1-0.1C43.6,9.5,43.4,9.3,43.4,9.3"/>
<path class="st0" d="M45.6,9.3c0,0-0.1,0.2-0.1,0.3c0,0.1,0.1,0.1,0.1,0.1c0.1,0,0.1-0.1,0.1-0.1C45.8,9.5,45.6,9.3,45.6,9.3"/>
<path class="st0" d="M47.8,9.3c0,0-0.1,0.2-0.1,0.3c0,0.1,0.1,0.1,0.1,0.1c0.1,0,0.1-0.1,0.1-0.1C48,9.5,47.8,9.3,47.8,9.3"/>
<path class="st0" d="M41.2,12.3c0,0,0.1,0.2,0.1,0.3c0,0.1-0.1,0.1-0.1,0.1c-0.1,0-0.1-0.1-0.1-0.1C41.1,12.5,41.2,12.3,41.2,12.3"
	/>
<path class="st0" d="M41.2,15.2c0,0,0.1,0.2,0.1,0.3c0,0.1-0.1,0.1-0.1,0.1c-0.1,0-0.1-0.1-0.1-0.1C41.1,15.5,41.2,15.2,41.2,15.2"
	/>
<path class="st0" d="M41.6,17.5c0,0,0.1,0.2,0.1,0.3c0,0.1-0.1,0.1-0.1,0.1c-0.1,0-0.1-0.1-0.1-0.1C41.5,17.8,41.6,17.5,41.6,17.5"
	/>
<path class="st0" d="M43.4,18.8c0,0,0.1,0.2,0.1,0.3c0,0.1-0.1,0.1-0.1,0.1c-0.1,0-0.1-0.1-0.1-0.1C43.3,19,43.4,18.8,43.4,18.8"/>
<path class="st0" d="M50.1,12.3c0,0-0.1,0.2-0.1,0.3c0,0.1,0.1,0.1,0.1,0.1s0.1-0.1,0.1-0.1C50.3,12.5,50.1,12.3,50.1,12.3"/>
<path class="st0" d="M50.1,15.2c0,0-0.1,0.2-0.1,0.3c0,0.1,0.1,0.1,0.1,0.1s0.1-0.1,0.1-0.1C50.3,15.5,50.1,15.2,50.1,15.2"/>
<path class="st0" d="M49.8,17.5c0,0-0.1,0.2-0.1,0.3c0,0.1,0.1,0.1,0.1,0.1c0.1,0,0.1-0.1,0.1-0.1C49.9,17.8,49.8,17.5,49.8,17.5"/>
<path class="st0" d="M47.9,18.8c0,0-0.1,0.2-0.1,0.3c0,0.1,0.1,0.1,0.1,0.1c0.1,0,0.1-0.1,0.1-0.1C48.1,19,47.9,18.8,47.9,18.8"/>
<path class="st0" d="M45.7,20.1c0,0-0.1,0.2-0.1,0.3c0,0.1,0.1,0.1,0.1,0.1c0.1,0,0.1-0.1,0.1-0.1C45.8,20.3,45.7,20.1,45.7,20.1"/>
<path class="st0" d="M49.3,15.7c0,0,0.1,0.1,0.2,0l0.1-0.2c0,0-0.1-0.1-0.2-0.1c-0.2,0.1-0.5,0.1-0.6,0.3c0,0.2,0.1,0.3,0.2,0.4
	c0.1,0,0.1,0.1,0.2,0.1c0,0.1,0,0.1-0.1,0.1c-0.2-0.2-0.5,0.1-0.6-0.2c0.1-0.2,0.2-0.4,0-0.6c0,0,0.1-0.1,0-0.1
	c-0.1-0.2-0.3,0-0.4,0c-0.2,0-0.4,0.1-0.5,0.3c0,0.1,0,0.1,0.1,0.2c0.1,0,0.1,0,0.1,0.1l-0.1,0.1c0,0,0,0.1,0.1,0.2
	c-0.1,0-0.2-0.1-0.2-0.2c0-0.1,0-0.3-0.1-0.3c0,0-0.1,0-0.1,0c0,0-0.1,0.1-0.1,0.2c0,0.1,0.1,0.2,0.1,0.2s0.4,0.3,0.5,0.5
	c-0.1,0.3-0.1,0.6-0.4,0.7c-0.1,0.1-0.1,0.1-0.1,0.2l0.1,0.1c0.2-0.1,0.5-0.1,0.5-0.4c0.1-0.1,0.1-0.3,0.3-0.4c0.1,0,0.3,0,0.3,0.2
	c0,0.2-0.2,0.3-0.4,0.4c0,0,0,0.1,0,0.1c0.1,0.1,0.2,0.1,0.3,0c0.2-0.2,0.3-0.4,0.5-0.5c0,0.1-0.3,0.2-0.1,0.3c0.1,0,0.3,0,0.4-0.2
	c-0.1-0.2,0.3-0.3,0.1-0.6c0-0.2,0.2-0.3,0.2-0.5c-0.1-0.2-0.3-0.2-0.4-0.4C49.1,15.7,49.2,15.7,49.3,15.7"/>
<path class="st0" d="M39.2,18.3c0.2,0,0.3-0.1,0.3-0.2c0-0.1-0.1-0.2-0.3-0.2c-0.2,0-0.3,0.1-0.3,0.2C38.9,18.1,39,18.3,39.2,18.3"
	/>
<path class="st0" d="M24.9,26.6c0.1,0,0.3-0.1,0.3-0.3c0-0.1-0.1-0.3-0.3-0.3c-0.1,0-0.3,0.1-0.3,0.3C24.7,26.5,24.8,26.6,24.9,26.6
	"/>
<path class="st0" d="M34,28.6C34,28.6,34,28.6,34,28.6C34,28.6,34,28.6,34,28.6C34,28.6,34,28.6,34,28.6L34,28.6z M34,28.6L34,28.6
	L34,28.6L34,28.6L34,28.6C34,28.6,34,28.6,34,28.6L34,28.6L34,28.6L34,28.6C33.9,28.6,33.9,28.6,34,28.6L34,28.6
	C33.9,28.6,33.9,28.6,34,28.6L34,28.6L34,28.6C34,28.5,34,28.5,34,28.6C34,28.6,34,28.6,34,28.6L34,28.6C34,28.6,34,28.6,34,28.6
	L34,28.6z"/>
<path class="st0" d="M34,28.6C34,28.6,34,28.5,34,28.6C34,28.5,34,28.6,34,28.6C34,28.6,34,28.6,34,28.6L34,28.6
	C34,28.6,34,28.6,34,28.6C34,28.6,34,28.6,34,28.6C34,28.6,34,28.6,34,28.6C34,28.6,34,28.6,34,28.6L34,28.6L34,28.6L34,28.6
	C34,28.6,34,28.6,34,28.6C34,28.6,34,28.6,34,28.6C34,28.6,34,28.6,34,28.6L34,28.6C34,28.6,34,28.6,34,28.6
	C34,28.6,34,28.5,34,28.6C34,28.5,34,28.5,34,28.6C34,28.5,34,28.5,34,28.6L34,28.6L34,28.6L34,28.6z"/>
<path class="st0" d="M34.1,28.5C34.1,28.6,34.1,28.6,34.1,28.5L34.1,28.5L34.1,28.5L34.1,28.5L34.1,28.5L34.1,28.5L34.1,28.5
	C34,28.6,34,28.6,34.1,28.5L34.1,28.5L34.1,28.5L34.1,28.5C34.1,28.6,34.1,28.6,34.1,28.5C34.1,28.6,34.1,28.6,34.1,28.5L34.1,28.5
	L34.1,28.5L34.1,28.5L34.1,28.5C34.1,28.6,34.1,28.6,34.1,28.5L34.1,28.5L34.1,28.5L34.1,28.5C34.1,28.6,34.1,28.6,34.1,28.5
	C34.1,28.6,34.1,28.6,34.1,28.5L34.1,28.5L34.1,28.5C34.1,28.6,34.1,28.6,34.1,28.5C34.1,28.6,34.1,28.6,34.1,28.5L34.1,28.5
	L34.1,28.5L34.1,28.5z"/>
<path class="st0" d="M34.1,28.6C34.1,28.6,34.1,28.6,34.1,28.6C34.1,28.6,34.2,28.6,34.1,28.6C34.2,28.6,34.1,28.5,34.1,28.6
	C34.1,28.5,34.1,28.6,34.1,28.6C34.1,28.6,34.1,28.6,34.1,28.6 M34.1,28.6C34.1,28.6,34.1,28.6,34.1,28.6
	C34.1,28.6,34.1,28.6,34.1,28.6L34.1,28.6C34.1,28.6,34.1,28.6,34.1,28.6C34.1,28.6,34.1,28.5,34.1,28.6
	C34.2,28.5,34.2,28.6,34.1,28.6C34.2,28.6,34.2,28.6,34.1,28.6L34.1,28.6z"/>
<path class="st0" d="M34.2,28.6C34.2,28.6,34.2,28.6,34.2,28.6C34.2,28.6,34.2,28.6,34.2,28.6C34.2,28.6,34.2,28.6,34.2,28.6
	C34.2,28.6,34.2,28.6,34.2,28.6C34.2,28.6,34.2,28.6,34.2,28.6C34.2,28.6,34.2,28.6,34.2,28.6C34.2,28.6,34.2,28.6,34.2,28.6
	C34.2,28.6,34.2,28.6,34.2,28.6C34.2,28.6,34.2,28.6,34.2,28.6L34.2,28.6L34.2,28.6L34.2,28.6L34.2,28.6L34.2,28.6z"/>
<path class="st0" d="M50.5,16.8c-0.1,0.6-0.3,1.1-0.7,1.4L46,20.6h0c-0.1,0.1-0.2,0.1-0.3,0.1c-0.1,0-0.2,0-0.3-0.1l-3.8-2.4
	c-0.4-0.3-0.6-0.8-0.7-1.4V9.2h9.6V16.8z M50.8,8.9L50.8,8.9l-10.1,0v0h0l0,7.8c0,0.8,0.3,1.5,0.8,1.7l3.9,2.5
	c0.1,0.1,0.2,0.2,0.4,0.2c0.1,0,0.2,0,0.3-0.1l4-2.5c0.5-0.2,0.8-0.9,0.8-1.7L50.8,8.9L50.8,8.9z"/>
<path class="st0" d="M47,20.2l0.1-0.1C47.1,20.2,47.1,20.2,47,20.2"/>
<path class="st0" d="M38.4,30.3l-0.4-0.6l-0.2,0.6L38.4,30.3z M39.4,30.8l-1,0.1l0-0.1c0.2,0,0.2,0,0.2-0.1c0-0.1-0.1-0.2-0.2-0.3
	l-0.7,0.1c-0.1,0.2-0.1,0.3-0.1,0.3c0,0.1,0.2,0.1,0.3,0.1l0,0.1l-0.6,0.1l0-0.1c0.2,0,0.2-0.1,0.3-0.3l0.5-1.4l0.1,0l0.8,1.2
	C39.2,30.7,39.3,30.8,39.4,30.8L39.4,30.8z"/>
<path class="st0" d="M55.8,27.7c-0.1,0.3-0.3,0.5-0.6,0.5c0-0.4,0.3-0.6,0.2-1c-0.2-0.3-0.6-0.4-0.9-0.3c-0.1,0.1-0.1,0.2-0.1,0.4
	l-0.1,0.5c-0.3,0-0.3-0.3-0.4-0.5c0-0.3,0.1-0.6,0.4-0.8c0.2-0.1,0.6-0.1,0.8,0c0.2,0,0.4,0.1,0.5,0.3
	C55.9,27.1,55.9,27.5,55.8,27.7 M54.6,27.9c0.2-0.2,0-1.1,0.4-0.5c0,0.1,0,0.3-0.1,0.4C54.9,27.8,54.8,28,54.6,27.9 M54.8,28.3
	c0,0.2-0.2,0.2-0.3,0.3h-0.3c-0.1-0.1,0-0.3,0-0.4C54.3,28.2,54.6,28.2,54.8,28.3 M55.2,30c-0.1,0.1,0,0.4-0.2,0.5
	c0,0.3-0.2,0.4-0.4,0.5c-1.7,0.4-3.4-0.2-5.1-0.5c-2.3-0.5-5.1-0.7-7.5-0.1c-1.1,0.2-2.2,0.5-3.3,0.8c-0.7,0.1-1.4,0.2-2,0
	c-0.5-0.3-0.3-0.9-0.5-1.4c0-0.4-0.1-0.7-0.1-1c0-0.1-0.1-0.3-0.1-0.4c0.2,0,0.4,0.2,0.7,0.3c1.2,0.2,2.3-0.2,3.4-0.4
	c1.1-0.2,2.2-0.4,3.4-0.5c1.3,0,2.6-0.1,3.9,0.1c0.4,0,0.8,0.1,1.2,0.1c0.8,0.1,1.6,0.3,2.4,0.4c0.1,0,0.3,0,0.4,0.1
	c1.3,0.2,2.8,0.6,4,0C55.5,29.1,55.3,29.5,55.2,30 M47.8,31.1c0.1,0.2,0.2,0.4,0.1,0.6c-0.1,0.3-0.4,0.3-0.7,0.3
	c-0.1,0-0.2,0-0.3-0.1c0-0.1,0-0.1-0.1-0.1c0-0.2-0.3-0.4-0.1-0.5C47,31.1,47.6,30.6,47.8,31.1 M48.1,31.2c0.2,0,0.2,0.2,0.2,0.4
	c0,0.3-0.2,0.6-0.5,0.7c-0.2,0.1-0.4,0.1-0.6,0.1c0.3,0,0.7-0.1,0.9-0.5L48.1,31.2z M48.5,33.1C48.5,33.1,48.5,33.2,48.5,33.1
	c-0.5,0.1-0.7-0.2-1-0.4l0-0.1C47.8,32.7,48.2,32.9,48.5,33.1 M48,34.5c0,0-0.1,0-0.1,0c-0.4-0.6-0.6-1.1-0.9-1.8l0.1,0
	C47.3,33.3,47.6,33.9,48,34.5 M47.2,34.1L47.2,34.1c-0.1,0-0.1-0.2-0.1-0.3C47.2,33.9,47.3,34,47.2,34.1 M46.8,33.2
	c0,0.1,0.2,0.2,0.1,0.3C46.9,33.5,46.8,33.4,46.8,33.2 M46.7,32.3L46.7,32.3L46.7,32.3L46.7,32.3L46.7,32.3z M45.9,34.4
	c-0.3,0-0.7,0.2-1-0.1c0-0.1-0.1-0.2-0.1-0.3c0.2-0.1,0.4,0.2,0.7,0c0.3,0,0.7,0,1,0c0.2,0,0.4-0.3,0.4,0
	C46.8,34.6,46.3,34.3,45.9,34.4 M45.3,32.7l0.1-0.1c-0.1,0.4-0.3,0.7-0.5,1.1C44.8,33.3,45.1,33,45.3,32.7 M45.7,32.4
	c0.2-0.2,0.4,0.1,0.4,0.3c0.2,0.3,0.8,0.6,0.6,1.1c-0.3,0.3-0.7,0-1,0.2c-0.2,0-0.4,0-0.5-0.1C45.3,33.3,45.4,32.8,45.7,32.4
	 M45.6,31.9L45.6,31.9L45.6,31.9C45.7,31.8,45.6,31.8,45.6,31.9 M46,31.9c0.1-0.1,0.1-0.2,0.2-0.2c0,0,0,0,0,0
	C46.1,31.8,46.1,31.9,46,31.9 M46.2,32.1c0,0,0.1,0,0.1,0H46.2z M46.6,32.6c0,0,0,0.1,0,0.1l-0.3-0.3C46.4,32.4,46.5,32.4,46.6,32.6
	 M46.5,31.7L46.5,31.7L46.5,31.7L46.5,31.7L46.5,31.7z M47.1,30.8c-0.2,0.1-0.3,0.3-0.5,0.3C46.7,30.9,47,30.7,47.1,30.8 M46.4,30.6
	c0-0.1,0.1,0,0.2-0.1l0.5,0C46.8,30.5,46.5,31,46.4,30.6 M45.4,31c0.1-0.2,0.1-0.4,0.2-0.5c0.1,0,0.3,0,0.4,0.1c0,0.3,0.4,0.7,0,0.9
	c-0.1,0.1-0.3,0.2-0.5,0.1C45.3,31.3,45.3,31.2,45.4,31 M45.1,31.9c0-0.1,0-0.1,0-0.2c0.1-0.1,0.1,0.1,0.2,0.1
	C45.3,31.9,45.2,31.9,45.1,31.9 M45.1,31.2L45.1,31.2l0-0.2h0V31.2z M44.9,30.8c-0.2,0-0.3-0.3-0.5-0.3c0.2-0.1,0.3,0,0.6,0
	C45.1,30.6,45,30.7,44.9,30.8 M44.8,32c0-0.2,0.1-0.4,0.2-0.6C45,31.5,44.9,31.8,44.8,32 M44.5,32c-0.2,0-0.5-0.1-0.7-0.2
	c-0.1-0.1,0-0.3,0-0.5c0.2-0.3,0.8-0.5,1.1-0.2C44.8,31.4,44.7,31.7,44.5,32 M44.6,32.3L44.6,32.3L44.6,32.3L44.6,32.3L44.6,32.3
	L44.6,32.3C44.6,32.3,44.6,32.3,44.6,32.3L44.6,32.3z M44.2,33.2c-0.2,0.5-0.4,0.9-0.7,1.4c0,0.1-0.1,0.1-0.2,0.1
	c0-0.2,0.2-0.4,0.3-0.5c0.3-0.4,0.4-0.8,0.7-1.2C44.4,33,44.2,33.1,44.2,33.2 M42.8,33.1c0.3-0.1,0.7-0.5,1.1-0.3
	C43.7,33,43.2,33,42.8,33.1 M43.4,32c-0.1-0.5,0.1-1,0.5-1.3c0.2,0,0.4-0.1,0.6,0c-0.4,0.1-0.9,0.2-0.9,0.7c0,0.2,0,0.3,0,0.5
	c0.2,0.3,0.5,0.2,0.7,0.4c0,0.1-0.1,0.2-0.1,0.2C43.9,32.3,43.6,32.2,43.4,32 M36.5,27.3c0-0.1,0-0.3,0.2-0.3c0.1,0,0.3,0,0.3,0.1
	c0,0.2,0,0.4-0.1,0.5C36.7,27.6,36.6,27.5,36.5,27.3 M36.6,27.8c0.2,0.2,0.5,0.1,0.8,0.1c0,0.2,0,0.4-0.1,0.5
	c-0.2-0.1-0.6,0-0.7-0.3C36.6,28.1,36.6,27.9,36.6,27.8 M35.9,27.4c0-0.3,0.1-0.5,0.3-0.7c0.3-0.2,0.8-0.1,1.2,0
	c0.1,0.1,0.2,0.1,0.2,0.3c0.1,0.2,0,0.5-0.2,0.7h-0.1c0-0.2,0-0.5,0.1-0.7c0-0.2-0.2-0.2-0.3-0.3c-0.2-0.1-0.5,0-0.7,0.1
	c-0.1,0.2-0.3,0.4-0.2,0.6c0.1,0.2,0,0.4,0.1,0.6l0,0.1C36.1,28,35.9,27.7,35.9,27.4 M49.6,33.6c0.3,0.2,1,0.3,1.6,0.4
	c0,0.2-0.4,0-0.4,0.3c-0.5-0.2-1-0.3-1.3-0.6C49.5,33.7,49.5,33.6,49.6,33.6 M40.5,33.9l-0.2-0.2c0.1-0.1,0.3-0.1,0.5-0.1
	c0.4-0.1,0.8-0.3,1.2-0.2C41.6,33.7,41,33.8,40.5,33.9 M56.2,27.2c-0.2-0.5-0.5-0.8-1-0.9c-0.5-0.1-1,0-1.3,0.3
	c-0.5,0.4-0.2,1.1-0.1,1.7c0,0.1,0,0.2-0.1,0.3c-2.1-0.2-4.1-0.7-6.2-0.9c-0.5-0.1-1-0.1-1.4-0.2l-0.6-0.1c-1.8,0.1-3.6,0.2-5.3,0.6
	c-0.4,0.1-0.8,0.1-1.1,0.3c-0.3,0-0.5,0.1-0.7,0.1l-0.5,0.1c0,0-0.1,0-0.2,0c-0.2-0.6,0.5-1,0.2-1.6c-0.2-0.3-0.6-0.7-1-0.6
	c-0.5-0.1-0.9,0.2-1.2,0.6c-0.3,0.7,0.1,1.5,0.2,2.2c0,0.2,0.2,0.5,0,0.7c-0.5-0.3-1.1-0.5-1.6-0.3c-0.2,0.1-0.5,0-0.6,0.2
	c0.6,0.3,1.4,0.3,2.1,0.3c0.1,0,0.1,0,0.2,0c0.1,0.4-0.1,0.9,0.2,1.2c0.3,0.4,0.7,0.4,1.1,0.5c1.3,0,2.5-0.4,3.8-0.7
	c0.2,0,0.3-0.1,0.5-0.1c0.7-0.1,1.4-0.3,2.1-0.3c-0.3,0.4-0.5,0.8-0.6,1.3c-0.2,0.4,0.3,0.5,0.5,0.7c-0.5,0.1-0.8,0.4-1.2,0.6
	c-0.9,0-1.7,0.3-2.6,0.4c0,0.2,0.3,0.1,0.3,0.3c0,0.1-0.2,0.1-0.3,0.2c0,0.1,0,0.1,0.1,0.1c0.1-0.1,0.3,0,0.4-0.1
	c0.3,0,0.5-0.1,0.8-0.1c0.2-0.1,0.5-0.1,0.7-0.3c0.3-0.1,0.5-0.3,0.8-0.4c0.4,0,0.8-0.1,1.2-0.2v0.1c-0.3,0.5-0.7,1.1-1,1.6
	c-0.1,0.1,0,0.2,0.1,0.2c0.2,0.1,0.4,0,0.6-0.1c0.3-0.5,0.6-1,0.8-1.6c0.1-0.5,0.5-0.8,0.8-1.1c0.1,0,0.1-0.1,0.2,0
	c-0.3,0.3-0.5,0.7-0.7,1c-0.1,0.4-0.1,0.9,0.2,1.3c0.2,0.1,0.4,0.1,0.7,0.1c0.6-0.3,1.3,0.2,1.7-0.4c0.3,0,0.3,0.3,0.5,0.4
	c0.2,0.1,0.5,0.3,0.8,0.1c0-0.2-0.2-0.3-0.3-0.5c-0.2-0.3-0.4-0.6-0.6-0.8c-0.1-0.2-0.2-0.3-0.2-0.5c0.3,0.1,0.5,0.3,0.8,0.3
	c0.2,0.1,0.6,0.1,0.8,0.2c0.2,0.2,0.5,0.4,0.7,0.6c0.4,0.2,0.8,0.2,1.2,0.4c0.1,0,0.4,0.1,0.5,0c-0.1-0.1-0.1-0.1-0.2-0.2
	c0-0.2,0.3-0.1,0.4-0.2c0-0.1-0.1-0.1-0.2-0.1c-0.2-0.1-0.7-0.1-0.9-0.2c-0.2,0-0.3-0.1-0.5-0.2c-0.9,0-1.4-0.8-2.1-1.1
	c0.2-0.1,0.4-0.3,0.5-0.5c0.1-0.2,0.2-0.5,0-0.8c-0.1-0.5-0.7-0.4-1-0.6l0,0c0.6,0,1.1,0.1,1.6,0.2c1.4,0.2,2.7,0.7,4.1,0.7
	c0.8,0,1.8,0,2.2-0.7c0.1-0.5,0.2-0.9,0.2-1.4C55.8,28.7,56.3,28,56.2,27.2"/>
<rect x="103.4" y="0.4" class="st0" width="0.6" height="45.8"/>
<path class="st0" d="M220,3.4c-0.3,0.2-0.2,0.5,0,0.6c0.2,0.1,0.6-0.1,0.6-0.3C220.6,3.4,220.3,3.2,220,3.4 M218.1,0
	c1,1.1,0.5,3,0.7,3.1c0.4,0.1,1.4-0.1,2.1,0.1c0.7,0.1,2.3,0,2.4,0.6c0.3,0.9-3,1.1-3.4,1.8c-0.8,1.2-0.6,3.4-0.5,3.6
	c2,0,3.2-1.6,4.8-0.7c-0.2,0.1-0.3,0-0.5,0.2c0.2,0.1,0.4,0.3,0.6,0.4c-0.2,0-0.6-0.1-0.6-0.1c0,0.2,0.5,0.3,0.5,0.5
	c-2.1-0.6-2.6-0.3-4.4,0.3c-0.7,11.4-2.9,12.6-3.2,16.3c-0.1,1.5-0.1,3.4-0.1,6c0,2.2,0.6,5.6,1.4,10c0.2,1.4,0.5,2.2,0.5,3.1
	c0,0.6,0,1.9-0.4,2.3c0,0-1,0.4-1.4-0.4c-0.2-1.5-0.3-2.1-0.7-4.6c-0.5-3.7-0.7-5.2-1.3-7.8c-0.1-0.5-0.2-6.7,0-8.3
	c-1.1,0-1.8-0.4-2.4,0.4c-0.3,0.6-0.5,3.6-0.2,6.4c0.2,1.8,0.5,3.3,1,5.7c0.3,1.5,0.6,3.3,0.6,5.4c0,1.6-0.9,1.3-1.1,1.2
	c-0.7-0.4-0.8-2.9-1.5-6.8c-0.7-3.8-1.3-6.9-1-12.5c-1.5-0.3-7.4-0.4-12.4-1c-1.9-0.2-3.4-0.3-4.9-0.6c-2.1-0.4-3.6-1.1-3.9-1.7
	c0.2-0.8,2.4,0.1,5,0.4c4.9,0.5,11.5,2,15-0.1c2.9-1.7,3.3-4.5,4.8-7.7c1.5-3.1,2.7-6.5,3.4-8.7c0.4-1.2,0.5-2.7,0.9-3.6
	c-0.1-0.5-0.2-0.7-0.2-1.3C217.7,1.2,217.9,0.3,218.1,0"/>
<path class="st0" d="M206,6.8c-2.4-0.2-4.6,2-4.4,4.5c0.1,3.2,4.1,5.5,7,2.9C211.9,11,208.9,6.4,206,6.8 M206,5.2
	c4,0.3,5.4,3.7,5.6,5.1c-0.1,3.8-2.3,6.1-6.2,6.4c-3.9,0-5.8-3.8-5.9-5.5C199.5,8.5,201.8,5.4,206,5.2"/>
<path class="st0" d="M116.5,35.8c0-1.7,1-2.9,3.2-2.9c0.5,0,0.9,0.1,1.4,0.1v2c-0.3,0-0.6-0.1-1-0.1c-0.7,0-1,0.3-1,1.1v0.6h1.8v1.8
	h-1.8V46h-2.6V35.8z"/>
<path class="st0" d="M126,44.3c1.8,0,2.3-1.5,2.3-3c0-1.5-0.5-3.1-2.3-3.1c-1.8,0-2.3,1.5-2.3,3.1C123.7,42.8,124.2,44.3,126,44.3
	 M126,36.3c3,0,4.9,2,4.9,5c0,3-1.9,5-4.9,5c-3,0-4.9-2-4.9-5C121.1,38.2,123,36.3,126,36.3"/>
<path class="st0" d="M132,36.5h2.5v1.8h0c0.5-1.2,1.8-2,3-2c0.2,0,0.4,0,0.6,0.1v2.4c-0.2-0.1-0.6-0.1-0.9-0.1
	c-1.9,0-2.6,1.4-2.6,3.1V46H132V36.5z"/>
<path class="st0" d="M144.1,36.5h1.9v1.8h-1.9V43c0,0.9,0.2,1.1,1.1,1.1c0.3,0,0.5,0,0.8-0.1v2c-0.4,0.1-1,0.1-1.5,0.1
	c-1.6,0-3-0.4-3-2.3v-5.6v-1.8v-2.9h2.6V36.5z"/>
<path class="st0" d="M147.3,32.9h2.6v5h0.1c0.7-1.1,1.8-1.6,2.8-1.6c2.8,0,3.5,1.6,3.5,3.9V46h-2.6v-5.4c0-1.6-0.5-2.3-1.7-2.3
	c-1.4,0-2,0.8-2,2.7v5h-2.6V32.9z"/>
<path class="st0" d="M163.9,40.3c-0.2-1.3-0.8-2-2.1-2c-1.7,0-2.1,1.3-2.2,2H163.9z M159.6,41.9c0.1,1.7,0.9,2.4,2.3,2.4
	c1,0,1.9-0.6,2.1-1.2h2.3c-0.7,2.2-2.3,3.2-4.5,3.2c-3,0-4.9-2.1-4.9-5c0-2.9,2-5,4.9-5c3.2,0,4.8,2.7,4.6,5.7H159.6z"/>
<path class="st0" d="M182.3,36.5h2.5v1.8h0c0.5-1.2,1.8-2,3-2c0.2,0,0.4,0,0.6,0.1v2.4c-0.2-0.1-0.6-0.1-0.9-0.1
	c-1.9,0-2.6,1.4-2.6,3.1V46h-2.6V36.5z"/>
<path class="st0" d="M191.9,36.5h1.9v1.8h-1.9V43c0,0.9,0.2,1.1,1.1,1.1c0.3,0,0.5,0,0.8-0.1v2c-0.4,0.1-1,0.1-1.5,0.1
	c-1.6,0-3-0.4-3-2.3v-5.6v-1.8v-2.9h2.6V36.5z"/>
<path class="st0" d="M196.7,42.9c0,1.1,1,1.6,2,1.6c0.8,0,1.7-0.3,1.7-1.2c0-0.8-1.1-1.1-3-1.5c-1.5-0.3-3-0.9-3-2.5
	c0-2.4,2.1-3.1,4.1-3.1c2.1,0,4,0.7,4.2,3h-2.5c-0.1-1-0.8-1.3-1.8-1.3c-0.6,0-1.5,0.1-1.5,0.9c0,0.9,1.5,1.1,3,1.4
	c1.5,0.3,3,0.9,3,2.7c0,2.5-2.2,3.3-4.3,3.3c-2.2,0-4.4-0.8-4.5-3.4H196.7z"/>
<polygon class="st0" points="176.9,32.8 173.9,32.8 168.9,46 171.9,46 175.4,36.1 175.4,36.1 177.1,40.9 173.6,40.9 172.9,43.1 
	177.8,43.1 178.8,46 181.9,46 "/>
<path class="st0" d="M124.6,22.2c-0.4-1.4-1.3-2.4-3.1-2.4c-2.6,0-3.7,2.3-3.7,4.7c0,2.4,1.1,4.7,3.7,4.7c1.9,0,3-1.4,3.1-3.2h2.1
	c-0.2,2.9-2.3,5-5.2,5c-3.7,0-5.9-2.9-5.9-6.4c0-3.5,2.2-6.4,5.9-6.4c2.8,0,4.9,1.5,5.2,4.2H124.6z"/>
<path class="st0" d="M134.3,26.1c0-1.5-0.8-3.1-2.5-3.1c-1.8,0-2.5,1.6-2.5,3.1c0,1.5,0.8,3.1,2.5,3.1
	C133.5,29.2,134.3,27.6,134.3,26.1 M127.3,26.1c0-2.7,1.6-4.7,4.5-4.7c2.9,0,4.5,2,4.5,4.7c0,2.7-1.6,4.7-4.5,4.7
	C128.9,30.8,127.3,28.8,127.3,26.1"/>
<path class="st0" d="M144.9,30.5H143v-1.2h0c-0.5,0.9-1.5,1.5-2.5,1.5c-2.3,0-3.3-1.2-3.3-3.5v-5.6h2v5.4c0,1.6,0.6,2.1,1.7,2.1
	c1.6,0,2.2-1,2.2-2.4v-5.2h2V30.5z"/>
<path class="st0" d="M146.4,21.6h1.9v1.3l0,0c0.6-1,1.6-1.6,2.8-1.6c1.9,0,3.1,1,3.1,3v6.1h-2v-5.6c0-1.4-0.6-2-1.7-2
	c-1.3,0-2.1,1-2.1,2.3v5.2h-2V21.6z"/>
<path class="st0" d="M161.7,24.6c-0.2-1.1-0.9-1.7-2-1.7c-1,0-2.4,0.5-2.4,3.2c0,1.5,0.7,3,2.4,3c1.1,0,1.9-0.8,2.1-2h2
	c-0.4,2.3-1.8,3.6-4.1,3.6c-2.8,0-4.3-2-4.3-4.6c0-2.7,1.5-4.8,4.4-4.8c2.1,0,3.8,1,4,3.2H161.7z"/>
<path class="st0" d="M164.8,21.6h2v8.9h-2V21.6z M164.8,18.2h2v1.9h-2V18.2z"/>
<rect x="168.6" y="18.2" class="st0" width="2" height="12.3"/>
<path class="st0" d="M119.9,11.3h3.7l-1.8-5.3h0h0L119.9,11.3z M120.6,4h2.3l4.7,12.3h-2.3l-1.1-3.2h-4.9l-1.2,3.2h-2.2L120.6,4z"/>
<path class="st0" d="M135.9,16.2H134V15h0c-0.5,0.9-1.5,1.5-2.5,1.5c-2.3,0-3.3-1.2-3.3-3.5V7.3h2v5.4c0,1.6,0.6,2.1,1.7,2.1
	c1.6,0,2.2-1,2.2-2.4V7.3h2V16.2z"/>
<path class="st0" d="M138.9,13.4c0.1,1.1,1,1.5,2,1.5c0.7,0,2-0.2,2-1.2c-0.1-1-1.5-1.2-2.9-1.5c-1.4-0.3-2.9-0.8-2.9-2.6
	c0-1.9,2.1-2.5,3.7-2.5c1.8,0,3.5,0.8,3.7,2.7h-2c-0.2-0.9-0.9-1.2-1.8-1.2c-0.6,0-1.6,0.1-1.6,0.9c0,1,1.4,1.1,2.9,1.4
	c1.4,0.3,2.9,0.8,2.9,2.6c0,2.1-2.1,2.9-4,2.9c-2.2,0-3.9-1-3.9-3.1H138.9z"/>
<path class="st0" d="M145.9,7.3V4.7h2v2.7h1.8v1.5h-1.8v4.7c0,0.8,0.1,1.2,0.9,1.2c0.3,0,0.6,0,0.8-0.1v1.5c-0.4,0-0.8,0.1-1.3,0.1
	c-2,0-2.4-0.8-2.5-2.3V8.8V7.3z"/>
<path class="st0" d="M150.9,7.3h1.8v1.7h0c0.2-0.9,1.4-2,2.6-2c0.4,0,0.6,0,0.7,0.1V9c-0.3,0-0.6-0.1-0.8-0.1c-1.3,0-2.4,1.1-2.4,3
	v4.2h-2V7.3z"/>
<rect x="165.6" y="4" class="st0" width="2" height="12.3"/>
<path class="st0" d="M169.4,7.3h2v8.9h-2V7.3z M169.4,4h2v1.9h-2V4z"/>
<path class="st0" d="M162.1,13.2c0,1.2-1.3,1.7-2.2,1.7c-0.7,0-1.8-0.3-1.8-1.1c0-1,0.8-1.3,1.6-1.5c0.9-0.2,1.8-0.1,2.4-0.5V13.2z
	 M162.3,16.2h1.8V9.5c-0.1-1.8-1.9-2.4-3.5-2.4c-2,0-3.9,0.7-4,3h2c0.1-1,0.9-1.4,2-1.4c0.8,0,1.8,0.2,1.8,1.2c0,1.2-1.3,1-2.7,1.3
	c-1.6,0.2-3.4,0.6-3.4,2.8c0,1.7,1.4,2.6,3,2.6c1,0,2.3-0.3,3.1-1.1C162.3,15.8,162.3,16.1,162.3,16.2"/>
<path class="st0" d="M178.5,13.2c0,1.2-1.3,1.7-2.2,1.7c-0.7,0-1.8-0.3-1.8-1.1c0-1,0.8-1.3,1.6-1.5c0.9-0.2,1.8-0.1,2.4-0.5V13.2z
	 M178.6,16.2h1.8V9.5c-0.1-1.8-1.9-2.4-3.5-2.4c-2,0-3.9,0.7-4,3h2c0.1-1,0.9-1.4,2-1.4c0.8,0,1.8,0.2,1.8,1.2c0,1.2-1.3,1-2.7,1.3
	c-1.6,0.2-3.4,0.6-3.4,2.8c0,1.7,1.4,2.6,3,2.6c1,0,2.3-0.3,3.1-1.1C178.6,15.8,178.6,16.1,178.6,16.2"/>
</svg>
