<?xml version="1.0" encoding="utf-8"?>
<!-- Generator: Adobe Illustrator 21.1.0, SVG Export Plug-In . SVG Version: 6.00 Build 0)  -->
<svg version="1.1" id="Слой_1" xmlns="http://www.w3.org/2000/svg" xmlns:xlink="http://www.w3.org/1999/xlink" x="0px" y="0px"
	 viewBox="0 0 92.3 66.1" style="enable-background:new 0 0 92.3 66.1;" xml:space="preserve">
<style type="text/css">
	.st0{fill:#FFFFFF;}
</style>
<path class="st0" d="M57.3,33.3c-0.9,1.2-1.9,2.3-3,3.3c-1.1,1.1-2.2,1.9-3.1,2.5c-0.7,0.5-1.5,0.9-2.3,1.1
	c-0.8,0.3-1.5,0.4-2.1,0.4c-0.2,0-0.5,0-0.8-0.1c-0.3,0-0.6-0.1-0.8-0.3c-0.2-0.1-0.4-0.3-0.6-0.6c-0.2-0.2-0.2-0.6-0.2-1
	c0-0.5,0.2-1.2,0.6-2c0.4-0.8,0.8-1.7,1.3-2.6c0.5-0.9,1-1.8,1.5-2.6c0.5-0.8,0.9-1.4,1.2-1.9c0.2-0.3,0.5-0.6,1-0.8
	c0.5-0.2,0.8-0.3,0.9-0.3c0.2,0,0.3,0.1,0.3,0.2c0,0.1,0,0.2-0.1,0.3c-0.1,0.1-0.1,0.3-0.2,0.3c-0.5,0.8-1,1.6-1.5,2.5
	c-0.5,0.9-0.9,1.8-1.3,2.6c-0.4,0.8-0.7,1.6-1,2.3c-0.2,0.7-0.4,1.3-0.4,1.7c0,0.4,0.1,0.8,0.4,1c0.2,0.2,0.6,0.3,1,0.3
	c0.7,0,1.5-0.3,2.4-0.8c0.9-0.5,1.8-1.1,2.6-1.8c0.9-0.7,1.7-1.5,2.4-2.3c0.7-0.8,1.3-1.5,1.7-2c0.2-0.2,0.3-0.2,0.3-0.1
	C57.4,32.9,57.3,33.1,57.3,33.3"/>
<path class="st0" d="M71.7,33.3c-0.7,0.9-1.4,1.8-2.3,2.8c-0.9,0.9-1.8,1.8-2.8,2.5c-1,0.7-2,1.3-3,1.8c-1,0.5-2,0.7-2.9,0.7
	c-0.4,0-0.8-0.1-1.2-0.2c-0.4-0.1-0.6-0.4-0.6-1c0-0.5,0.2-1.2,0.6-2c0.4-0.8,0.8-1.6,1.3-2.5c0.5-0.9,1-1.8,1.5-2.7s1-1.8,1.3-2.5
	c0.1-0.2,0.1-0.3,0-0.5c-0.1-0.1-0.2-0.1-0.4,0c-0.4,0.3-0.9,0.6-1.4,1c-0.6,0.4-1.1,0.9-1.7,1.4c-0.6,0.5-1.1,1-1.7,1.5
	c-0.5,0.5-1,1-1.3,1.4c-0.6,0.9-1.1,1.8-1.5,2.5c-0.4,0.8-0.9,1.6-1.6,2.6c-0.1,0.2-0.3,0.3-0.3,0.3c-0.2,0-0.3-0.2-0.5-0.6
	c-0.1-0.4-0.2-0.7-0.2-0.8c0-0.3,0.2-0.8,0.7-1.3c0.5-0.6,1-1.2,1.5-1.9c0.6-1.2,1.2-2.4,1.8-3.7c0.6-1.3,1.2-2.5,1.6-3.5
	c0.1-0.2,0.3-0.3,0.5-0.3c0.2,0,0.4,0.1,0.6,0.3c0.2,0.2,0.3,0.4,0.3,0.6c0,0.1-0.3,0.7-0.8,1.5c-0.5,0.9-1.1,1.9-1.6,3
	c0.7-0.6,1.5-1.3,2.3-2c0.8-0.7,1.6-1.3,2.4-1.9c0.8-0.6,1.4-1.1,2-1.5c0.6-0.4,1-0.6,1.2-0.6c0.1,0,0.3,0.1,0.4,0.2
	c0.1,0.2,0.2,0.3,0.2,0.5c0,0.1-0.1,0.4-0.3,0.7c-0.4,0.6-0.9,1.3-1.5,2.3c-0.6,0.9-1.1,1.9-1.7,2.8c-0.5,1-1,1.9-1.3,2.8
	C61.1,38,61,38.7,61,39.2c0,0.4,0.1,0.7,0.3,0.9c0.2,0.2,0.5,0.2,0.9,0.2c0.6,0,1.4-0.2,2.2-0.7c0.8-0.5,1.7-1.1,2.6-1.8
	c0.9-0.7,1.8-1.5,2.6-2.4c0.8-0.9,1.5-1.7,2-2.5c0.1-0.1,0.2-0.1,0.3-0.1C71.9,32.9,71.9,33,71.7,33.3"/>
<path class="st0" d="M76.9,29.6c0-0.5-0.2-0.7-0.7-0.7c-0.4,0-0.7,0.1-1.1,0.4c-0.4,0.3-0.8,0.6-1.1,1c-0.4,0.4-0.7,0.9-1,1.3
	c-0.3,0.5-0.6,1-0.8,1.4c0.1,0,0.2,0.1,0.4,0.1c0.2,0,0.3,0,0.4,0c1.1,0,2-0.4,2.8-1.1C76.5,31.4,76.9,30.6,76.9,29.6 M82.7,33.6
	c-0.6,0.7-1.4,1.5-2.2,2.3c-0.9,0.8-1.8,1.5-2.8,2.1c-1,0.6-2.1,1.2-3.1,1.6c-1.1,0.4-2.2,0.6-3.2,0.6c-1.7,0-2.6-0.7-2.6-2.2
	c0-1,0.3-2,0.8-3.1c0.5-1.1,1.2-2.2,2.1-3.1c0.8-1,1.8-1.7,2.8-2.4c1-0.6,2-1,2.9-1c0.5,0,0.9,0.1,1.1,0.3c0.2,0.2,0.3,0.4,0.3,0.7
	c0,0.4-0.1,0.9-0.4,1.3c-0.3,0.5-0.7,0.9-1.2,1.4c-0.5,0.4-1.2,0.8-2.1,1.1c-0.8,0.3-1.9,0.4-3,0.4c-0.2,0.3-0.4,0.8-0.6,1.5
	c-0.2,0.7-0.3,1.4-0.3,2c0,1.4,0.7,2.1,2,2.1c0.8,0,1.7-0.2,2.6-0.6c0.9-0.4,1.8-0.9,2.6-1.4c0.8-0.6,1.6-1.2,2.3-1.9
	c0.7-0.7,1.3-1.3,1.8-1.9c0.1-0.1,0.2-0.1,0.2-0.1C82.7,33.5,82.7,33.5,82.7,33.6"/>
<path class="st0" d="M24.2,55.6C24.2,55.6,24.2,55.5,24.2,55.6c2.3-2.4,4.3-5.7,5.6-7.9c1.3-2.2,2.5-4.4,3.7-6.5
	c1.2-2.2,2.4-4.2,3.4-6.2c1.1-2,3-5.4,3.3-5.9c1.9-3.3,3.6-6.4,5.2-9.3c1.7-2.8,3.4-5.6,5.2-8.3c1-1.5,2-2.9,3.1-4.3
	c1.1-1.4,2.3-2.6,3.4-3.7c1.2-1.1,2.3-1.9,3.4-2.6C61.8,0.3,62.9,0,64,0c0.7,0,1.4,0.2,1.9,0.5c0.5,0.3,0.8,0.7,0.8,1.1
	c0,0.1,0,0.4-0.1,0.8s-0.1,0.8-0.2,1.2c-0.1,0.4-0.1,0.9-0.2,1.3c-0.1,0.4-0.1,0.8-0.1,1C66.1,5.9,66,6,65.9,6c-0.1,0-0.1,0-0.2-0.1
	c0.1-0.3,0.1-0.5,0.1-0.8c0-0.2,0-0.4,0-0.7c0-0.7-0.3-1.3-0.9-1.7c-0.6-0.4-1.4-0.6-2.5-0.6c-0.8,0-1.5,0.1-2.4,0.4
	c-0.8,0.3-1.6,0.7-2.5,1.4c-0.9,0.6-1.7,1.5-2.7,2.6C54,7.6,53.1,9,52.1,10.6c-0.5,0.9-1.2,2.2-2,3.6c-0.8,1.5-1.6,3.1-2.6,4.7
	c-0.9,1.7-1.8,3.4-2.7,5.2c-0.9,1.8-1.7,3.4-2.5,4.9c0.6-1-2.7,5.2-4,7.6c-1.3,2.3-2.6,4.6-4,6.8C33,45.6,27,53.6,24.6,56 M24.6,56
	c-2.4,2.4-4.8,4.4-7,5.9c-2.2,1.5-4.3,2.6-6.2,3.3c-1.9,0.7-3.8,1-5.5,1c-0.5,0-1.1-0.1-1.7-0.2c-0.6-0.1-1.2-0.3-1.7-0.7
	c-0.6-0.3-1.1-0.8-1.5-1.4c-0.4-0.6-0.8-1.4-1-2.4c0-0.3,0-0.4,0.1-0.4c0.1,0,0.1,0.1,0.2,0.3c0,0.3,0.2,0.6,0.4,1
	c0.3,0.4,0.6,0.8,1.1,1.2c0.5,0.4,1.1,0.7,1.8,1c0.7,0.3,1.6,0.4,2.6,0.4c1.6,0,3.4-0.3,5.3-0.9c1.9-0.6,3.9-1.5,6-3
	c2.1-1.4,4.3-3.3,6.6-5.7"/>
<path class="st0" d="M49.4,52.7c0.1,0.6,0.2,1.4,0.9,1.7c0.5,0.1,0.9,0.1,1.1,0.1c0.1,0,0.1,0,0.1,0.1c0,0.1-0.2,0.1-0.4,0.1
	c-0.4,0-2.2,0-2.9-0.1c-0.4,0-0.5-0.1-0.5-0.2c0-0.1,0-0.1,0.1-0.1c0.1,0,0.1-0.3,0.1-0.6l-0.8-8.1h0L43,53.9
	c-0.4,0.7-0.4,0.8-0.6,0.8c-0.1,0-0.2-0.2-0.5-0.7c-0.4-0.8-1.9-3.5-2-3.6c-0.2-0.3-2.1-4-2.3-4.5h-0.1l-0.7,7.2c0,0.3,0,0.5,0,0.8
	c0,0.2,0.2,0.4,0.4,0.5c0.3,0.1,0.5,0.1,0.6,0.1c0.1,0,0.1,0,0.1,0.1c0,0.1-0.1,0.1-0.3,0.1c-0.6,0-1.5,0-1.6,0c-0.2,0-1,0-1.4,0
	c-0.2,0-0.3,0-0.3-0.1c0,0,0.1-0.1,0.2-0.1c0.1,0,0.3,0,0.5,0c0.6-0.1,0.6-0.7,0.7-1.3L37.1,43c0-0.2,0.1-0.3,0.2-0.3
	c0.1,0,0.2,0.1,0.3,0.2l5.2,9.8l5-9.8c0.1-0.1,0.1-0.3,0.3-0.3c0.1,0,0.2,0.1,0.2,0.4L49.4,52.7z"/>
<path class="st0" d="M52.9,47.5c0-2.4,0-2.9,0-3.4c0-0.5-0.2-0.8-0.7-0.9c-0.1,0-0.4,0-0.6,0c-0.1,0-0.1,0-0.1-0.1
	c0-0.1,0.1-0.1,0.3-0.1c0.8,0,1.8,0,2,0c0.2,0,1.2,0,1.7,0c0.2,0,0.3,0,0.3,0.1c0,0.1-0.1,0.1-0.1,0.1c-0.1,0-0.2,0-0.4,0
	c-0.5,0.1-0.6,0.3-0.6,0.9c0,0.5,0,0.9,0,3.4v2.2c0,2.3,0.5,3.2,1.3,3.9c0.8,0.7,1.6,0.9,2.6,0.9c1,0,2.1-0.5,2.7-1.1
	c0.8-0.9,1-2.2,1-3.8v-2c0-2.4,0-2.9,0-3.4c0-0.5-0.2-0.8-0.7-0.9c-0.1,0-0.4,0-0.6,0c-0.1,0-0.1,0-0.1-0.1c0-0.1,0.1-0.1,0.3-0.1
	c0.8,0,1.7,0,1.8,0c0.1,0,0.9,0,1.4,0c0.2,0,0.3,0,0.3,0.1c0,0.1-0.1,0.1-0.1,0.1c-0.1,0-0.2,0-0.4,0c-0.5,0.1-0.6,0.3-0.6,0.9
	c0,0.5,0,0.9,0,3.4v1.7c0,1.7-0.2,3.6-1.6,4.7c-1.2,1-2.5,1.2-3.5,1.2c-0.6,0-2.3-0.1-3.5-1.1c-0.8-0.7-1.5-1.8-1.5-4.1V47.5z"/>
<path class="st0" d="M66.1,54.6c-0.2-0.1-0.3-0.2-0.3-0.6c0-0.8,0.1-1.4,0.1-1.7c0-0.2,0.1-0.3,0.1-0.3c0.1,0,0.1,0,0.1,0.2
	c0,0.1,0,0.4,0.1,0.6c0.3,1.2,1.4,1.6,2.5,1.6c1.6,0,2.4-1.1,2.4-2.1c0-1.1-0.5-1.7-2-2.8l-0.8-0.6c-1.8-1.4-2.2-2.3-2.2-3.4
	c0-1.7,1.4-2.8,3.5-2.8c0.7,0,1.2,0.1,1.6,0.2C71.7,43,71.9,43,72,43c0.1,0,0.2,0,0.2,0.1c0,0.1-0.1,0.6-0.1,1.7
	c0,0.3,0,0.4-0.1,0.4c-0.1,0-0.1-0.1-0.1-0.2c0-0.2-0.1-0.6-0.2-0.8c-0.1-0.2-0.6-0.8-2.1-0.8c-1.2,0-2.1,0.7-2.1,1.8
	c0,0.9,0.4,1.5,2.1,2.6l0.5,0.3c2,1.5,2.5,2.4,2.5,3.7c0,0.6-0.3,1.8-1.5,2.6c-0.7,0.5-1.7,0.7-2.6,0.7C67.6,55,66.8,54.9,66.1,54.6
	"/>
<path class="st0" d="M77.5,50.2c0,1.5,0,2.7,0.1,3.4c0.1,0.5,0.2,0.8,0.7,0.9c0.2,0,0.6,0.1,0.8,0.1c0.1,0,0.1,0,0.1,0.1
	c0,0.1-0.1,0.1-0.3,0.1c-0.9,0-2,0-2.1,0c-0.1,0-1.2,0-1.7,0c-0.2,0-0.3,0-0.3-0.1c0,0,0-0.1,0.1-0.1c0.2,0,0.4,0,0.5-0.1
	c0.3-0.1,0.4-0.4,0.5-0.9c0.1-0.7,0.1-1.9,0.1-3.4v-2.7c0-2.4,0-2.9,0-3.4c0-0.5-0.2-0.8-0.6-0.9c-0.2,0-0.4-0.1-0.5-0.1
	c-0.1,0-0.1,0-0.1-0.1c0-0.1,0.1-0.1,0.3-0.1c0.6,0,1.6,0,1.7,0c0.1,0,1.2,0,1.7,0c0.2,0,0.3,0,0.3,0.1c0,0.1-0.1,0.1-0.1,0.1
	c-0.1,0-0.2,0-0.4,0c-0.5,0.1-0.6,0.3-0.6,0.9c0,0.5,0,0.9,0,3.4V50.2z"/>
<path class="st0" d="M82.8,53.3c-1.7-1.4-2.1-3.1-2.1-4.6c0-1,0.4-2.9,1.9-4.3c1-0.9,2.6-1.7,5.2-1.7c0.7,0,1.6,0,2.5,0.2
	c0.7,0.1,1.2,0.2,1.7,0.2c0.2,0,0.2,0.1,0.2,0.2c0,0.1-0.1,0.3-0.1,0.9c0,0.5,0,1.4-0.1,1.6c0,0.2,0,0.3-0.2,0.3
	c-0.1,0-0.1-0.1-0.1-0.3c0-0.6-0.3-1.3-0.7-1.6c-0.6-0.5-1.9-0.9-3.4-0.9c-2.3,0-3.3,0.6-3.9,1.1c-1.2,1.1-1.5,2.5-1.5,4.1
	c0,3,2.5,5.7,6.2,5.7c1.3,0,2.3-0.1,3-0.8c0.4-0.3,0.6-1,0.6-1.3c0-0.2,0.1-0.2,0.2-0.2c0.1,0,0.1,0.1,0.1,0.2c0,0.1-0.2,1.5-0.4,2
	c-0.1,0.3-0.1,0.3-0.4,0.5c-0.7,0.3-2,0.4-3.1,0.4C85.9,55,84.1,54.4,82.8,53.3"/>
<path class="st0" d="M28.5,29c-3.1,0.1-10.3,0.1-12.1,0.2c-1.8,0.1-3.3,0.2-4.4,0.5c-1.1,0.2-1.9,0.5-2.6,1c-0.6,0.4-1.3,1-2.1,1.8
	L7,32.4c1-1.1,2-2,3.1-2.5c1-0.6,2-0.9,2.8-1c0.6-0.1,1.4-0.1,2.3-0.2c1-0.1,2-0.1,3.2-0.1c1.1,0,2.2-0.1,3.3-0.1
	c1.1,0,20.1,0.1,21.7,0.1c1.6,0,3.1,0,4.4,0c1.4,0,2.3,0,2.7,0c0.4,0.1,0.5,0.3,0.3,0.5c-0.3,0-1,0-2.2,0c-1.2,0-2.5,0-4.1,0
	c-1.6,0-3.2,0-5,0c-1.7,0-3.9,0-5.3,0"/>
<path class="st0" d="M10.7,34.9c-0.2,0.6-0.3,1-0.4,1.3c0,0.2,0,0.3,0.1,0.3c0.1,0,0.2,0,0.3,0c0.1,0,0.1,0,0.1,0
	c0,0-0.1,0.1-0.2,0.1c-0.4,0-0.8,0-0.9,0c-0.2,0-0.6,0-0.8,0c-0.1,0-0.1,0-0.1-0.1c0,0,0,0,0.1,0c0.1,0,0.2,0,0.2,0
	c0.1,0,0.2-0.2,0.3-0.3c0.1-0.3,0.3-0.7,0.5-1.3l0.3-1.1c0.3-0.9,0.4-1.1,0.4-1.3c0.1-0.2,0-0.3-0.2-0.3c0,0-0.1,0-0.2,0
	c-0.1,0-0.1,0-0.1,0c0,0,0.1-0.1,0.2-0.1c0.2,0,0.3,0,0.5,0c0.2,0,0.3,0,0.4,0c0.2,0,1.5,0,1.7,0c0.1,0,0.2,0,0.3,0c0,0,0.1,0,0.1,0
	c0,0,0,0,0,0.1c0,0-0.1,0.1-0.1,0.3c0,0.1-0.2,0.4-0.2,0.5c0,0,0,0.1-0.1,0.1c0,0,0,0,0-0.1c0,0,0-0.1,0-0.2c0-0.1-0.1-0.2-0.4-0.2
	l-1,0c0,0-0.1,0-0.1,0.1L11,34c0,0,0,0.1,0,0.1l0.8,0c0.1,0,0.2,0,0.3,0c0.1,0,0.2,0,0.3-0.1c0,0,0.1-0.1,0.1-0.1c0,0,0,0,0,0.1
	c0,0-0.1,0.2-0.2,0.4c-0.1,0.1-0.2,0.4-0.2,0.4c0,0.1,0,0.1-0.1,0.1c0,0,0,0,0-0.1c0,0,0-0.1,0-0.2c0-0.1-0.1-0.2-0.2-0.2
	c-0.1,0-0.8,0-0.9,0c0,0,0,0-0.1,0.1L10.7,34.9z"/>
<path class="st0" d="M14.5,32c0.1-0.1,0.1-0.2,0.2-0.2s0.1,0,0.1,0.2l0.6,3.4l2.8-3.5c0.1-0.1,0.1-0.1,0.2-0.1
	c0.1,0,0.1,0.1,0.1,0.2l-0.7,3.8c-0.1,0.4-0.1,0.6,0.1,0.6c0.2,0.1,0.3,0.1,0.4,0.1c0.1,0,0.1,0,0.1,0c0,0-0.1,0.1-0.2,0.1
	c-0.2,0-1,0-1.3,0c-0.1,0-0.2,0-0.2-0.1c0,0,0,0,0.1-0.1c0,0,0.1-0.1,0.1-0.3l0.5-2.7h0l-2.3,2.8c-0.2,0.3-0.3,0.3-0.3,0.3
	c-0.1,0-0.1-0.1-0.1-0.3c-0.1-0.3-0.2-1.2-0.3-1.4c0-0.1-0.1-0.9-0.2-1.4h0L13.1,36c0,0.1-0.1,0.2-0.1,0.3c0,0.1,0,0.2,0.1,0.2
	c0.1,0,0.2,0,0.3,0c0,0,0.1,0,0.1,0c0,0.1-0.1,0.1-0.2,0.1c-0.3,0-0.5,0-0.6,0c-0.1,0-0.4,0-0.6,0c-0.1,0-0.1,0-0.1-0.1
	c0,0,0.1,0,0.1,0c0,0,0.1,0,0.2,0c0.2,0,0.3-0.3,0.4-0.5L14.5,32z"/>
<path class="st0" d="M21,33.8c0.1-0.3,0.2-0.6,0.3-0.8c0-0.1,0.1-0.2,0-0.2c-0.1,0-0.7,0.2-0.8,0.3c0,0-0.1,0-0.1,0c0,0,0,0,0-0.1
	c0,0,0.1-0.1,0.1-0.1c0,0,1.5-0.8,1.8-0.9c0.1,0,0.1-0.1,0.2-0.1c0.1,0,0,0.1,0,0.1c0,0-0.2,0.7-0.5,1.6l-0.4,1.1
	c-0.2,0.6-0.4,1.1-0.4,1.4c0,0.2,0,0.3,0.1,0.3c0.1,0,0.4,0,0.4,0c0,0,0,0,0,0.1c0,0,0,0.1-0.1,0.1c-0.5,0-0.9,0-1,0
	c-0.1,0-0.7,0-1.1,0c-0.1,0-0.1,0-0.1-0.1c0,0,0-0.1,0.1-0.1c0.1,0,0.4,0,0.5,0c0.2,0,0.3-0.1,0.4-0.3c0.1-0.3,0.3-0.8,0.5-1.4
	L21,33.8z"/>
<path class="st0" d="M24.9,32.2c-0.5,0-1.1,0.7-1.6,2c-0.3,1.1-0.4,2.2,0.3,2.2c0.6,0,1.1-0.7,1.6-2C25.6,33.4,25.7,32.2,24.9,32.2
	 M23.5,36.7c-1.3,0-1.3-1.3-0.9-2.3c0.5-1.4,1.4-2.5,2.6-2.5c1.4,0,1.3,1.3,0.9,2.3C25.6,35.6,24.7,36.7,23.5,36.7"/>
<path class="st0" d="M25.6,36.6C25.6,36.6,25.5,36.6,25.6,36.6c0-0.1,0-0.2,0.1-0.2c1.1-0.7,2.7-1.7,3.1-3c0.3-1-0.2-1.2-0.5-1.2
	c-0.3,0-0.5,0-0.7,0.2c-0.2,0.1-0.4,0.4-0.5,0.6c0,0.1-0.1,0.1-0.1,0.1c0,0,0,0,0-0.1c0-0.1,0.1-0.6,0.2-0.7c0-0.1,0-0.1,0.1-0.1
	c0.3-0.1,0.7-0.2,1.2-0.2c1.1,0,1.4,0.6,1.1,1.3c-0.4,1.2-2.1,2.2-3.1,2.8c0,0,0,0,0,0l0.4,0c0.1,0,0.8,0,1.1,0
	c0.4-0.1,0.7-0.3,0.9-0.5c0-0.1,0.1-0.1,0.1-0.1c0,0,0,0.1,0,0.1c0,0.1-0.3,0.7-0.5,0.9c-0.1,0.2-0.2,0.2-0.6,0.2L25.6,36.6z"/>
<path class="st0" d="M29.4,36.3c0-0.2,0.2-0.4,0.5-0.4c0.2,0,0.3,0.1,0.3,0.4c-0.1,0.2-0.3,0.4-0.5,0.4
	C29.4,36.6,29.4,36.4,29.4,36.3"/>
<path class="st0" d="M30.7,36.6c-0.1-0.1-0.1-0.1,0-0.2c0.1-0.2,0.2-0.6,0.3-0.8c0-0.1,0.1-0.1,0.1-0.1c0,0,0,0,0,0.1
	c-0.2,0.7,0.1,0.8,0.6,0.8c0.5,0,1.1-0.3,1.4-1.1c0.3-1-0.6-1.4-1.1-1.4c-0.1,0-0.1,0-0.1-0.1l0.7-1.6c0-0.1,0.1-0.1,0.1-0.1l1.5,0
	c0.2,0,0.3,0,0.4,0c0.1,0,0.1,0,0.1,0c0.1,0,0.1,0,0,0.1c0,0.1-0.1,0.4-0.3,0.8c0,0,0,0.1-0.1,0.1c0,0,0,0,0-0.1
	c0.1-0.2,0.1-0.3-0.4-0.3l-1.1,0l-0.3,0.7c0.9,0.1,1.9,0.6,1.5,1.7c-0.3,0.8-1.2,1.7-2.6,1.7C31.1,36.7,30.9,36.7,30.7,36.6"/>
<path class="st0" d="M55,21.6c0,0.4-0.2,0.8-0.5,1.2c-0.4,0.4-0.7,0.6-1.2,0.6c-0.4,0-0.6-0.2-0.6-0.6c0-0.4,0.2-0.9,0.5-1.3
	c0.3-0.4,0.7-0.6,1.2-0.6C54.8,21,55,21.2,55,21.6"/>
</svg>
