<?xml version="1.0" encoding="utf-8"?>
<!-- Generator: Adobe Illustrator 21.1.0, SVG Export Plug-In . SVG Version: 6.00 Build 0)  -->
<svg version="1.1" id="Слой_1" xmlns="http://www.w3.org/2000/svg" xmlns:xlink="http://www.w3.org/1999/xlink" x="0px" y="0px"
	 viewBox="0 0 122.1 42.2" style="enable-background:new 0 0 122.1 42.2;" xml:space="preserve">
<style type="text/css">
	.st0{fill:#FFFFFF;}
</style>
<path class="st0" d="M3.5,20.5v-20h3.1c1.8,0,3.2,0.1,4,0.4c1.2,0.3,2.2,0.9,2.9,1.8c0.7,0.9,1.1,1.9,1.1,3c0,0.8-0.2,1.5-0.5,2.1
	c-0.3,0.6-0.8,1.2-1.6,1.7c1.2,0.6,2.1,1.3,2.7,2.1c0.6,0.9,0.8,1.9,0.8,3c0,1.1-0.3,2.1-0.9,3.1c-0.6,0.9-1.3,1.6-2.2,2.1
	c-0.9,0.5-2.2,0.7-3.8,0.7H3.5z M7.3,4.1v4.2h0.8c0.9,0,1.6-0.2,2.1-0.6c0.5-0.4,0.7-0.9,0.7-1.6c0-0.6-0.2-1.1-0.6-1.5
	c-0.4-0.4-1.1-0.5-2-0.5H7.3z M7.3,11.7v5.1h1c1.6,0,2.6-0.2,3.2-0.6c0.5-0.4,0.8-1,0.8-1.7c0-0.9-0.3-1.5-1-2
	c-0.6-0.5-1.7-0.7-3.2-0.7H7.3z"/>
<path class="st0" d="M28.7,5.7h3.7v14.8h-3.7v-1.6c-0.7,0.7-1.5,1.2-2.2,1.5c-0.7,0.3-1.5,0.5-2.4,0.5c-1.9,0-3.6-0.7-5-2.2
	s-2.1-3.3-2.1-5.5c0-2.3,0.7-4.2,2-5.6c1.3-1.5,3-2.2,4.9-2.2c0.9,0,1.7,0.2,2.5,0.5c0.8,0.3,1.5,0.8,2.2,1.5V5.7z M24.8,8.8
	c-1.1,0-2.1,0.4-2.9,1.2c-0.8,0.8-1.1,1.9-1.1,3.1c0,1.3,0.4,2.3,1.2,3.2c0.8,0.8,1.7,1.2,2.9,1.2c1.2,0,2.1-0.4,2.9-1.2
	c0.8-0.8,1.2-1.9,1.2-3.2c0-1.3-0.4-2.3-1.2-3.1C26.9,9.2,26,8.8,24.8,8.8"/>
<polygon class="st0" points="34,0 34,20.5 37.7,20.5 37.7,13.7 44,20.5 48.6,20.5 41.5,12.8 47.9,5.7 43.2,5.7 37.7,11.8 37.7,0 "/>
<path class="st0" d="M61.8,14.2H49.9c0.2,1.1,0.6,1.9,1.4,2.5c0.7,0.6,1.7,0.9,2.9,0.9c1.4,0,2.6-0.5,3.6-1.5l3.1,1.5
	c-0.8,1.1-1.7,1.9-2.8,2.5c-1.1,0.5-2.4,0.8-3.9,0.8c-2.3,0-4.2-0.7-5.7-2.2s-2.2-3.3-2.2-5.5c0-2.3,0.7-4.1,2.2-5.6
	c1.5-1.5,3.3-2.2,5.5-2.2c2.3,0,4.2,0.7,5.7,2.2c1.5,1.5,2.2,3.5,2.2,5.9L61.8,14.2z M58.1,11.3c-0.2-0.8-0.7-1.5-1.5-2
	c-0.7-0.5-1.6-0.8-2.5-0.8c-1,0-1.9,0.3-2.7,0.9c-0.5,0.4-0.9,1-1.4,1.9H58.1z"/>
<path class="st0" d="M63.2,5.7h3.2v1.9c0.3-0.7,0.8-1.3,1.4-1.7c0.6-0.4,1.2-0.6,1.9-0.6c0.5,0,1,0.1,1.5,0.4L70,8.9
	c-0.4-0.2-0.8-0.3-1.1-0.3c-0.6,0-1.1,0.4-1.4,1.1c-0.4,0.7-0.6,2.1-0.6,4.2l0,0.7v6h-3.7V5.7z"/>
<polygon class="st0" points="16.5,21.8 11.8,35.8 7.2,21.8 3.5,21.8 0,41.8 3.7,41.8 5.9,29.2 10.1,41.8 13.5,41.8 17.7,29.2 
	19.9,41.8 23.5,41.8 20.2,21.8 "/>
<path class="st0" d="M38.8,30l-3.1,1.7c-0.6-0.6-1.2-1-1.7-1.3c-0.6-0.2-1.2-0.4-2-0.4c-1.4,0-2.5,0.4-3.4,1.2
	c-0.9,0.8-1.3,1.9-1.3,3.2c0,1.3,0.4,2.3,1.2,3.1c0.8,0.8,1.9,1.2,3.3,1.2c1.7,0,3-0.6,3.9-1.7l2.9,2c-1.6,2.1-3.8,3.1-6.7,3.1
	c-2.6,0-4.6-0.8-6.1-2.3c-1.5-1.5-2.2-3.3-2.2-5.4c0-1.4,0.4-2.8,1.1-4c0.7-1.2,1.7-2.2,3-2.8c1.3-0.7,2.7-1,4.3-1
	c1.5,0,2.8,0.3,4,0.9C37.1,28.1,38,28.9,38.8,30"/>
<polygon class="st0" points="40.1,21.8 44,21.8 44,28.7 49.4,21.8 54,21.8 47,30.7 54.6,41.8 50.1,41.8 44,32.9 44,41.8 40.1,41.8 
	"/>
<path class="st0" d="M68.4,35.5H56.5c0.2,1.1,0.6,1.9,1.4,2.5c0.7,0.6,1.7,0.9,2.9,0.9c1.4,0,2.6-0.5,3.6-1.5l3.1,1.5
	c-0.8,1.1-1.7,1.9-2.8,2.5c-1.1,0.5-2.4,0.8-3.9,0.8c-2.3,0-4.2-0.7-5.7-2.2c-1.5-1.5-2.2-3.3-2.2-5.5c0-2.3,0.7-4.1,2.2-5.6
	c1.5-1.5,3.3-2.2,5.5-2.2c2.3,0,4.2,0.7,5.7,2.2c1.5,1.5,2.2,3.5,2.2,5.9L68.4,35.5z M64.7,32.6c-0.2-0.8-0.7-1.5-1.5-2
	c-0.7-0.5-1.6-0.8-2.5-0.8c-1,0-1.9,0.3-2.7,0.9c-0.5,0.4-0.9,1-1.4,1.9H64.7z"/>
<path class="st0" d="M69.7,27h3.7v1.5c0.8-0.7,1.6-1.2,2.3-1.5c0.7-0.3,1.4-0.4,2.1-0.4c1.5,0,2.7,0.5,3.7,1.5
	c0.9,0.9,1.3,2.2,1.3,3.9v9.8h-3.7v-6.5c0-1.8-0.1-2.9-0.2-3.5c-0.2-0.6-0.4-1-0.8-1.3c-0.4-0.3-0.9-0.5-1.5-0.5
	c-0.8,0-1.4,0.3-1.9,0.8c-0.5,0.5-0.9,1.2-1.1,2.1c-0.1,0.5-0.2,1.5-0.2,3v5.9h-3.7V27z"/>
<polygon class="st0" points="84.9,27 96.2,27 89.6,38.7 95.8,38.7 95.8,41.8 83.9,41.8 90.5,30.2 84.9,30.2 "/>
<path class="st0" d="M117.7,35.5h-11.9c0.2,1.1,0.6,1.9,1.4,2.5c0.7,0.6,1.7,0.9,2.9,0.9c1.4,0,2.6-0.5,3.6-1.5l3.1,1.5
	c-0.8,1.1-1.7,1.9-2.8,2.5c-1.1,0.5-2.4,0.8-3.9,0.8c-2.3,0-4.2-0.7-5.7-2.2c-1.5-1.5-2.2-3.3-2.2-5.5c0-2.3,0.7-4.1,2.2-5.6
	c1.5-1.5,3.3-2.2,5.5-2.2c2.3,0,4.2,0.7,5.7,2.2c1.5,1.5,2.2,3.5,2.2,5.9L117.7,35.5z M114,32.6c-0.2-0.8-0.7-1.5-1.5-2
	c-0.7-0.5-1.6-0.8-2.5-0.8c-1,0-1.9,0.3-2.7,0.9c-0.5,0.4-0.9,1-1.4,1.9H114z"/>
<rect x="97.3" y="27" class="st0" width="3.7" height="14.8"/>
<rect x="97.3" y="23" class="st0" width="3.7" height="2.8"/>
<rect x="118.6" y="39" class="st0" width="3.5" height="2.8"/>
</svg>
