<?xml version="1.0" encoding="utf-8"?>
<!-- Generator: Adobe Illustrator 17.1.0, SVG Export Plug-In . SVG Version: 6.00 Build 0)  -->
<!DOCTYPE svg PUBLIC "-//W3C//DTD SVG 1.1//EN" "http://www.w3.org/Graphics/SVG/1.1/DTD/svg11.dtd">
<svg version="1.1" id="Layer_1" xmlns="http://www.w3.org/2000/svg" xmlns:xlink="http://www.w3.org/1999/xlink" x="0px" y="0px"
	 viewBox="0 0 17.5 17.5" style="enable-background:new 0 0 17.5 17.5;" xml:space="preserve">
<style type="text/css">
	.st0{fill:#B5B6B8;}
</style>
<path class="st0" d="M8.7,0C3.9,0,0,3.9,0,8.7c0,4.8,3.9,8.7,8.7,8.7s8.7-3.9,8.7-8.7C17.5,3.9,13.6,0,8.7,0 M13.1,7.2
	c0.1,2.9-2,6-5.8,6c-1.1,0-2.2-0.3-3.1-0.9c1.1,0.1,2.1-0.2,3-0.8c-0.9,0-1.6-0.6-1.9-1.4c0.3,0.1,0.6,0,0.9,0c-1-0.2-1.6-1.1-1.6-2
	c0.3,0.2,0.6,0.2,0.9,0.3C4.7,7.7,4.4,6.5,5,5.6c1,1.2,2.5,2,4.2,2.1c-0.3-1.3,0.7-2.5,2-2.5c0.6,0,1.1,0.2,1.5,0.6
	c0.5-0.1,0.9-0.3,1.3-0.5c-0.2,0.5-0.5,0.9-0.9,1.1c0.4,0,0.8-0.2,1.2-0.3C13.9,6.6,13.5,6.9,13.1,7.2"/>
</svg>
