<?xml version="1.0" encoding="utf-8"?>
<!-- Generator: Adobe Illustrator 17.1.0, SVG Export Plug-In . SVG Version: 6.00 Build 0)  -->
<!DOCTYPE svg PUBLIC "-//W3C//DTD SVG 1.1//EN" "http://www.w3.org/Graphics/SVG/1.1/DTD/svg11.dtd">
<svg version="1.1" id="Layer_1" xmlns="http://www.w3.org/2000/svg" xmlns:xlink="http://www.w3.org/1999/xlink" x="0px" y="0px"
	 viewBox="0 0 17.5 17.5" style="enable-background:new 0 0 17.5 17.5;" xml:space="preserve">
<style type="text/css">
	.st0{fill:#B5B6B8;}
</style>
<path class="st0" d="M17.5,8.7c0-4.8-3.9-8.7-8.7-8.7C3.9,0,0,3.9,0,8.7c0,4.8,3.9,8.7,8.7,8.7C13.6,17.5,17.5,13.6,17.5,8.7
	 M7.8,3.2L7,5.6v1.7H6.4V5.6C6.3,5.3,6.2,4.9,6,4.3C5.9,3.9,5.7,3.5,5.6,3.2h0.7l0.4,1.6l0.4-1.6H7.8z M9.4,6.3
	c0,0.3-0.1,0.6-0.2,0.7C9.1,7.3,8.9,7.4,8.6,7.4c-0.3,0-0.5-0.1-0.7-0.3C7.8,6.9,7.8,6.6,7.8,6.3V5.2c0-0.3,0.1-0.6,0.2-0.7
	c0.2-0.2,0.4-0.3,0.7-0.3c0.3,0,0.5,0.1,0.7,0.3c0.1,0.2,0.2,0.4,0.2,0.7V6.3z M11.5,7.3H11V7c-0.2,0.3-0.4,0.4-0.6,0.4
	c-0.2,0-0.3-0.1-0.4-0.2c0-0.1-0.1-0.2-0.1-0.5V4.2h0.6v2.3c0,0.1,0,0.2,0,0.2c0,0.1,0.1,0.1,0.1,0.1c0.1,0,0.2-0.1,0.4-0.3V4.2h0.6
	V7.3z M13.3,11.1c0,0.7,0,1.5-0.2,2.2c-0.1,0.5-0.5,0.9-1,0.9c-1.1,0.1-2.3,0.1-3.5,0.1c-1.2,0-2.3,0-3.5-0.1
	c-0.5-0.1-0.9-0.4-1-0.9c-0.2-0.7-0.2-1.5-0.2-2.2c0-0.7,0-1.5,0.2-2.2c0.1-0.5,0.5-0.9,1-0.9c1.1-0.1,2.3-0.1,3.5-0.1
	c1.2,0,2.3,0,3.5,0.1c0.5,0.1,0.9,0.4,1,0.9C13.3,9.6,13.3,10.4,13.3,11.1 M12.6,12.5c0-0.1,0-0.2,0-0.4V12h-0.6c0,0.2,0,0.3,0,0.4
	c0,0.1-0.1,0.2-0.2,0.2c-0.2,0-0.3-0.1-0.3-0.4v-0.5h1.1V11c0-0.3-0.1-0.6-0.2-0.7c-0.2-0.2-0.4-0.3-0.7-0.3c-0.3,0-0.5,0.1-0.7,0.3
	C11,10.5,11,10.7,11,11v1.1c0,0.3,0.1,0.6,0.2,0.7c0.2,0.2,0.4,0.3,0.7,0.3c0.3,0,0.5-0.1,0.7-0.3C12.6,12.7,12.6,12.6,12.6,12.5
	 M11.5,11.2v-0.3c0-0.3,0.1-0.4,0.3-0.4c0.2,0,0.3,0.1,0.3,0.4v0.3H11.5z M10.5,12.8c0-0.1,0.1-0.3,0.1-0.6v-1.2
	c0-0.3,0-0.5-0.1-0.6c-0.1-0.2-0.2-0.3-0.4-0.3c-0.2,0-0.4,0.1-0.6,0.3V9H8.9v4.1h0.6v-0.3c0.2,0.2,0.4,0.3,0.6,0.3
	C10.3,13.1,10.4,13,10.5,12.8 M10,12.2c0,0.3-0.1,0.4-0.2,0.4c-0.1,0-0.2,0-0.3-0.1v-1.9c0.1-0.1,0.2-0.1,0.3-0.1
	c0.2,0,0.2,0.1,0.2,0.4V12.2z M7.9,13.1h0.6V10H7.9v2.4c-0.1,0.2-0.2,0.3-0.4,0.3c-0.1,0-0.1,0-0.1-0.1c0,0,0-0.1,0-0.2V10H6.8v2.4
	c0,0.2,0,0.4,0.1,0.5c0.1,0.2,0.2,0.2,0.4,0.2c0.2,0,0.4-0.1,0.6-0.4V13.1z M6.1,9.5h0.7V9H4.8v0.6h0.7v3.5h0.6V9.5z M8.9,6.4V5.1
	c0-0.3-0.1-0.4-0.3-0.4S8.3,4.8,8.3,5.1v1.3c0,0.3,0.1,0.4,0.3,0.4S8.9,6.7,8.9,6.4"/>
</svg>
