<?xml version="1.0" encoding="utf-8"?>
<!-- Generator: Adobe Illustrator 17.1.0, SVG Export Plug-In . SVG Version: 6.00 Build 0)  -->
<!DOCTYPE svg PUBLIC "-//W3C//DTD SVG 1.1//EN" "http://www.w3.org/Graphics/SVG/1.1/DTD/svg11.dtd">
<svg version="1.1" id="Layer_1" xmlns="http://www.w3.org/2000/svg" xmlns:xlink="http://www.w3.org/1999/xlink" x="0px" y="0px"
	 viewBox="0 0 48 48" enable-background="new 0 0 48 48" xml:space="preserve">
<path fill="#B6B8BA" d="M48,24C48,10.7,37.2,0,24,0C10.7,0,0,10.7,0,24c0,13.2,10.7,24,24,24C37.2,48,48,37.2,48,24 M21.3,8.7
	l-2.1,6.8v4.6h-1.7v-4.6c-0.2-0.8-0.5-2-1.1-3.6c-0.4-1.1-0.7-2.1-1.1-3.2h1.8l1.2,4.5l1.2-4.5H21.3z M25.9,17.3
	c0,0.9-0.2,1.6-0.5,2c-0.4,0.6-1,0.9-1.8,0.9c-0.8,0-1.4-0.3-1.8-0.9c-0.3-0.4-0.5-1.1-0.5-2v-3c0-0.9,0.2-1.6,0.5-2
	c0.4-0.6,1-0.9,1.8-0.9c0.8,0,1.4,0.3,1.8,0.9c0.3,0.4,0.5,1.1,0.5,2V17.3z M31.6,20.1h-1.6v-0.9c-0.6,0.7-1.2,1-1.8,1
	c-0.5,0-0.8-0.2-1-0.6c-0.1-0.3-0.1-0.7-0.1-1.3v-6.8h1.5v6.3c0,0.4,0,0.6,0,0.6c0,0.2,0.2,0.4,0.4,0.4c0.3,0,0.6-0.2,1-0.7v-6.5
	h1.6V20.1z M36.7,30.5c0,2,0,4.1-0.4,6c-0.3,1.3-1.4,2.3-2.7,2.5c-3.1,0.3-6.3,0.4-9.5,0.3c-3.2,0-6.3,0-9.5-0.3
	c-1.3-0.1-2.4-1.1-2.7-2.5c-0.4-1.9-0.4-4-0.4-6c0-2,0-4.1,0.5-6c0.3-1.3,1.4-2.3,2.7-2.5c3.1-0.3,6.3-0.3,9.5-0.3s6.3,0,9.5,0.3
	c1.3,0.2,2.4,1.1,2.7,2.5C36.7,26.4,36.7,28.5,36.7,30.5 M34.7,34.2c0-0.2,0-0.5,0-1V33h-1.6c0,0.6,0,1,0,1
	c-0.1,0.4-0.3,0.6-0.7,0.6c-0.5,0-0.8-0.4-0.8-1.2V32h3.1v-1.8c0-0.9-0.2-1.6-0.5-2c-0.4-0.6-1-0.9-1.8-0.9c-0.8,0-1.4,0.3-1.8,0.9
	c-0.3,0.4-0.5,1.1-0.5,2v3c0,0.9,0.2,1.6,0.5,2c0.4,0.6,1,0.9,1.9,0.9c0.8,0,1.4-0.3,1.9-0.9C34.6,34.9,34.7,34.6,34.7,34.2
	 M31.7,30.7V30c0-0.8,0.3-1.2,0.8-1.2c0.5,0,0.8,0.4,0.8,1.2v0.8H31.7z M28.8,35.1c0.1-0.4,0.2-0.9,0.2-1.7v-3.4
	c0-0.8-0.1-1.4-0.2-1.7c-0.2-0.6-0.6-1-1.2-1c-0.6,0-1.1,0.3-1.6,0.9v-3.7h-1.5V36H26v-0.8c0.5,0.6,1,0.9,1.6,0.9
	C28.2,36.1,28.6,35.8,28.8,35.1 M27.5,33.5c0,0.8-0.2,1.1-0.7,1.1c-0.3,0-0.5-0.1-0.8-0.4v-5.2c0.3-0.3,0.5-0.4,0.8-0.4
	c0.4,0,0.7,0.4,0.7,1.2V33.5z M21.6,36h1.5v-8.4h-1.5V34c-0.3,0.5-0.7,0.7-1,0.7c-0.2,0-0.3-0.1-0.4-0.4c0,0,0-0.2,0-0.6v-6.2h-1.5
	v6.7c0,0.6,0.1,1,0.1,1.3c0.2,0.4,0.5,0.6,1,0.6c0.6,0,1.1-0.3,1.8-1V36z M16.7,26.2h1.8v-1.6h-5.3v1.6H15V36h1.7V26.2z M24.4,17.6
	V14c0-0.8-0.2-1.2-0.7-1.2s-0.7,0.4-0.7,1.2v3.6c0,0.8,0.2,1.2,0.7,1.2S24.4,18.4,24.4,17.6"/>
</svg>
